<?xml version="1.0" encoding="utf-8"?>
<!-- Generator: Adobe Illustrator 26.3.1, SVG Export Plug-In . SVG Version: 6.00 Build 0)  -->
<!DOCTYPE svg PUBLIC "-//W3C//DTD SVG 1.1//EN" "http://www.w3.org/Graphics/SVG/1.1/DTD/svg11.dtd" [
	<!ENTITY ns_extend "http://ns.adobe.com/Extensibility/1.0/">
	<!ENTITY ns_ai "http://ns.adobe.com/AdobeIllustrator/10.0/">
	<!ENTITY ns_graphs "http://ns.adobe.com/Graphs/1.0/">
	<!ENTITY ns_vars "http://ns.adobe.com/Variables/1.0/">
	<!ENTITY ns_imrep "http://ns.adobe.com/ImageReplacement/1.0/">
	<!ENTITY ns_sfw "http://ns.adobe.com/SaveForWeb/1.0/">
	<!ENTITY ns_custom "http://ns.adobe.com/GenericCustomNamespace/1.0/">
	<!ENTITY ns_adobe_xpath "http://ns.adobe.com/XPath/1.0/">
]>
<svg version="1.1" id="Layer_1" xmlns:x="&ns_extend;" xmlns:i="&ns_ai;" xmlns:graph="&ns_graphs;"
	 xmlns="http://www.w3.org/2000/svg" xmlns:xlink="http://www.w3.org/1999/xlink" x="0px" y="0px" viewBox="0 0 1432.8 164.3"
	 style="enable-background:new 0 0 1432.8 164.3;" xml:space="preserve">
<style type="text/css">
	.st0{fill-rule:evenodd;clip-rule:evenodd;fill:#FFFFFF;}
	.st1{fill:#FFFFFF;}
</style>
<metadata>
	<sfw  xmlns="&ns_sfw;">
		<slices></slices>
		<sliceSourceBounds  bottomLeftOrigin="true" height="121.4" width="1414.9" x="-661.7" y="46.6"></sliceSourceBounds>
	</sfw>
</metadata>
<g>
	<path class="st0" d="M1.9,97.4l20.4-7.8c3.1,12.3,12.3,24.1,30.5,24.1c16.2,0,23.5-7,23.5-16.5c0-8.4-5.9-13.7-19.9-15.9l-14.8-2.5
		C21.2,75,7.8,65.5,7.8,44.8c0-18.7,15.7-34.4,43.4-34.4s41.7,15.1,46.2,29.4l-20.1,7.8c-3.1-9.5-10.4-19.3-26.6-19.3
		c-14.5,0-21,7-21,15.4c0,7.8,5.6,12.3,16.5,14.3l15.1,2.5c22.1,3.9,37.5,15.1,37.5,35.2c0,19.9-14.8,35.8-46.4,35.8
		C22.9,131.5,6.6,115.8,1.9,97.4"/>
	<path class="st0" d="M201.4,12.9h-27.4l-16.5,61c-5.3,19.6-6.7,24.6-7.8,29.9l-8.1-36.4l-12-54.6h-23.2l29.9,115.8h25.7l17.6-63.2
		c5.3-19,7-24.9,8.1-29.9c1.4,5,3.1,10.6,8.4,29.9l16.8,63.2h7.3l5.3-25.5c-1.4-5.3-2.8-10.6-7-27.1L201.4,12.9z"/>
	<polygon class="st0" points="291.2,12.9 312.7,12.9 287.8,129 266.5,129 	"/>
	<polygon class="st0" points="328.9,12.9 325,31.4 365.3,31.4 365.3,129 386.8,129 386.8,31.4 427.7,31.4 427.7,12.9 	"/>
	<path class="st0" d="M432.4,70.5c0-33.9,23.8-59.9,58.7-59.9c28.5,0,46.7,16.5,52.3,35.2l-20.1,7.6c-4.2-12.3-13.7-24.3-32.5-24.3
		c-22.1,0-35.8,15.1-35.8,41.7c0,26.3,13.7,42.5,35.8,42.5c18.7,0,28.3-10.9,33-24.9l19.6,7.8c-7.3,21-24.6,35.5-52.6,35.5
		C454.8,131.5,432.4,104.9,432.4,70.5"/>
	<polygon class="st0" points="562.2,12.9 583.8,12.9 583.8,59.9 638.1,59.9 638.1,12.9 659.6,12.9 659.6,129 638.1,129 638.1,78.4 
		583.8,78.4 583.8,129 562.2,129 	"/>
	<polygon class="st0" points="253.4,12.9 274.6,12.9 250,129 228.8,129 	"/>
</g>
<g>
	<g>
		<g>
			<path class="st1" d="M790.5,129.9h-13.3V91c0-12.2-3.8-17.7-12.3-17.7c-10,0-14.6,9.3-14.6,17.8v38.7H737V91.4
				c0-12.3-3.8-18.1-12-18.1c-9.8,0-14.9,9.2-14.9,18.3v38.2h-13.3V64.5h13.3v6.4c4.4-5.4,10.6-8.5,17.5-8.5c8.6,0,15.3,4,19.2,11.4
				c4.9-7.3,12.3-11.4,20.5-11.4c14.5,0,23.2,9.9,23.2,26.4V129.9z M779.2,127.9h9.3V88.8c0-15.5-7.7-24.4-21.2-24.4
				c-8.1,0-15.3,4.4-19.8,12l-1,1.7l-0.8-1.8c-3.4-7.7-9.8-11.9-18.1-11.9c-7.2,0-13.7,3.7-17.7,10.2l-1.9,3V66.5h-9.3v61.4h9.3
				V91.7c0-11.8,7.1-20.3,16.9-20.3c9.4,0,14,6.6,14,20.1V128h9.4V91.1c0-11.6,6.8-19.8,16.6-19.8c12.8,0,14.3,11.2,14.3,19.7V127.9
				z"/>
		</g>
		<g>
			<path class="st1" d="M829.7,131.8c-19.9,0-31.8-13.1-31.8-34.9c0-20,13.1-34.5,31.1-34.5c19,0,30.3,13,30.3,34.6v3.3h-48
				c0.6,12.6,7.8,20.7,18.6,20.7c6.3,0,14.1-2.1,15.7-11.9l0.1-0.8h13.1l-0.1,1.1C857.5,120.2,849.2,131.8,829.7,131.8z M829.1,64.4
				c-16.9,0-29.1,13.7-29.1,32.5c0,20.9,10.8,32.9,29.8,32.9c17.4,0,25.2-9.9,26.8-19.6h-9.2c-1.7,8.2-7.9,12.7-17.5,12.7
				c-12.1,0-20.3-9.5-20.6-23.7v-1h48.1V97C857.4,76.6,846.8,64.4,829.1,64.4z M847.3,92.3h-37.7l0.1-1.1
				c0.9-11.7,8.8-19.9,19.4-19.9c11.2,0,18.2,7.7,18.2,20V92.3z M811.8,90.3h33.5c-0.4-10.6-6.4-16.9-16.2-16.9
				C819.8,73.3,812.9,80.1,811.8,90.3z"/>
		</g>
		<g>
			<path class="st1" d="M895.6,130.5c-12.1,0-19-7.2-19-19.7v-35h-11.8V64.5h11.8V43.6h13.3v20.9H903v11.3h-13.1v33.8
				c0,6.1,2.5,8.7,8.3,8.7c1.6,0,2.9-0.1,4.6-0.4l1.1-0.2v11.7l-0.8,0.2C900.7,130.3,898.3,130.5,895.6,130.5z M866.8,73.8h11.8v37
				c0,14.6,9.2,17.7,17,17.7c2.2,0,4.3-0.2,6.4-0.6v-7.8c-1.3,0.2-2.4,0.2-3.7,0.2c-7,0-10.3-3.5-10.3-10.7V73.8h13.1v-7.3H888V45.6
				h-9.3v20.9h-11.8v7.3H866.8z"/>
		</g>
		<g>
			<path class="st1" d="M928.8,129.9h-13.3V64.5h13.3v7.6c4.1-6.1,10.9-9.7,18.8-9.7c0.8,0,1.9,0,3,0.1l0.9,0.1v13.2l-1.1-0.2
				c-0.9-0.1-1.9-0.3-3.4-0.3c-12.1,0-18.2,6.7-18.2,19.9V129.9L928.8,129.9z M917.5,127.9h9.3V95.3c0-14.3,7-21.9,20.2-21.9
				c1,0,1.8,0.1,2.5,0.1v-9.1c-0.7,0-1.4,0-1.9,0c-8.6,0-15.6,4.5-18.9,12l-1.9-0.4v-9.5h-9.3L917.5,127.9L917.5,127.9z"/>
		</g>
		<g>
			<path class="st1" d="M987.6,131.8c-18.9,0-32.2-14.3-32.2-34.8c0-20.4,13.2-34.6,32.2-34.6c18.6,0,32.2,14.6,32.2,34.6
				C1019.7,117.5,1006.5,131.8,987.6,131.8z M987.6,64.4c-17.8,0-30.2,13.4-30.2,32.6c0,19.6,12.1,32.8,30.2,32.8
				c17.8,0,30.2-13.5,30.2-32.8C1017.7,77.8,1005.4,64.4,987.6,64.4z M987.6,123c-12.4,0-20.5-10.2-20.5-26c0-15.6,8-25.7,20.5-25.7
				s20.5,10.1,20.5,25.7C1008.1,112.8,1000,123,987.6,123z M987.6,73.3c-11.2,0-18.5,9.3-18.5,23.7c0,14.6,7.2,24,18.5,24
				s18.5-9.4,18.5-24C1006.1,82.6,998.8,73.3,987.6,73.3z"/>
		</g>
		<g>
			<path class="st1" d="M1056.6,131.8c-18.3,0-30.2-13.6-30.2-34.6c0-20.5,12.5-34.8,30.4-34.8c9,0,15.6,4.2,19.4,8.6V35.9h13.3v94
				h-13.3v-6.6C1071.8,128.5,1064.5,131.8,1056.6,131.8z M1056.9,64.4c-16.7,0-28.4,13.5-28.4,32.8c0,19.8,11.1,32.6,28.2,32.6
				c8.4,0,16.2-4,19.8-10.3l1.9-3.2v11.5h9.3v-90h-9.3v39.8l-1.9-3.1C1073.6,69.9,1066.8,64.4,1056.9,64.4z M1058.6,123
				c-12.2,0-20.5-10.4-20.5-25.8c0-15.2,8.4-25.8,20.5-25.8c12.2,0,20.5,10.3,20.5,25.7C1079,112.6,1070.8,123,1058.6,123z
				 M1058.6,73.3c-11,0-18.5,9.6-18.5,23.8s7.4,23.8,18.5,23.8s18.5-9.6,18.5-24C1077,82.9,1069.6,73.3,1058.6,73.3z"/>
		</g>
		<g>
			<path class="st1" d="M1134.8,131.8c-19.9,0-31.8-13.1-31.8-34.9c0-20,13.1-34.5,31.1-34.5c19,0,30.3,13,30.3,34.6v3.3h-48.1
				c0.6,12.6,7.8,20.7,18.6,20.7c6.3,0,14.1-2.1,15.7-11.9l0.1-0.8h13.1l-0.1,1.1C1162.5,120.2,1154.2,131.8,1134.8,131.8z
				 M1134.2,64.4c-16.9,0-29.1,13.7-29.1,32.5c0,20.9,10.8,32.9,29.8,32.9c17.4,0,25.2-9.9,26.8-19.6h-9.2
				c-1.7,8.2-7.9,12.7-17.5,12.7c-12.1,0-20.3-9.5-20.6-23.7v-1h48.1V97C1162.5,76.6,1151.9,64.4,1134.2,64.4z M1152.4,92.3h-37.7
				l0.1-1.1c0.9-11.7,8.8-19.9,19.4-19.9c11.2,0,18.2,7.6,18.2,19.9V92.3z M1116.9,90.3h33.5c-0.4-10.6-6.4-16.9-16.2-16.9
				C1124.9,73.3,1118,80.1,1116.9,90.3z"/>
		</g>
		<g>
			<path class="st1" d="M1206.3,131.8c-15,0-32.4-9.1-32.4-34.8c0-20.1,13.9-34.6,32.9-34.6c15.8,0,27.3,9.8,28.6,24.3l0.1,1.1
				h-13.7l-0.1-0.9c-1.1-8.4-6.9-13.6-15.2-13.6c-11.2,0-19,9.8-19,23.7c0,14.6,7.6,24,19.2,24c8.8,0,14.7-5.1,15.8-13.6l0.1-0.9
				h13.1l-0.1,1.1C1234.5,122.8,1223.5,131.8,1206.3,131.8z M1206.8,64.4c-17.9,0-30.9,13.7-30.9,32.6c0,19.9,11.9,32.8,30.4,32.8
				c15.6,0,25.8-7.9,27.4-21.3h-9.2c-1.5,9.1-8.1,14.5-17.7,14.5c-12.7,0-21.2-10.4-21.2-26c0-15.1,8.6-25.7,21-25.7
				c9.1,0,15.5,5.5,17,14.5h9.7C1231.6,73,1221.1,64.4,1206.8,64.4z"/>
		</g>
		<g>
			<path class="st1" d="M1307.2,129.9h-18l-23.3-28.3l-4.3,4.2v24.1h-13.3v-94h13.3V90c1.1-1.1,2.2-2.2,3.3-3.2l21.8-22.2h17.1
				l-28.7,28L1307.2,129.9z M1290.1,127.9h12.7l-30.5-35.5l26.5-25.9h-11.3l-21.2,21.7c-1.7,1.6-3.4,3.3-5,5l-1.7,1.9V37.9h-9.3v90
				h9.3v-23l6.5-6.3L1290.1,127.9z"/>
		</g>
		<g>
			<path class="st1" d="M1337.6,131.8c-19.9,0-31.8-13.1-31.8-34.9c0-20,13.1-34.5,31.1-34.5c19,0,30.3,13,30.3,34.6v3.3h-48.1
				c0.6,12.6,7.8,20.7,18.6,20.7c6.3,0,14.1-2.1,15.7-11.9l0.1-0.8h13.1l-0.1,1.1C1365.3,120.2,1357.1,131.8,1337.6,131.8z
				 M1337,64.4c-16.9,0-29.1,13.7-29.1,32.5c0,20.9,10.8,32.9,29.8,32.9c17.4,0,25.2-9.9,26.8-19.6h-9.2
				c-1.7,8.2-7.9,12.7-17.5,12.7c-12.1,0-20.3-9.5-20.6-23.7v-1h48.1V97C1365.3,76.6,1354.7,64.4,1337,64.4z M1355.2,92.3h-37.7
				l0.1-1.1c0.9-11.7,8.8-19.9,19.4-19.9c11.2,0,18.2,7.6,18.2,19.9V92.3z M1319.7,90.3h33.5c-0.4-10.6-6.4-16.9-16.2-16.9
				C1327.7,73.3,1320.8,80.1,1319.7,90.3z"/>
		</g>
		<g>
			<path class="st1" d="M1394.1,129.9h-13.3V64.5h13.3v7.6c4.1-6.1,10.9-9.7,18.8-9.7c0.8,0,1.9,0,3,0.1l0.9,0.1v13.2l-1.1-0.2
				c-0.9-0.1-1.9-0.3-3.4-0.3c-12.1,0-18.2,6.7-18.2,19.9V129.9z M1382.8,127.9h9.3V95.3c0-14.3,7-21.9,20.2-21.9
				c1,0,1.8,0.1,2.5,0.1v-9.1c-0.7,0-1.4,0-1.9,0c-8.6,0-15.6,4.5-18.9,12l-1.9-0.4v-9.5h-9.3L1382.8,127.9L1382.8,127.9z"/>
		</g>
	</g>
</g>
</svg>
