<svg width="40" height="40" viewBox="0 0 40 40" fill="none" xmlns="http://www.w3.org/2000/svg">
<path d="M20 0C8.956 0 0 8.956 0 20C0 31.044 8.956 40 20 40C31.044 40 40 31.044 40 20C40 8.956 31.044 0 20 0ZM32.728 32.728C29.328 36.128 24.808 38 20 38C15.192 38 10.672 36.128 7.272 32.728C3.872 29.328 2 24.808 2 20C2 15.192 3.872 10.672 7.272 7.272C10.672 3.872 15.192 2 20 2C24.808 2 29.328 3.872 32.728 7.272C36.128 10.672 38 15.192 38 20C38 24.808 36.128 29.328 32.728 32.728Z" fill="#00C389"/>
<path d="M26.7799 23.708C26.3999 23.052 25.9199 22.616 25.4279 22.616H13.6919C13.0599 22.616 12.5439 23.128 12.5439 23.764V27.06C12.5959 27.052 12.6479 27.044 12.6999 27.044H12.8399H27.2399H27.2959C27.3799 27.044 27.4599 27.056 27.5319 27.08C27.5399 26.96 27.5479 26.84 27.5479 26.716C27.5479 26.58 27.5439 26.448 27.5359 26.312C27.5199 26.088 27.4959 25.86 27.4559 25.64C27.4519 25.608 27.4439 25.572 27.4359 25.54C27.4279 25.508 27.4239 25.472 27.4159 25.44C27.3879 25.316 27.3599 25.188 27.3279 25.068C27.1959 24.564 27.0079 24.096 26.7799 23.708ZM13.6519 23.688C13.6599 23.672 13.6839 23.64 13.7359 23.64H24.4039C24.4399 23.64 24.4719 23.66 24.4919 23.692L24.7959 24.28C24.8199 24.324 24.7999 24.36 24.7919 24.376C24.7839 24.392 24.7599 24.424 24.7079 24.424H14.0399C14.0039 24.424 13.9719 24.404 13.9519 24.372L13.6479 23.784C13.6239 23.74 13.6439 23.704 13.6519 23.688ZM27.1399 25.536C27.1479 25.568 27.1519 25.604 27.1599 25.636H26.2559V25.536C26.2559 24.228 25.5039 23.436 25.4959 23.428L25.3319 23.26H26.0879C26.1039 23.28 26.1239 23.296 26.1399 23.312C26.1519 23.328 26.1679 23.344 26.1799 23.356C26.2079 23.388 26.2359 23.42 26.2639 23.456C26.6559 23.948 26.9599 24.668 27.1239 25.436C27.1239 25.472 27.1319 25.504 27.1399 25.536Z" fill="#00C389"/>
<path d="M15.5364 27.8721C15.6084 28.0281 15.6484 28.2041 15.6484 28.3881H24.3204C24.3204 28.2041 24.3604 28.0281 24.4324 27.8721C24.4564 27.8201 24.4844 27.7721 24.5124 27.7241C24.5444 27.6721 24.5844 27.6241 24.6244 27.5761C24.7044 27.4841 24.7964 27.4041 24.9004 27.3401H15.0684C15.1724 27.4041 15.2644 27.4841 15.3444 27.5761C15.3844 27.6241 15.4204 27.6721 15.4564 27.7241C15.4844 27.7721 15.5124 27.8201 15.5364 27.8721Z" fill="#00C389"/>
<path d="M26.6916 27.8721C26.7636 28.0281 26.8036 28.2041 26.8036 28.3881H27.2956C27.5836 28.3881 27.8156 28.1561 27.8196 27.8721C27.8196 27.8681 27.8196 27.8681 27.8196 27.8641C27.8196 27.7281 27.7676 27.6001 27.6796 27.5081C27.6356 27.4641 27.5876 27.4241 27.5316 27.3961C27.4596 27.3601 27.3796 27.3401 27.2956 27.3401H26.2236C26.3276 27.4041 26.4196 27.4841 26.4996 27.5761C26.5396 27.6241 26.5756 27.6721 26.6116 27.7241C26.6396 27.7721 26.6676 27.8201 26.6916 27.8721Z" fill="#00C389"/>
<path d="M12.3958 27.44C12.3358 27.484 12.2838 27.54 12.2478 27.604C12.2038 27.68 12.1758 27.772 12.1758 27.868C12.1758 28.156 12.4118 28.392 12.6998 28.392H13.1638C13.1638 28.208 13.2038 28.032 13.2758 27.876C13.2998 27.824 13.3278 27.776 13.3558 27.728C13.3878 27.676 13.4278 27.628 13.4678 27.58C13.5478 27.488 13.6398 27.408 13.7438 27.344H12.6998C12.6438 27.344 12.5918 27.352 12.5438 27.368C12.4918 27.38 12.4398 27.408 12.3958 27.44Z" fill="#00C389"/>
<path d="M13.5121 28.688C13.6361 29.064 13.9921 29.336 14.4081 29.336C14.8281 29.336 15.1801 29.064 15.3041 28.688C15.3201 28.64 15.3321 28.592 15.3401 28.54C15.3481 28.492 15.3521 28.444 15.3521 28.392C15.3521 28.2 15.2961 28.024 15.1961 27.876C15.1601 27.824 15.1201 27.772 15.0761 27.728C15.0201 27.672 14.9561 27.62 14.8841 27.58C14.7441 27.496 14.5801 27.448 14.4041 27.448C14.2281 27.448 14.0641 27.496 13.9241 27.58C13.8561 27.62 13.7921 27.672 13.7321 27.728C13.6881 27.772 13.6481 27.824 13.6121 27.876C13.5161 28.024 13.4561 28.204 13.4561 28.392C13.4561 28.444 13.4601 28.492 13.4681 28.54C13.4841 28.588 13.4961 28.64 13.5121 28.688ZM14.7241 28.392C14.7241 28.444 14.7121 28.496 14.6881 28.54C14.6521 28.608 14.5921 28.66 14.5161 28.688C14.4841 28.7 14.4441 28.708 14.4081 28.708C14.3681 28.708 14.3321 28.7 14.3001 28.688C14.2281 28.66 14.1641 28.608 14.1281 28.54C14.1041 28.496 14.0921 28.444 14.0921 28.392C14.0921 28.216 14.2321 28.076 14.4081 28.076C14.5841 28.076 14.7241 28.216 14.7241 28.392Z" fill="#00C389"/>
<path d="M24.6683 28.688C24.7923 29.064 25.1483 29.336 25.5643 29.336C25.9803 29.336 26.3363 29.064 26.4603 28.688C26.4763 28.64 26.4883 28.592 26.4963 28.54C26.5043 28.492 26.5083 28.444 26.5083 28.392C26.5083 28.2 26.4523 28.024 26.3523 27.876C26.3163 27.824 26.2763 27.772 26.2323 27.728C26.1763 27.672 26.1123 27.62 26.0403 27.58C25.9003 27.496 25.7363 27.448 25.5603 27.448C25.3843 27.448 25.2203 27.496 25.0803 27.58C25.0123 27.62 24.9483 27.672 24.8883 27.728C24.8443 27.772 24.8043 27.824 24.7683 27.876C24.6723 28.024 24.6123 28.204 24.6123 28.392C24.6123 28.444 24.6163 28.492 24.6243 28.54C24.6403 28.588 24.6523 28.64 24.6683 28.688ZM25.8803 28.392C25.8803 28.444 25.8683 28.496 25.8443 28.54C25.8083 28.608 25.7483 28.66 25.6723 28.688C25.6403 28.7 25.6003 28.708 25.5643 28.708C25.5243 28.708 25.4883 28.7 25.4563 28.688C25.3843 28.66 25.3203 28.608 25.2843 28.54C25.2603 28.496 25.2483 28.444 25.2483 28.392C25.2483 28.216 25.3883 28.076 25.5643 28.076C25.7403 28.076 25.8803 28.216 25.8803 28.392Z" fill="#00C389"/>
<path d="M11.8397 31.62C11.9277 31.62 11.9757 31.616 11.9757 31.616H28.0597C30.2397 31.616 31.3637 29.896 31.3637 29.896H8.63574C9.56774 31.504 11.3397 31.62 11.8397 31.62Z" fill="#00C389"/>
<path d="M9.42838 20.188L29.2004 17.016L29.0164 15.876C28.1844 10.696 23.5164 7.084 18.3764 7.476C18.3284 7.068 18.4084 6.692 18.5804 6.528L18.8124 6.308C18.9284 6.2 18.9764 5.944 18.9324 5.672C18.8764 5.32 18.6884 5.06 18.5124 5.088L17.1764 5.304L15.8404 5.52C15.6644 5.548 15.5684 5.856 15.6244 6.208C15.6684 6.48 15.7924 6.708 15.9364 6.776L16.2244 6.912C16.4404 7.012 16.6324 7.344 16.7164 7.748C11.7124 8.984 8.40838 13.872 9.23638 19.052L9.42838 20.188ZM19.8484 8.56C19.9484 8.56 22.0564 8.584 24.5244 10.46C25.9324 11.532 26.9404 12.848 27.5204 14.368C27.5524 14.456 27.5084 14.552 27.4244 14.584C27.4044 14.592 27.3844 14.596 27.3644 14.596C27.2964 14.596 27.2324 14.556 27.2084 14.488C26.6524 13.024 25.6844 11.76 24.3244 10.724C23.0844 9.78 21.9324 9.332 21.1884 9.124C20.3804 8.896 19.8604 8.892 19.8524 8.892C19.7604 8.892 19.6844 8.816 19.6844 8.724C19.6804 8.636 19.7524 8.56 19.8484 8.56Z" fill="#00C389"/>
</svg>
