<svg width="40" height="40" viewBox="0 0 40 40" fill="none" xmlns="http://www.w3.org/2000/svg">
<path d="M20 0C8.956 0 0 8.956 0 20C0 31.044 8.956 40 20 40C31.044 40 40 31.044 40 20C40 8.956 31.044 0 20 0ZM32.728 32.728C31.076 34.38 29.148 35.68 27.004 36.588C24.788 37.524 22.432 38 20 38C17.568 38 15.212 37.524 12.996 36.588C10.852 35.68 8.928 34.384 7.272 32.728C5.62 31.076 4.32 29.148 3.412 27.004C2.476 24.788 2 22.432 2 20C2 17.568 2.476 15.212 3.412 12.996C4.32 10.852 5.616 8.928 7.272 7.272C8.924 5.62 10.852 4.32 12.996 3.412C15.212 2.476 17.568 2 20 2C22.432 2 24.788 2.476 27.004 3.412C29.148 4.32 31.072 5.616 32.728 7.272C34.38 8.924 35.68 10.852 36.588 12.996C37.524 15.212 38 17.568 38 20C38 22.432 37.524 24.788 36.588 27.004C35.68 29.148 34.38 31.076 32.728 32.728Z" fill="#00C389"/>
<path d="M33.5644 16.816C33.5364 16.74 33.5124 16.66 33.4844 16.584C33.3444 16.2 33.1804 15.828 32.9964 15.464C32.8124 15.104 32.6044 14.756 32.3804 14.42C32.2884 14.288 32.1964 14.156 32.1004 14.028C31.9564 13.836 31.8044 13.648 31.6484 13.464C31.5684 13.372 31.4884 13.28 31.4044 13.192C31.2684 13.048 31.1284 12.904 30.9844 12.768C30.8764 12.664 30.7644 12.56 30.6484 12.464C30.5804 12.404 30.5124 12.348 30.4444 12.292C30.3484 12.212 30.2484 12.136 30.1484 12.056C30.0564 11.984 29.9644 11.916 29.8684 11.852C29.4084 11.524 28.9204 11.236 28.4084 10.988C28.2604 10.916 28.1124 10.852 27.9644 10.788C27.8884 10.756 27.8124 10.724 27.7364 10.696C27.5844 10.636 27.4324 10.58 27.2764 10.528C26.8884 10.396 26.4884 10.288 26.0804 10.204C25.9164 10.172 25.7524 10.14 25.5844 10.116C25.4164 10.092 25.2524 10.068 25.0804 10.052C24.9964 10.044 24.9124 10.036 24.8284 10.028C24.5724 10.008 24.3164 10 24.0564 10C21.8844 10 19.8764 10.688 18.2324 11.86C18.4804 12.556 18.6044 13.288 18.6044 14.04C18.6044 14.924 18.4324 15.784 18.0884 16.592C17.7564 17.372 17.2844 18.076 16.6844 18.676C16.0804 19.28 15.3804 19.752 14.6004 20.08C14.4124 20.16 14.2204 20.232 14.0244 20.292C14.0404 20.916 14.1124 21.528 14.2364 22.116C14.5404 22.304 14.8204 22.524 15.0804 22.784C15.9444 23.648 16.4204 24.796 16.4204 26.02C16.4204 26.188 16.4124 26.352 16.3924 26.516C18.2324 28.692 20.9844 30.072 24.0564 30.072C24.3164 30.072 24.5724 30.064 24.8284 30.044C24.9124 30.036 24.9964 30.032 25.0804 30.02C25.2484 30.004 25.4164 29.98 25.5844 29.956C25.7524 29.932 25.9164 29.9 26.0804 29.868C26.4884 29.784 26.8884 29.676 27.2764 29.544C27.4324 29.492 27.5844 29.436 27.7364 29.376C27.8124 29.348 27.8884 29.316 27.9644 29.284C28.1164 29.22 28.2644 29.152 28.4084 29.084C28.9204 28.836 29.4084 28.548 29.8684 28.22C30.0004 28.128 30.1284 28.032 30.2564 27.932C30.3204 27.884 30.3804 27.832 30.4444 27.78C30.6284 27.628 30.8124 27.468 30.9844 27.3C31.1004 27.188 31.2124 27.076 31.3244 26.96C31.4364 26.844 31.5444 26.724 31.6484 26.604C31.7004 26.544 31.7524 26.48 31.8044 26.42C31.9084 26.296 32.0044 26.168 32.1004 26.04C32.2444 25.848 32.3844 25.648 32.5124 25.444C32.6004 25.308 32.6844 25.172 32.7644 25.032C32.8844 24.82 33.0004 24.608 33.1044 24.388C33.2444 24.096 33.3724 23.796 33.4844 23.488C33.5124 23.412 33.5404 23.332 33.5644 23.256C33.6444 23.024 33.7124 22.784 33.7764 22.544C33.9844 21.744 34.0924 20.9 34.0924 20.036C34.0924 19.172 33.9844 18.328 33.7764 17.528C33.7124 17.288 33.6404 17.052 33.5644 16.816ZM24.0164 28.316V27.316C28.0684 27.316 31.3644 24.02 31.3644 19.968C31.3644 16 28.2044 12.76 24.2724 12.624V13.868C27.5204 14.004 30.1204 16.688 30.1204 19.968C30.1204 23.336 27.3804 26.072 24.0164 26.072C20.6484 26.072 17.9124 23.332 17.9124 19.968H18.4124H18.9124C18.9124 22.784 21.2044 25.072 24.0164 25.072C26.8324 25.072 29.1204 22.78 29.1204 19.968C29.1204 17.24 26.9684 15.004 24.2684 14.868V16.112C26.2804 16.244 27.8764 17.92 27.8764 19.968C27.8764 21 27.4764 21.968 26.7444 22.7L26.3924 22.348L26.0404 21.996C26.0884 21.948 26.1364 21.896 26.1844 21.84C26.6324 21.32 26.8804 20.664 26.8804 19.972C26.8804 18.48 25.7324 17.252 24.2724 17.12V17.224V17.992H24.0164H23.8364V14.548V11.252H24.2724V11.628C28.7564 11.764 32.3644 15.452 32.3644 19.972C32.3644 24.572 28.6204 28.316 24.0164 28.316Z" fill="#00C389"/>
<path d="M8.16008 18.564C8.21608 18.612 8.27608 18.66 8.33208 18.708C9.35208 19.516 10.6401 20 12.0401 20C12.5161 20 12.9761 19.944 13.4161 19.84C13.6241 19.792 13.8241 19.732 14.0201 19.664C16.3401 18.844 18.0001 16.636 18.0001 14.04C18.0001 13.416 17.9041 12.812 17.7241 12.244C17.6601 12.04 17.5841 11.844 17.5001 11.652C17.2841 11.164 17.0081 10.708 16.6761 10.296C16.6481 10.264 16.6201 10.228 16.5921 10.196C16.3921 9.95602 16.1721 9.73602 15.9361 9.53202C15.8801 9.48402 15.8241 9.43602 15.7641 9.38802C15.7121 9.34402 15.6561 9.30402 15.6001 9.26002C15.5241 9.20402 15.4441 9.14802 15.3681 9.09202C15.2921 9.03602 15.2081 8.98802 15.1281 8.93602C15.0041 8.86002 14.8801 8.79202 14.7521 8.72402C14.6681 8.68002 14.5801 8.64002 14.4921 8.60002C14.2721 8.50002 14.0441 8.41602 13.8121 8.34002C13.2521 8.16402 12.6561 8.07202 12.0401 8.07202C11.0641 8.07202 10.1401 8.30802 9.32808 8.72402C7.40008 9.72002 6.08008 11.728 6.08008 14.04C6.08008 15.736 6.78808 17.268 7.92408 18.352C8.00408 18.424 8.08008 18.496 8.16008 18.564ZM8.51208 16.516H9.00008V12.404H10.0001V16.516H10.6801V10.344H11.6801V16.516H12.4001V11.428H13.4001V16.52H14.0121H14.0801V16.332V13.488H15.0801V14.32V15.536V16.516H15.5681C15.7321 16.516 15.8681 16.652 15.8681 16.816C15.8681 16.98 15.7321 17.116 15.5681 17.116H14.4481H13.8201H8.51208C8.34808 17.116 8.21208 16.98 8.21208 16.816C8.21208 16.652 8.34808 16.516 8.51208 16.516Z" fill="#00C389"/>
<path d="M15.8084 25.7601C15.8004 25.6441 15.7884 25.5321 15.7724 25.4161C15.7604 25.3521 15.7524 25.2841 15.7364 25.2201C15.7084 25.0921 15.6764 24.9641 15.6404 24.8401C15.6204 24.7761 15.6004 24.7161 15.5764 24.6561C15.5524 24.5961 15.5284 24.5361 15.5044 24.4761C15.4884 24.4361 15.4724 24.4001 15.4524 24.3601C15.4324 24.3201 15.4164 24.2801 15.3964 24.2441C15.3844 24.2201 15.3724 24.1961 15.3604 24.1721C15.3244 24.1001 15.2844 24.0321 15.2444 23.9641C15.2124 23.9081 15.1764 23.8561 15.1404 23.8041C15.0604 23.6881 14.9764 23.5721 14.8844 23.4641C14.8524 23.4281 14.8204 23.3881 14.7884 23.3521C14.7444 23.3041 14.7004 23.2601 14.6564 23.2121C14.6124 23.1681 14.5644 23.1241 14.5164 23.0801C14.5044 23.0681 14.4924 23.0561 14.4764 23.0481C14.4524 23.0281 14.4284 23.0041 14.4044 22.9841C14.3484 22.9401 14.2964 22.8961 14.2404 22.8521C14.1844 22.8081 14.1244 22.7681 14.0684 22.7281C13.9524 22.6521 13.8324 22.5801 13.7124 22.5121C13.4684 22.3801 13.2084 22.2761 12.9364 22.2001C12.5924 22.1001 12.2244 22.0481 11.8484 22.0481C11.4724 22.0481 11.1044 22.1001 10.7604 22.2001C10.3524 22.3161 9.96835 22.4961 9.62435 22.7281C9.54435 22.7801 9.46835 22.8361 9.39235 22.8961C9.36835 22.9161 9.34435 22.9361 9.31635 22.9561C9.26835 22.9961 9.22035 23.0401 9.17235 23.0801C9.12435 23.1241 9.08035 23.1681 9.03235 23.2121C8.98835 23.2561 8.94435 23.3041 8.90035 23.3521C8.88035 23.3761 8.85635 23.4001 8.83635 23.4241C8.73235 23.5441 8.63635 23.6721 8.54435 23.8041C8.52835 23.8321 8.50835 23.8561 8.49235 23.8841C8.45635 23.9361 8.42435 23.9921 8.39235 24.0481C8.34435 24.1321 8.30035 24.2161 8.25635 24.3041C8.18835 24.4481 8.12435 24.6001 8.07235 24.7521C8.05235 24.8121 8.03235 24.8761 8.01235 24.9401C7.91235 25.2841 7.86035 25.6521 7.86035 26.0281C7.86035 26.4041 7.91235 26.7721 8.01235 27.1161C8.02835 27.1801 8.04835 27.2401 8.07235 27.3041C8.12435 27.4561 8.18435 27.6081 8.25635 27.7521C8.28435 27.8081 8.31235 27.8681 8.34435 27.9241C8.36035 27.9521 8.37635 27.9801 8.39235 28.0081C8.42435 28.0641 8.45635 28.1201 8.49235 28.1721C8.50835 28.2001 8.52835 28.2241 8.54435 28.2521C8.59635 28.3321 8.65235 28.4081 8.71235 28.4841C8.98835 28.8361 9.32035 29.1361 9.69635 29.3801C9.74835 29.4161 9.80435 29.4481 9.86035 29.4801C10.0004 29.5601 10.1444 29.6321 10.2924 29.6961C10.3524 29.7201 10.4124 29.7441 10.4724 29.7681C10.9004 29.9241 11.3604 30.0081 11.8404 30.0081C12.0444 30.0081 12.2484 29.9921 12.4444 29.9641C12.5084 29.9521 12.5764 29.9441 12.6404 29.9281C12.8364 29.8881 13.0244 29.8361 13.2044 29.7681C13.2644 29.7441 13.3244 29.7201 13.3844 29.6961C13.4444 29.6721 13.5044 29.6441 13.5604 29.6161C13.6484 29.5761 13.7324 29.5281 13.8164 29.4801C13.8724 29.4481 13.9284 29.4161 13.9804 29.3801C14.0084 29.3641 14.0324 29.3441 14.0604 29.3281C14.1924 29.2401 14.3204 29.1401 14.4404 29.0361C14.4644 29.0161 14.4884 28.9961 14.5124 28.9721C14.5604 28.9281 14.6044 28.8841 14.6524 28.8401C14.6964 28.7961 14.7404 28.7481 14.7844 28.7001C14.8284 28.6521 14.8684 28.6041 14.9084 28.5561C14.9884 28.4561 15.0644 28.3561 15.1364 28.2481C15.1724 28.1961 15.2084 28.1401 15.2404 28.0881C15.2884 28.0081 15.3364 27.9241 15.3804 27.8361C15.4084 27.7801 15.4364 27.7201 15.4644 27.6641C15.5044 27.5761 15.5404 27.4881 15.5724 27.3961C15.5964 27.3361 15.6164 27.2721 15.6364 27.2121C15.6884 27.0481 15.7284 26.8761 15.7564 26.7041C15.7924 26.4841 15.8124 26.2601 15.8124 26.0281C15.8164 25.9361 15.8124 25.8481 15.8084 25.7601ZM14.5804 26.9121C14.3444 27.6441 13.8324 28.2401 13.1484 28.5881C12.7364 28.7961 12.2924 28.9041 11.8444 28.9041C11.5444 28.9041 11.2444 28.8561 10.9524 28.7601C9.44035 28.2681 8.61235 26.6401 9.10435 25.1281C9.49635 23.9201 10.5724 23.1361 11.8444 23.1361C13.4324 23.1361 14.7244 24.4281 14.7244 26.0161C14.7204 26.3401 14.6764 26.6121 14.5804 26.9121Z" fill="#00C389"/>
<path d="M11.6403 23.5481C10.6323 23.6241 9.79631 24.2761 9.48031 25.2561C9.08031 26.4921 9.70431 27.8201 10.8843 28.3121L11.6403 25.9921V23.5481Z" fill="#00C389"/>
<path d="M11.9677 26.2759L11.2637 28.4359C11.8357 28.5719 12.4317 28.5039 12.9637 28.2319C13.4957 27.9599 13.9037 27.5199 14.1277 26.9759L12.3077 26.3839L11.9677 26.2759Z" fill="#00C389"/>
<path d="M12.04 23.552V25.88L14.256 26.6C14.3 26.412 14.324 26.232 14.324 26.024C14.32 24.724 13.316 23.652 12.04 23.552Z" fill="#00C389"/>
</svg>
