<svg width="40" height="40" viewBox="0 0 40 40" fill="none" xmlns="http://www.w3.org/2000/svg">
<path d="M20 0C8.956 0 0 8.956 0 20C0 31.044 8.956 40 20 40C31.044 40 40 31.044 40 20C40 8.956 31.044 0 20 0ZM32.728 32.728C29.328 36.128 24.808 38 20 38C15.192 38 10.672 36.128 7.272 32.728C3.872 29.328 2 24.808 2 20C2 15.192 3.872 10.672 7.272 7.272C10.672 3.872 15.192 2 20 2C24.808 2 29.328 3.872 32.728 7.272C36.128 10.672 38 15.192 38 20C38 24.808 36.128 29.328 32.728 32.728Z" fill="#00C389"/>
<path d="M28.1485 20.172C26.6485 20.172 25.2805 20.732 24.2405 21.652L21.3605 19.468V15.74C23.9885 15.132 25.9485 12.776 25.9485 9.96401C25.9485 6.69201 23.2965 4.03601 20.0205 4.03601C16.7485 4.03601 14.0925 6.68801 14.0925 9.96401C14.0925 12.876 16.1925 15.296 18.9605 15.796V19.468L16.1005 21.636C15.0565 20.724 13.6925 20.172 12.2005 20.172C8.92846 20.172 6.27246 22.824 6.27246 26.1C6.27246 29.372 8.92446 32.028 12.2005 32.028C15.4725 32.028 18.1285 29.376 18.1285 26.1C18.1285 25.188 17.9205 24.324 17.5525 23.548L20.1605 21.572L22.8045 23.576C22.4525 24.332 22.2565 25.176 22.2565 26.064C22.2565 29.32 24.8925 31.956 28.1485 31.956C31.4045 31.956 34.0405 29.32 34.0405 26.064C34.0405 22.808 31.4005 20.172 28.1485 20.172ZM28.1485 30.756C25.5605 30.756 23.4565 28.652 23.4565 26.064C23.4565 25.448 23.5765 24.86 23.7925 24.324C23.9005 24.056 24.0285 23.804 24.1805 23.564L23.7005 23.2L23.2205 22.836L20.8565 21.044L20.1605 20.516L19.4645 21.044L17.1325 22.812L16.6525 23.176L16.1725 23.54C16.3245 23.776 16.4605 24.032 16.5685 24.296C16.8005 24.852 16.9285 25.464 16.9285 26.1C16.9285 28.708 14.8085 30.828 12.2005 30.828C9.59246 30.828 7.47246 28.708 7.47246 26.1C7.47246 23.492 9.59246 21.372 12.2005 21.372C13.3005 21.372 14.3125 21.748 15.1205 22.384C15.3445 22.56 15.5525 22.756 15.7405 22.968L16.2205 22.604L16.7005 22.24L18.9645 20.524L19.8045 19.888V15.888V15.288V14.688C19.5165 14.676 19.2365 14.636 18.9645 14.572C16.8645 14.088 15.2965 12.208 15.2965 9.96401C15.2965 7.35601 17.4165 5.23601 20.0245 5.23601C22.6325 5.23601 24.7525 7.35601 24.7525 9.96401C24.7525 12.104 23.3205 13.916 21.3645 14.496C21.0925 14.576 20.8125 14.632 20.5245 14.664V15.268V15.872V19.888L21.3645 20.524L23.6525 22.26L24.1325 22.624L24.6125 22.988C24.8005 22.772 25.0045 22.576 25.2285 22.4C26.0325 21.76 27.0485 21.376 28.1525 21.376C30.7405 21.376 32.8445 23.48 32.8445 26.068C32.8405 28.652 30.7325 30.756 28.1485 30.756Z" fill="#00C389"/>
<path d="M18.22 7.69995C17.868 7.69995 17.584 7.98395 17.584 8.33595V11.4C17.584 11.752 17.868 12.036 18.22 12.036C18.572 12.036 18.856 11.752 18.856 11.4V8.33595C18.852 7.98395 18.568 7.69995 18.22 7.69995Z" fill="#00C389"/>
<path d="M16.9838 8.78406C16.9758 8.78406 16.9678 8.78406 16.9598 8.78406C16.7838 8.78406 16.6438 8.92406 16.6438 9.10006V9.68006H16.4918H16.3998C16.3798 9.68006 16.3598 9.68406 16.3398 9.68806C16.2438 9.71206 16.1758 9.80006 16.1758 9.90406C16.1758 10.0081 16.2478 10.0961 16.3398 10.1201C16.3598 10.1241 16.3798 10.1281 16.3998 10.1281H16.4918H16.6438V10.6321C16.6438 10.8081 16.7878 10.9481 16.9598 10.9481C16.9678 10.9481 16.9758 10.9481 16.9838 10.9481C17.1478 10.9361 17.2758 10.8001 17.2758 10.6321V9.10006C17.2758 8.93606 17.1478 8.79606 16.9838 8.78406Z" fill="#00C389"/>
<path d="M22.0325 12.032C22.3845 12.032 22.6685 11.748 22.6685 11.396V8.33205C22.6685 7.98005 22.3845 7.69604 22.0325 7.69604C21.6805 7.69604 21.3965 7.98005 21.3965 8.33205V11.4C21.4005 11.748 21.6845 12.032 22.0325 12.032Z" fill="#00C389"/>
<path d="M23.2398 10.952C23.2478 10.952 23.2598 10.952 23.2678 10.952C23.4278 10.936 23.5558 10.8 23.5558 10.636V10.132H23.7758C23.8998 10.132 23.9998 10.032 23.9998 9.90796C23.9998 9.78396 23.8998 9.68396 23.7758 9.68396H23.5558V9.10396C23.5558 8.93996 23.4278 8.80396 23.2678 8.78796C23.2598 8.78796 23.2478 8.78796 23.2398 8.78796C23.1238 8.78796 23.0238 8.84796 22.9678 8.94396C22.9398 8.99196 22.9238 9.04796 22.9238 9.10796V10.64C22.9238 10.7 22.9398 10.756 22.9678 10.804C23.0238 10.888 23.1238 10.952 23.2398 10.952Z" fill="#00C389"/>
<path d="M21.0999 10.276H21.1239V9.448H21.0999H20.7999H19.4519H19.1519H19.1279V10.276H19.1519H19.4519H20.7999H21.0999Z" fill="#00C389"/>
<path d="M14.6241 23.808C14.4681 23.888 13.7921 24.248 13.1801 24.9C13.0921 24.996 13.0081 25.096 12.9241 25.2C12.9241 25.168 12.9201 25.132 12.9201 25.1C12.9001 24.768 12.8361 24.456 12.7561 24.168C12.4921 23.24 12.0121 22.6 12.0121 22.6C12.0121 22.6 11.1521 23.756 11.1001 25.208C10.3481 24.168 9.26407 23.66 9.26407 23.66C9.26407 23.66 9.04407 25.176 9.76407 26.512C9.81607 26.608 9.87207 26.704 9.92807 26.8C9.98407 26.788 10.0361 26.784 10.0961 26.784H10.5441H11.2321H11.8761H12.0921H12.7161H12.7921H13.2801H13.4801H13.9281C13.9761 26.784 14.0241 26.788 14.0721 26.796C14.1001 26.748 14.1281 26.696 14.1561 26.644C14.2921 26.392 14.3961 26.132 14.4721 25.88C14.6041 25.44 14.6601 25.016 14.6801 24.668C14.7081 24.148 14.6561 23.792 14.6561 23.792C14.6561 23.792 14.6441 23.8 14.6241 23.808Z" fill="#00C389"/>
<path d="M13.9317 27.28H13.7757H13.4797H12.6597H12.0157H11.9317H11.3597H10.5397H10.2317H10.0917C9.91167 27.28 9.76367 27.428 9.76367 27.608C9.76367 27.788 9.91167 27.936 10.0917 27.936H10.2117L10.4797 29.356C10.5157 29.548 10.6837 29.688 10.8797 29.688H13.1477C13.3437 29.688 13.5117 29.548 13.5477 29.356L13.8157 27.936H13.9357C14.1157 27.936 14.2637 27.788 14.2637 27.608C14.2557 27.424 14.1117 27.28 13.9317 27.28Z" fill="#00C389"/>
<path d="M30.4678 23.42C30.2918 23.392 30.0838 23.416 29.8718 23.504C29.8638 23.912 29.8638 24.528 29.9398 24.936C29.9358 24.936 29.6398 24.016 29.5958 23.648C29.4518 23.744 29.3078 23.868 29.1798 24.024C29.3118 24.432 29.5238 24.98 29.7398 25.332C29.7358 25.332 29.2077 24.656 29.0037 24.268C28.8677 24.476 28.7118 24.692 28.5478 24.912C28.3798 25.132 28.2037 25.352 28.0237 25.568C27.8677 25.756 27.7078 25.936 27.5478 26.112C27.3478 26.332 27.1517 26.54 26.9638 26.724C26.8957 26.792 26.8278 26.86 26.7598 26.92C26.7718 26.812 26.7798 26.704 26.7918 26.596C26.8078 26.432 26.8238 26.264 26.8398 26.1C26.7918 26.24 26.7438 26.384 26.6958 26.524C26.6238 26.736 26.5478 26.952 26.4718 27.164L26.4358 27.184C26.3758 27.064 26.3118 26.944 26.2518 26.824C26.2398 26.984 26.2278 27.14 26.2158 27.3L25.3438 27.768C25.6238 27.672 25.8998 27.568 26.1718 27.46C26.5518 27.308 26.9237 27.148 27.2837 26.976C27.3758 26.932 27.4638 26.892 27.5518 26.848C28.6718 26.296 29.6998 25.652 30.6278 24.94C30.7158 24.872 30.7997 24.808 30.8837 24.74C30.9077 24.72 30.9478 24.72 30.9718 24.744C30.9918 24.768 30.9918 24.804 30.9678 24.824C29.6358 25.936 28.0638 26.908 26.2918 27.66C26.3278 27.656 26.3677 27.656 26.4037 27.652C26.8037 27.8 27.2078 27.94 27.6198 28.064C27.2998 27.924 26.9838 27.776 26.6758 27.624C26.6878 27.624 26.6958 27.62 26.7078 27.62C26.9798 27.692 27.2558 27.764 27.5358 27.824C27.3998 27.74 27.2598 27.656 27.1278 27.572C28.0998 27.452 29.0518 27.268 29.9758 27.02C29.9998 27.012 30.0238 27.004 30.0478 26.992C29.6838 26.676 29.2837 26.248 29.2837 26.248C29.5357 26.464 29.9198 26.708 30.2878 26.904C30.4998 26.824 30.7038 26.744 30.8918 26.66C30.4158 26.496 29.7798 26.172 29.7798 26.172C30.1758 26.324 30.7878 26.436 31.2598 26.484C31.8798 26.164 32.2958 25.796 32.3678 25.332C32.2718 24.384 31.3878 23.584 30.4678 23.42Z" fill="#00C389"/>
<path d="M26.6961 27.36C26.6761 27.332 26.6361 27.32 26.6001 27.332C26.4361 27.4 26.2681 27.464 26.0961 27.524C25.8241 27.624 25.5481 27.72 25.2641 27.808C25.0561 27.872 24.8481 27.936 24.6361 27.996C24.6321 27.996 24.6321 27.996 24.6281 28C24.5561 28.024 24.5281 28.096 24.5681 28.156C24.6081 28.216 24.7001 28.244 24.7761 28.22C25.2561 28.048 25.7241 27.86 26.1801 27.66C26.3441 27.588 26.5081 27.512 26.6721 27.432C26.7041 27.42 26.7121 27.388 26.6961 27.36Z" fill="#00C389"/>
</svg>
