<svg width="40" height="40" viewBox="0 0 40 40" fill="none" xmlns="http://www.w3.org/2000/svg">
<path d="M20 0C8.956 0 0 8.956 0 20C0 31.044 8.956 40 20 40C31.044 40 40 31.044 40 20C40 8.956 31.044 0 20 0ZM32.728 32.728C29.328 36.128 24.808 38 20 38C15.192 38 10.672 36.128 7.272 32.728C3.872 29.328 2 24.808 2 20C2 15.192 3.872 10.672 7.272 7.272C10.672 3.872 15.192 2 20 2C24.808 2 29.328 3.872 32.728 7.272C36.128 10.672 38 15.192 38 20C38 24.808 36.128 29.328 32.728 32.728Z" fill="#00C389"/>
<path d="M20 4C11.164 4 4 11.164 4 20C4 28.836 11.164 36 20 36C28.836 36 36 28.836 36 20C36 11.164 28.836 4 20 4ZM29.704 29.704C29.488 29.92 29.268 30.128 29.04 30.328C28.924 30.428 28.808 30.532 28.688 30.628C28.564 30.732 28.436 30.832 28.308 30.928C25.928 32.74 23.04 33.724 20 33.724C16.96 33.724 14.072 32.74 11.692 30.928C11.564 30.832 11.436 30.732 11.312 30.628C11.192 30.532 11.076 30.428 10.96 30.328C10.732 30.128 10.512 29.92 10.296 29.704C7.704 27.112 6.276 23.664 6.276 20C6.276 16.336 7.704 12.888 10.296 10.296C12.888 7.704 16.336 6.276 20 6.276C23.664 6.276 27.112 7.704 29.704 10.296C32.296 12.888 33.724 16.336 33.724 20C33.724 23.664 32.296 27.112 29.704 29.704Z" fill="#00C389"/>
<path d="M19.4756 23.1081H19.6116H19.7476H20.1276H20.2636H20.3996C20.3836 22.8641 20.1836 22.6721 19.9396 22.6721C19.6916 22.6721 19.4916 22.8641 19.4756 23.1081Z" fill="#00C389"/>
<path d="M12.2324 24.5479V27.8439C12.2844 27.8359 12.3364 27.8279 12.3884 27.8279H12.5284H26.9284H26.9844C27.0684 27.8279 27.1484 27.8399 27.2204 27.8639C27.2284 27.7439 27.2364 27.6239 27.2364 27.4999C27.2364 27.3199 27.2284 27.1399 27.2164 26.9599C27.2084 26.8679 27.2004 26.7799 27.1884 26.6879C27.1764 26.5959 27.1644 26.5079 27.1484 26.4199C27.1444 26.3879 27.1364 26.3519 27.1284 26.3199C27.1204 26.2879 27.1164 26.2519 27.1084 26.2199C27.0804 26.0959 27.0524 25.9679 27.0204 25.8479C26.6604 24.5039 25.9004 23.3999 25.1204 23.3999H20.4004H20.2644H19.6084H19.4724H13.3804C12.7444 23.4039 12.2324 23.9159 12.2324 24.5479ZM25.7724 24.0479C25.7884 24.0679 25.8084 24.0839 25.8244 24.0999C25.8364 24.1159 25.8524 24.1319 25.8644 24.1439C25.8924 24.1759 25.9204 24.2079 25.9484 24.2439C26.3404 24.7359 26.6444 25.4559 26.8084 26.2239C26.8164 26.2559 26.8244 26.2919 26.8284 26.3239C26.8364 26.3559 26.8404 26.3919 26.8484 26.4239H25.9444V26.3239C25.9444 25.0159 25.1924 24.2239 25.1844 24.2159L25.0204 24.0479H25.7724ZM13.3404 24.4759C13.3484 24.4599 13.3724 24.4279 13.4244 24.4279H24.0924C24.1284 24.4279 24.1604 24.4479 24.1804 24.4799L24.4844 25.0679C24.5084 25.1119 24.4884 25.1479 24.4804 25.1639C24.4724 25.1799 24.4484 25.2119 24.3964 25.2119H13.7244C13.6884 25.2119 13.6564 25.1919 13.6364 25.1599L13.3324 24.5719C13.3124 24.5279 13.3284 24.4919 13.3404 24.4759Z" fill="#00C389"/>
<path d="M15.2239 28.6599C15.2959 28.8159 15.3359 28.9919 15.3359 29.1759H24.0079C24.0079 28.9919 24.0479 28.8159 24.1199 28.6599C24.1439 28.6079 24.1719 28.5599 24.1999 28.5119C24.2319 28.4599 24.2719 28.4119 24.3119 28.3639C24.3919 28.2719 24.4839 28.1919 24.5879 28.1279H14.7559C14.8599 28.1919 14.9519 28.2719 15.0319 28.3639C15.0719 28.4119 15.1079 28.4599 15.1439 28.5119C15.1719 28.5599 15.1999 28.6079 15.2239 28.6599Z" fill="#00C389"/>
<path d="M26.3801 28.6599C26.4521 28.8159 26.4921 28.9919 26.4921 29.1759H26.9841C27.2721 29.1759 27.5041 28.9439 27.5081 28.6599C27.5081 28.6559 27.5081 28.6559 27.5081 28.6519C27.5081 28.5159 27.4561 28.3879 27.3681 28.2959C27.3241 28.2519 27.2761 28.2119 27.2201 28.1839C27.1481 28.1479 27.0681 28.1279 26.9841 28.1279H25.9121C26.0161 28.1919 26.1081 28.2719 26.1881 28.3639C26.2281 28.4119 26.2641 28.4599 26.3001 28.5119C26.3281 28.5599 26.3561 28.6079 26.3801 28.6599Z" fill="#00C389"/>
<path d="M12.0843 28.2281C12.0243 28.2721 11.9723 28.3281 11.9363 28.3921C11.8923 28.4681 11.8643 28.5601 11.8643 28.6561C11.8643 28.9441 12.1003 29.1801 12.3883 29.1801H12.8523C12.8523 28.9961 12.8923 28.8201 12.9643 28.6641C12.9883 28.6121 13.0163 28.5641 13.0443 28.5161C13.0763 28.4641 13.1163 28.4161 13.1563 28.3681C13.2363 28.2761 13.3283 28.1961 13.4323 28.1321H12.3883C12.3323 28.1321 12.2803 28.1401 12.2323 28.1561C12.1803 28.1681 12.1283 28.1961 12.0843 28.2281Z" fill="#00C389"/>
<path d="M13.1956 29.4761C13.3196 29.8521 13.6756 30.1241 14.0916 30.1241C14.5116 30.1241 14.8636 29.8521 14.9876 29.4761C15.0036 29.4281 15.0156 29.3801 15.0236 29.3281C15.0316 29.2801 15.0356 29.2321 15.0356 29.1801C15.0356 28.9881 14.9796 28.8121 14.8796 28.6641C14.8436 28.6121 14.8036 28.5601 14.7596 28.5161C14.7036 28.4601 14.6396 28.4081 14.5676 28.3681C14.4276 28.2841 14.2636 28.2361 14.0876 28.2361C13.9116 28.2361 13.7476 28.2841 13.6076 28.3681C13.5396 28.4081 13.4756 28.4601 13.4156 28.5161C13.3716 28.5601 13.3316 28.6121 13.2956 28.6641C13.1996 28.8121 13.1396 28.9921 13.1396 29.1801C13.1396 29.2321 13.1436 29.2801 13.1516 29.3281C13.1716 29.3761 13.1836 29.4281 13.1956 29.4761ZM13.7796 29.1761C13.7796 29.0001 13.9196 28.8601 14.0956 28.8601C14.2716 28.8601 14.4116 29.0001 14.4116 29.1761C14.4116 29.2281 14.3996 29.2801 14.3756 29.3241C14.3396 29.3921 14.2796 29.4441 14.2036 29.4721C14.1716 29.4841 14.1356 29.4921 14.0956 29.4921C14.0596 29.4921 14.0196 29.4841 13.9876 29.4721C13.9156 29.4441 13.8516 29.3921 13.8156 29.3241C13.7916 29.2801 13.7796 29.2321 13.7796 29.1761Z" fill="#00C389"/>
<path d="M24.3519 29.4761C24.4759 29.8521 24.8319 30.1241 25.2479 30.1241C25.6679 30.1241 26.0199 29.8521 26.1439 29.4761C26.1599 29.4281 26.1719 29.3801 26.1799 29.3281C26.1879 29.2801 26.1919 29.2321 26.1919 29.1801C26.1919 28.9881 26.1359 28.8121 26.0359 28.6641C25.9999 28.6121 25.9599 28.5601 25.9159 28.5161C25.8599 28.4601 25.7959 28.4081 25.7239 28.3681C25.5839 28.2841 25.4199 28.2361 25.2439 28.2361C25.0679 28.2361 24.9039 28.2841 24.7639 28.3681C24.6959 28.4081 24.6319 28.4601 24.5719 28.5161C24.5279 28.5601 24.4879 28.6121 24.4519 28.6641C24.3559 28.8121 24.2959 28.9921 24.2959 29.1801C24.2959 29.2321 24.2999 29.2801 24.3079 29.3281C24.3239 29.3761 24.3359 29.4281 24.3519 29.4761ZM24.9359 29.1761C24.9359 29.0001 25.0759 28.8601 25.2519 28.8601C25.4279 28.8601 25.5679 29.0001 25.5679 29.1761C25.5679 29.2281 25.5559 29.2801 25.5319 29.3241C25.4959 29.3921 25.4359 29.4441 25.3599 29.4721C25.3279 29.4841 25.2919 29.4921 25.2519 29.4921C25.2159 29.4921 25.1759 29.4841 25.1439 29.4721C25.0719 29.4441 25.0079 29.3921 24.9719 29.3241C24.9479 29.2801 24.9359 29.2321 24.9359 29.1761Z" fill="#00C389"/>
<path d="M24.7799 30.3279H14.5679H13.6279H11.4199C11.5439 30.4319 11.6679 30.5319 11.7959 30.6279C11.9279 30.7319 12.0639 30.8319 12.1999 30.9279C14.3999 32.5039 17.0959 33.4279 20.0039 33.4279C22.9159 33.4279 25.6079 32.4999 27.8079 30.9279C27.9439 30.8319 28.0799 30.7319 28.2119 30.6279C28.3399 30.5319 28.4639 30.4319 28.5879 30.3279H25.7199H24.7799Z" fill="#00C389"/>
<path d="M24.436 16.84C26.608 16.84 28.372 15.072 28.372 12.904C28.372 10.732 26.604 8.96802 24.436 8.96802C22.268 8.96802 20.5 10.736 20.5 12.904C20.496 15.072 22.264 16.84 24.436 16.84ZM24.436 9.48002C26.324 9.48002 27.856 11.012 27.856 12.9C27.856 14.788 26.324 16.32 24.436 16.32C22.548 16.32 21.016 14.788 21.016 12.9C21.016 11.012 22.544 9.48002 24.436 9.48002Z" fill="#00C389"/>
<path d="M23.7365 14.1801C23.9125 14.1001 24.0405 13.9921 24.1245 13.8561C24.2085 13.7201 24.2525 13.5641 24.2525 13.3921C24.2525 13.2001 24.1885 13.0441 24.0645 12.9281C23.9405 12.8121 23.7605 12.7401 23.5245 12.7081V12.6961C23.7045 12.6521 23.8565 12.5681 23.9805 12.4481C24.1045 12.3281 24.1645 12.1641 24.1645 11.9601C24.1645 11.7361 24.0765 11.5641 23.8965 11.4401C23.7165 11.3161 23.4765 11.2561 23.1725 11.2561C22.9565 11.2561 22.7725 11.2841 22.6125 11.3401C22.4565 11.3961 22.3205 11.4641 22.2045 11.5481L22.4965 11.9801C22.5645 11.9361 22.6525 11.8881 22.7565 11.8401C22.8605 11.7921 22.9845 11.7641 23.1245 11.7641C23.2765 11.7641 23.3845 11.7921 23.4485 11.8521C23.5125 11.9121 23.5445 11.9921 23.5445 12.1001C23.5445 12.1761 23.5285 12.2441 23.4925 12.3041C23.4565 12.3641 23.3925 12.4121 23.2965 12.4441C23.2005 12.4801 23.0605 12.4961 22.8805 12.4961H22.6525V12.9761H22.8765C23.0605 12.9761 23.2045 12.9921 23.3085 13.0201C23.4125 13.0481 23.4845 13.0921 23.5245 13.1521C23.5645 13.2081 23.5885 13.2801 23.5885 13.3601C23.5885 13.5001 23.5445 13.6121 23.4525 13.6881C23.3645 13.7641 23.2045 13.8041 22.9805 13.8041C22.8605 13.8041 22.7285 13.7881 22.5885 13.7561C22.4485 13.7241 22.3165 13.6761 22.1885 13.6121V14.1441C22.4365 14.2521 22.7205 14.3041 23.0445 14.3041C23.3325 14.3001 23.5605 14.2601 23.7365 14.1801Z" fill="#00C389"/>
<path d="M25.6005 14.3C25.8525 14.3 26.0525 14.24 26.2045 14.116C26.3565 13.996 26.4685 13.82 26.5325 13.592C26.6005 13.364 26.6325 13.092 26.6325 12.776C26.6325 12.296 26.5485 11.92 26.3805 11.652C26.2125 11.384 25.9485 11.248 25.5965 11.248C25.3445 11.248 25.1445 11.308 24.9925 11.432C24.8405 11.552 24.7325 11.728 24.6645 11.956C24.5965 12.184 24.5645 12.456 24.5645 12.776C24.5645 13.256 24.6485 13.628 24.8125 13.896C24.9805 14.164 25.2445 14.3 25.6005 14.3ZM25.2765 12.012C25.3325 11.84 25.4405 11.756 25.6005 11.756C25.7565 11.756 25.8645 11.84 25.9245 12.012C25.9845 12.184 26.0165 12.436 26.0165 12.776C26.0165 13.116 25.9845 13.372 25.9245 13.54C25.8645 13.708 25.7565 13.792 25.6005 13.792C25.4445 13.792 25.3365 13.708 25.2765 13.536C25.2165 13.364 25.1885 13.112 25.1885 12.776C25.1885 12.44 25.2205 12.184 25.2765 12.012Z" fill="#00C389"/>
<path d="M11.1076 16.7919H19.0996C19.3276 16.7919 19.4716 16.5439 19.3556 16.3479L15.3596 9.42388C15.3036 9.32388 15.2036 9.27588 15.1036 9.27588C15.0036 9.27588 14.9036 9.32388 14.8476 9.42388L10.8516 16.3479C10.7356 16.5439 10.8796 16.7919 11.1076 16.7919ZM15.1036 10.0119L18.7196 16.2759H11.4916L15.1036 10.0119Z" fill="#00C389"/>
<path d="M14.3965 12.02L14.5765 14.28H15.3765L15.5365 12.02H14.3965Z" fill="#00C389"/>
<path d="M15.3636 14.6641H14.5996V15.4281H15.3636V14.6641Z" fill="#00C389"/>
<path d="M20.7317 22.656H21.0677C21.0677 22.152 20.5597 21.74 19.9357 21.74C19.3117 21.74 18.8037 22.152 18.8037 22.656H19.1397C19.1397 22.336 19.4957 22.076 19.9357 22.076C20.3757 22.076 20.7317 22.336 20.7317 22.656Z" fill="#00C389"/>
<path d="M18.0801 22.6561H18.4161C18.4161 21.9601 19.1001 21.3921 19.9401 21.3921C20.7801 21.3921 21.4641 21.9601 21.4641 22.6561H21.8001C21.8001 21.7761 20.9681 21.0601 19.9401 21.0601C18.9121 21.0601 18.0801 21.7761 18.0801 22.6561Z" fill="#00C389"/>
<path d="M15.6279 17.74V17.516V17.2H15.3119H14.8639H14.5479V17.516V17.74C14.5479 18.036 14.7879 18.28 15.0879 18.28C15.3879 18.28 15.6279 18.036 15.6279 17.74Z" fill="#00C389"/>
<path d="M14.2603 18.1799H13.9043C13.9043 18.7199 14.4443 19.1559 15.1083 19.1559C15.7723 19.1559 16.3123 18.7159 16.3123 18.1799H15.9563C15.9563 18.5199 15.5763 18.7999 15.1083 18.7999C14.6403 18.7999 14.2603 18.5199 14.2603 18.1799Z" fill="#00C389"/>
<path d="M13.4839 18.1799H13.1279C13.1279 19.1199 14.0159 19.8799 15.1079 19.8799C16.1999 19.8799 17.0879 19.1159 17.0879 18.1799H16.7319C16.7319 18.9199 16.0039 19.5239 15.1079 19.5239C14.2119 19.5239 13.4839 18.9199 13.4839 18.1799Z" fill="#00C389"/>
<path d="M24.9599 17.74V17.516V17.2H24.6439H24.1959H23.8799V17.516V17.74C23.8799 18.036 24.1199 18.28 24.4199 18.28C24.7159 18.28 24.9599 18.036 24.9599 17.74Z" fill="#00C389"/>
<path d="M23.5884 18.1799H23.2324C23.2324 18.7199 23.7724 19.1559 24.4364 19.1559C25.1004 19.1559 25.6404 18.7159 25.6404 18.1799H25.2804C25.2804 18.5199 24.9004 18.7999 24.4324 18.7999C23.9644 18.7999 23.5884 18.5199 23.5884 18.1799Z" fill="#00C389"/>
<path d="M22.8121 18.1799H22.4561C22.4561 19.1199 23.3441 19.8799 24.4361 19.8799C25.5281 19.8799 26.4161 19.1159 26.4161 18.1799H26.0601C26.0601 18.9199 25.3321 19.5239 24.4361 19.5239C23.5401 19.5239 22.8121 18.9199 22.8121 18.1799Z" fill="#00C389"/>
<path d="M11.2396 24.6399H9.93164V24.9959H11.2396V24.6399Z" fill="#00C389"/>
<path d="M11.5957 25.8201H10.0117V26.1761H11.5957V25.8201Z" fill="#00C389"/>
<path d="M11.1597 27.1521H10.0117V27.5081H11.1597V27.1521Z" fill="#00C389"/>
</svg>
