<svg width="40" height="40" viewBox="0 0 40 40" fill="none" xmlns="http://www.w3.org/2000/svg">
<path d="M20 0C8.956 0 0 8.956 0 20C0 31.044 8.956 40 20 40C31.044 40 40 31.044 40 20C40 8.956 31.044 0 20 0ZM32.728 32.728C31.076 34.38 29.148 35.68 27.004 36.588C24.788 37.524 22.432 38 20 38C17.568 38 15.212 37.524 12.996 36.588C10.852 35.68 8.928 34.384 7.272 32.728C5.62 31.076 4.32 29.148 3.412 27.004C2.476 24.788 2 22.432 2 20C2 17.568 2.476 15.212 3.412 12.996C4.32 10.852 5.616 8.928 7.272 7.272C8.924 5.62 10.852 4.32 12.996 3.412C15.212 2.476 17.568 2 20 2C22.432 2 24.788 2.476 27.004 3.412C29.148 4.32 31.072 5.616 32.728 7.272C34.38 8.924 35.68 10.852 36.588 12.996C37.524 15.212 38 17.568 38 20C38 22.432 37.524 24.788 36.588 27.004C35.68 29.148 34.38 31.076 32.728 32.728Z" fill="#00C389"/>
<path d="M11.5603 27.084C11.5603 27.696 11.2003 28.192 10.7563 28.192C10.3123 28.192 9.9523 27.696 9.9523 27.084C9.9523 26.924 9.9763 26.772 10.0203 26.636H9.9523H7.6123C7.7123 27.936 8.1483 28.904 8.9123 29.52C9.2163 29.764 9.5363 29.92 9.8083 30.012C9.9003 30.008 9.9523 30 9.9523 30C9.9523 30 13.5003 30.484 13.8723 26.636H11.4883C11.5323 26.772 11.5603 26.924 11.5603 27.084Z" fill="#00C389"/>
<path d="M16.3196 26.636H15.1436C15.4236 29.52 17.4916 29.972 18.5036 30.016C18.2516 29.904 17.9396 29.724 17.6236 29.456C17.0756 28.976 16.4316 28.108 16.3196 26.636Z" fill="#00C389"/>
<path d="M18.2637 27.084C18.2637 26.924 18.2877 26.772 18.3317 26.636H16.7197C16.8037 27.708 17.1957 28.552 17.8877 29.152C18.4037 29.596 18.9197 29.756 19.0637 29.796V28.196C18.6237 28.196 18.2637 27.7 18.2637 27.084Z" fill="#00C389"/>
<path d="M7.21223 26.636H6.03223C6.26423 29.048 7.74423 29.756 8.82023 29.952C8.76823 29.916 8.71623 29.876 8.66423 29.832C7.80423 29.14 7.31623 28.064 7.21223 26.636Z" fill="#00C389"/>
<path d="M18.7 10H10.788C10.396 10 10.024 10.164 9.76 10.452C8.68 11.62 6 14.948 6 19.168V23.4H7V19.168C7 17.512 7.456 15.82 8.356 14.136C9.12 12.704 10.024 11.64 10.492 11.128C10.568 11.044 10.676 11 10.788 11H18.1V23.4H19.064H19.1V10.4C19.1 10.18 18.924 10 18.7 10Z" fill="#00C389"/>
<path d="M7.00032 24H6.00032H5.78032C5.48032 24 5.22032 24.14 5.05232 24.352C5.03632 24.372 5.02032 24.392 5.00832 24.412C4.99632 24.432 4.98432 24.452 4.97232 24.472C4.95632 24.504 4.94032 24.536 4.92432 24.568C4.91232 24.6 4.90032 24.636 4.88832 24.668C4.88432 24.684 4.88032 24.704 4.87632 24.72C4.84032 24.876 4.84832 25.048 4.90432 25.216L5.01632 25.544C5.02832 25.576 5.04032 25.604 5.05232 25.632C5.06032 25.648 5.06832 25.664 5.07632 25.676C5.10832 25.732 5.14832 25.784 5.19232 25.828C5.23232 25.868 5.27632 25.9 5.32432 25.928C5.37232 25.956 5.42032 25.98 5.47632 25.996C5.54832 26.02 5.62032 26.032 5.70032 26.032H6.00832H9.96032H10.5003H11.0243H13.9123H15.1203H16.3123H16.5123H18.8123H19.0723V26V25.976V25.816V24H18.1083H7.00032Z" fill="#00C389"/>
<path d="M16.48 12H11.628C11.228 12 10.848 12.184 10.6 12.496C9.824 13.468 8.256 15.824 8 19.212H14.6C14.6 19.212 15.04 15.352 16.812 12.608C16.984 12.344 16.792 12 16.48 12Z" fill="#00C389"/>
<path d="M8.616 22.98C8.956 22.98 9.232 22.312 9.232 21.488C9.232 20.664 8.956 19.996 8.616 19.996C8.276 19.996 8 20.664 8 21.488C8 22.312 8.276 22.98 8.616 22.98Z" fill="#00C389"/>
<path d="M13.9998 20C13.6598 20 13.3838 20.668 13.3838 21.492C13.3838 22.316 13.6598 22.984 13.9998 22.984C14.3398 22.984 14.6158 22.316 14.6158 21.492C14.6158 20.668 14.3398 20 13.9998 20Z" fill="#00C389"/>
<path d="M33.7801 23.7H33.5601V19.168C33.5601 18.964 33.5521 18.764 33.5401 18.564C33.5321 18.448 33.5241 18.336 33.5121 18.224C33.5121 18.212 33.5081 18.2 33.5081 18.188C33.3481 16.556 32.8161 15.088 32.1801 13.856C32.1561 13.808 32.1321 13.76 32.1041 13.716C32.0201 13.556 31.9361 13.404 31.8481 13.252C31.7561 13.088 31.6601 12.932 31.5641 12.78C31.5161 12.704 31.4681 12.628 31.4201 12.556C31.3961 12.52 31.3721 12.484 31.3481 12.448C31.1601 12.16 30.9681 11.896 30.7881 11.652C30.7641 11.62 30.7441 11.592 30.7201 11.564C30.3841 11.12 30.0761 10.764 29.8361 10.504C29.8201 10.488 29.8041 10.468 29.7881 10.452C29.6761 10.332 29.5481 10.236 29.4081 10.16C29.3921 10.152 29.3801 10.144 29.3641 10.14C29.2841 10.1 29.2001 10.072 29.1161 10.048C29.0921 10.04 29.0681 10.036 29.0441 10.032C28.9481 10.012 28.8521 10 28.7561 10H20.8561C20.6361 10 20.4561 10.18 20.4561 10.4V23.96H20.4921V24.3H33.7801C33.9841 24.3 34.1681 24.396 34.2881 24.56C34.4081 24.724 34.4361 24.932 34.3721 25.124L34.2601 25.452C34.2041 25.624 34.0441 25.736 33.8641 25.736H20.4921V25.976V26.336H21.0841C21.2161 26.532 21.2961 26.796 21.2961 27.084C21.2961 27.696 20.9361 28.192 20.4921 28.192V29.792C20.6401 29.752 21.1681 29.588 21.6841 29.136C22.4281 28.484 22.8201 27.54 22.8521 26.332H23.2521C23.2081 27.988 22.5201 28.94 21.9281 29.448C21.6161 29.72 21.3001 29.896 21.0481 30.008C22.0961 29.964 24.2721 29.484 24.4321 26.328H25.6561C25.8681 30.5 29.6001 29.992 29.6001 29.992C29.6001 29.992 29.6521 30 29.7441 30.004C30.0161 29.912 30.3361 29.756 30.6401 29.512C31.4601 28.848 31.9041 27.78 31.9561 26.328H32.3561C32.3001 27.908 31.8081 29.084 30.8921 29.824C30.8401 29.868 30.7881 29.904 30.7361 29.944C31.8521 29.744 33.4121 28.98 33.5441 26.328H33.8601C34.2961 26.328 34.6881 26.048 34.8281 25.636L34.9401 25.308C35.0681 24.928 35.0081 24.528 34.7761 24.204C34.5441 23.88 34.1801 23.7 33.7801 23.7ZM23.0761 12H27.9321C28.3321 12 28.7121 12.184 28.9601 12.496C29.7361 13.468 31.3041 15.824 31.5601 19.212H24.9601C24.9601 19.212 24.5201 15.352 22.7481 12.608C22.5761 12.344 22.7641 12 23.0761 12ZM30.3281 21.492C30.3281 20.668 30.6041 20 30.9441 20C31.2841 20 31.5601 20.668 31.5601 21.492C31.5601 22.232 31.3401 22.844 31.0481 22.964C31.0161 22.976 30.9801 22.984 30.9481 22.984C30.9161 22.984 30.8801 22.976 30.8481 22.964C30.5521 22.844 30.3281 22.232 30.3281 21.492ZM24.9441 21.492C24.9441 20.668 25.2201 20 25.5601 20C25.9001 20 26.1761 20.668 26.1761 21.492C26.1761 22.232 25.9561 22.844 25.6641 22.964C25.6321 22.976 25.5961 22.984 25.5641 22.984C25.5281 22.984 25.4961 22.976 25.4641 22.964C25.1641 22.844 24.9441 22.232 24.9441 21.492ZM28.8001 28.196C28.3561 28.196 27.9961 27.7 27.9961 27.088C27.9961 26.8 28.0761 26.536 28.2081 26.34H29.3921C29.5241 26.536 29.6041 26.8 29.6041 27.088C29.6041 27.7 29.2441 28.196 28.8001 28.196Z" fill="#00C389"/>
</svg>
