<svg width="40" height="40" viewBox="0 0 40 40" fill="none" xmlns="http://www.w3.org/2000/svg">
<path d="M33.2242 25.4839V25.2159C33.4282 22.7079 32.5202 19.6679 31.1122 18.1359C30.5242 17.4959 29.8802 17.1599 29.2442 17.1599H9.26018C7.96418 17.1599 6.90818 18.2159 6.90818 19.5119V25.3919C6.53218 25.6199 6.28418 26.0319 6.28418 26.4999C6.28418 27.2119 6.86418 27.7919 7.57618 27.7919H8.87618V27.5919V27.3919H7.57618C7.08418 27.3919 6.68418 26.9919 6.68418 26.4999C6.68418 26.2719 6.76818 26.0639 6.90818 25.9079C7.01618 25.7879 7.15218 25.6959 7.30818 25.6479C7.39218 25.6199 7.48418 25.6079 7.57618 25.6079H8.87618V25.4079V25.2079H7.57618C7.48418 25.2079 7.39618 25.2159 7.30818 25.2359V19.5159C7.30818 18.4399 8.18018 17.5639 9.26018 17.5639H29.2442C29.8602 17.5639 30.4682 17.9679 31.0082 18.6319H29.0002L29.3282 18.9719C29.3402 18.9839 30.6122 20.3239 30.6122 22.5399V22.7399H32.7002C32.8402 23.5559 32.8922 24.3999 32.8242 25.2039V25.2719C32.6962 25.2319 32.5642 25.2079 32.4202 25.2079H31.0162V25.4079V25.6079H32.4202C32.5642 25.6079 32.7002 25.6439 32.8242 25.7039C32.9962 25.7919 33.1402 25.9319 33.2242 26.1079C33.2842 26.2279 33.3162 26.3599 33.3162 26.5039C33.3162 26.9959 32.9162 27.3959 32.4242 27.3959H31.0202V27.5959V27.7959H32.4242C33.1362 27.7959 33.7162 27.2159 33.7162 26.5039C33.7162 26.0879 33.5242 25.7199 33.2242 25.4839ZM31.0122 22.3359C30.9602 20.7079 30.2882 19.5639 29.8962 19.0279H31.3042C31.8922 19.8999 32.3642 21.0759 32.6282 22.3359H31.0122Z" fill="#00C389"/>
<path d="M30.3759 25.6039C30.3799 25.5359 30.3839 25.4719 30.3839 25.4039C30.3839 25.3359 30.3879 25.2719 30.3879 25.2039C30.3879 24.7079 30.3359 24.1959 30.2439 23.6919C29.9919 22.3279 29.4319 21.0159 28.6999 20.2199C28.2279 19.7039 27.6999 19.4319 27.1839 19.4319H11.6559C10.5999 19.4319 9.73986 20.2919 9.73986 21.3479V23.6919V25.2039V25.4039V25.6039V25.8679C9.67986 25.9079 9.62386 25.9559 9.57186 26.0079C9.45986 26.1199 9.37186 26.2559 9.31986 26.4079C9.27986 26.5239 9.25586 26.6479 9.25586 26.7759C9.25586 27.0039 9.32786 27.2159 9.44786 27.3919C9.49986 27.4639 9.55586 27.5319 9.62386 27.5919C9.71986 27.6759 9.82786 27.7439 9.94786 27.7919C10.0719 27.8439 10.2079 27.8719 10.3519 27.8719H11.3599V27.7919V27.6679V27.5919V27.4679H10.3479C10.2319 27.4679 10.1239 27.4399 10.0279 27.3919C9.80386 27.2759 9.65186 27.0439 9.65186 26.7759C9.65186 26.6559 9.68386 26.5399 9.73986 26.4399C9.74786 26.4279 9.75186 26.4159 9.75986 26.4039C9.84786 26.2679 9.97986 26.1599 10.1399 26.1119C10.2039 26.0919 10.2759 26.0799 10.3479 26.0799H11.3599V26.0039V25.8799V25.6799H10.3479C10.2759 25.6799 10.2079 25.6879 10.1399 25.6999V25.6039V25.4039V25.2039V23.6919V21.3479C10.1399 20.5119 10.8199 19.8319 11.6559 19.8319H27.1799C27.6439 19.8319 28.1039 20.1279 28.5119 20.6159H26.8879L27.2119 20.9559C27.2199 20.9679 28.1959 21.9999 28.1959 23.6959V23.6999V23.8999H29.8679C29.9399 24.3319 29.9799 24.7719 29.9799 25.2079C29.9799 25.2759 29.9799 25.3399 29.9759 25.4079C29.9759 25.4759 29.9719 25.5399 29.9679 25.6079C29.9639 25.6479 29.9639 25.6919 29.9599 25.7319C29.8599 25.6999 29.7559 25.6839 29.6439 25.6839H28.5599V25.8839V26.0079V26.0839H29.6479C29.7599 26.0839 29.8679 26.1119 29.9599 26.1599C30.0719 26.2159 30.1679 26.3039 30.2359 26.4119C30.3039 26.5199 30.3439 26.6439 30.3439 26.7799C30.3439 26.7879 30.3439 26.7919 30.3439 26.7999C30.3359 27.0599 30.1879 27.2839 29.9679 27.3999C29.8719 27.4479 29.7639 27.4759 29.6479 27.4759H28.5599V27.5999V27.6759V27.7999V27.8799H29.6479C29.7919 27.8799 29.9279 27.8519 30.0519 27.7999C30.1719 27.7519 30.2799 27.6839 30.3759 27.5999C30.4439 27.5399 30.4999 27.4719 30.5519 27.3999C30.6719 27.2239 30.7439 27.0119 30.7439 26.7839C30.7439 26.6559 30.7199 26.5319 30.6799 26.4159C30.6239 26.2639 30.5399 26.1279 30.4279 26.0159C30.4079 25.9959 30.3839 25.9759 30.3639 25.9559V25.7959C30.3679 25.7239 30.3719 25.6639 30.3759 25.6039ZM27.7719 21.0159H28.8079C29.2439 21.6759 29.5959 22.5559 29.7959 23.4959H28.5959C28.5479 22.3159 28.0799 21.4599 27.7719 21.0159Z" fill="#00C389"/>
<path d="M20 0C8.956 0 0 8.956 0 20C0 31.044 8.956 40 20 40C31.044 40 40 31.044 40 20C40 8.956 31.044 0 20 0ZM32.728 32.728C29.328 36.128 24.808 38 20 38C15.192 38 10.672 36.128 7.272 32.728C3.872 29.328 2 24.808 2 20C2 15.192 3.872 10.672 7.272 7.272C10.672 3.872 15.192 2 20 2C24.808 2 29.328 3.872 32.728 7.272C36.128 10.672 38 15.192 38 20C38 24.808 36.128 29.328 32.728 32.728Z" fill="#00C389"/>
<path d="M12.6961 25.64H27.3441C27.3601 25.64 27.3761 25.64 27.3921 25.64C27.4601 25.644 27.5281 25.656 27.5921 25.672C27.5921 25.648 27.5961 25.628 27.5961 25.604C27.6001 25.54 27.6001 25.476 27.6001 25.408V25.404C27.6001 25.336 27.6001 25.272 27.5961 25.204C27.5921 25 27.5721 24.8 27.5481 24.596C27.5361 24.504 27.5241 24.416 27.5081 24.324C27.5041 24.292 27.4961 24.256 27.4881 24.224C27.4801 24.192 27.4761 24.156 27.4681 24.124C27.4401 23.996 27.4121 23.872 27.3801 23.748C27.3761 23.728 27.3681 23.712 27.3641 23.692C26.9961 22.364 26.2401 21.28 25.4641 21.28H13.6521C13.0161 21.28 12.4961 21.796 12.4961 22.436V23.692V24.596V25.204V25.404V25.604V25.652C12.5481 25.644 12.6001 25.64 12.6561 25.64H12.6961ZM24.8241 23.056C24.8161 23.072 24.7921 23.104 24.7401 23.104H14.0001C13.9641 23.104 13.9281 23.084 13.9121 23.052L13.6081 22.46C13.5841 22.416 13.6041 22.38 13.6121 22.364C13.6201 22.348 13.6441 22.316 13.6961 22.316H24.4361C24.4721 22.316 24.5041 22.336 24.5241 22.368L24.8281 22.96C24.8481 23.004 24.8321 23.044 24.8241 23.056ZM25.5281 22.1L25.3641 21.932H26.2561C26.2841 21.964 26.3121 21.996 26.3441 22.032C26.3641 22.056 26.3841 22.084 26.4041 22.108C26.7201 22.524 26.9801 23.08 27.1561 23.692C27.1961 23.832 27.2321 23.976 27.2641 24.124C27.2721 24.156 27.2761 24.192 27.2841 24.224C27.2921 24.256 27.2961 24.292 27.3041 24.324H26.2921V24.224C26.2921 24.036 26.2761 23.86 26.2481 23.692C26.0921 22.7 25.5361 22.108 25.5281 22.1Z" fill="#00C389"/>
<path d="M24.2519 27.096C24.2519 26.992 24.2639 26.892 24.2879 26.792C24.2959 26.752 24.3079 26.712 24.3199 26.676C24.3439 26.608 24.3719 26.54 24.4039 26.476C24.4159 26.452 24.4279 26.428 24.4439 26.404C24.4479 26.4 24.4479 26.396 24.4519 26.392C24.4759 26.352 24.5039 26.312 24.5319 26.276C24.5879 26.204 24.6479 26.14 24.7159 26.08L24.7199 26.076C24.7359 26.064 24.7479 26.052 24.7639 26.04H15.2119C15.2279 26.052 15.2439 26.064 15.2559 26.076L15.2599 26.08C15.3279 26.14 15.3879 26.204 15.4439 26.276C15.4719 26.312 15.4999 26.352 15.5239 26.392C15.5279 26.396 15.5279 26.4 15.5319 26.404C15.5439 26.428 15.5599 26.452 15.5719 26.476C15.6039 26.54 15.6319 26.608 15.6559 26.676C15.6679 26.716 15.6799 26.752 15.6879 26.792C15.7119 26.888 15.7239 26.992 15.7239 27.096H24.2519Z" fill="#00C389"/>
<path d="M27.3444 27.096C27.5564 27.096 27.7364 26.972 27.8204 26.792C27.8364 26.756 27.8524 26.716 27.8604 26.676C27.8684 26.64 27.8724 26.604 27.8724 26.568C27.8724 26.512 27.8644 26.456 27.8484 26.408C27.8484 26.404 27.8444 26.4 27.8444 26.396C27.8284 26.352 27.8084 26.312 27.7844 26.272C27.7324 26.196 27.6644 26.136 27.5844 26.096C27.5724 26.092 27.5644 26.084 27.5524 26.08C27.5004 26.056 27.4444 26.044 27.3844 26.04C27.3724 26.04 27.3604 26.04 27.3484 26.04H26.4404C26.4564 26.052 26.4724 26.064 26.4844 26.076L26.4884 26.08C26.5564 26.14 26.6164 26.204 26.6724 26.276C26.7004 26.312 26.7284 26.352 26.7524 26.392C26.7564 26.396 26.7564 26.4 26.7604 26.404C26.7724 26.428 26.7884 26.452 26.8004 26.476C26.8324 26.54 26.8604 26.608 26.8844 26.676C26.8964 26.716 26.9084 26.752 26.9164 26.792C26.9404 26.888 26.9524 26.992 26.9524 27.096H27.3444Z" fill="#00C389"/>
<path d="M12.4479 26.0799C12.3919 26.1039 12.3399 26.1359 12.2959 26.1799C12.2319 26.2399 12.1839 26.3119 12.1559 26.3919C12.1559 26.3959 12.1519 26.3999 12.1519 26.4039C12.1359 26.4559 12.1279 26.5079 12.1279 26.5639C12.1279 26.5999 12.1319 26.6399 12.1399 26.6719C12.1479 26.7119 12.1639 26.7519 12.1799 26.7879C12.2639 26.9679 12.4479 27.0919 12.6559 27.0919H13.0239C13.0239 26.9879 13.0359 26.8879 13.0599 26.7879C13.0679 26.7479 13.0799 26.7079 13.0919 26.6719C13.1159 26.6039 13.1439 26.5359 13.1759 26.4719C13.1879 26.4479 13.1999 26.4239 13.2159 26.3999C13.2199 26.3959 13.2199 26.3919 13.2239 26.3879C13.2479 26.3479 13.2759 26.3079 13.3039 26.2719C13.3599 26.1999 13.4199 26.1359 13.4879 26.0759L13.4919 26.0719C13.5079 26.0599 13.5199 26.0479 13.5359 26.0359H12.6999H12.6599C12.6039 26.0359 12.5519 26.0439 12.4999 26.0599C12.4799 26.0679 12.4639 26.0759 12.4479 26.0799Z" fill="#00C389"/>
<path d="M13.4678 27.392C13.4758 27.42 13.4878 27.444 13.4958 27.468C13.4998 27.476 13.5038 27.484 13.5078 27.496C13.5238 27.528 13.5398 27.56 13.5598 27.592C13.5758 27.62 13.5958 27.644 13.6118 27.668C13.6438 27.712 13.6838 27.752 13.7238 27.792C13.7558 27.82 13.7838 27.848 13.8198 27.872C13.9758 27.984 14.1678 28.048 14.3718 28.048C14.5798 28.048 14.7678 27.984 14.9238 27.872C14.9558 27.848 14.9878 27.82 15.0198 27.792C15.0598 27.756 15.0958 27.712 15.1318 27.668C15.1518 27.644 15.1678 27.616 15.1838 27.592C15.2038 27.56 15.2198 27.528 15.2358 27.496C15.2398 27.488 15.2438 27.48 15.2478 27.468C15.2598 27.444 15.2678 27.416 15.2758 27.392C15.2878 27.36 15.2958 27.328 15.2998 27.296C15.3118 27.232 15.3198 27.164 15.3198 27.096C15.3198 26.992 15.3038 26.888 15.2718 26.792C15.2598 26.752 15.2438 26.712 15.2238 26.676C15.1878 26.604 15.1438 26.536 15.0918 26.476C15.0718 26.452 15.0478 26.428 15.0238 26.404C15.0198 26.4 15.0158 26.396 15.0118 26.392C14.9638 26.348 14.9118 26.308 14.8558 26.276C14.7158 26.192 14.5478 26.144 14.3718 26.144C14.1958 26.144 14.0318 26.192 13.8878 26.276C13.8318 26.308 13.7798 26.348 13.7318 26.392C13.7278 26.396 13.7238 26.4 13.7198 26.404C13.6958 26.428 13.6758 26.448 13.6518 26.476C13.5998 26.536 13.5558 26.604 13.5198 26.676C13.4998 26.712 13.4838 26.752 13.4718 26.792C13.4398 26.888 13.4238 26.988 13.4238 27.096C13.4238 27.164 13.4318 27.232 13.4438 27.296C13.4478 27.328 13.4558 27.36 13.4678 27.392ZM14.0558 27.096C14.0558 26.956 14.1478 26.836 14.2758 26.792C14.3078 26.784 14.3398 26.776 14.3718 26.776C14.4078 26.776 14.4398 26.78 14.4678 26.792C14.5958 26.832 14.6878 26.952 14.6878 27.096C14.6878 27.172 14.6598 27.24 14.6158 27.296C14.5798 27.34 14.5358 27.372 14.4838 27.392C14.4478 27.404 14.4078 27.412 14.3678 27.412C14.3278 27.412 14.2878 27.404 14.2518 27.392C14.1998 27.372 14.1558 27.34 14.1198 27.296C14.0798 27.24 14.0558 27.172 14.0558 27.096Z" fill="#00C389"/>
<path d="M24.6963 27.392C24.7043 27.42 24.7163 27.444 24.7243 27.468C24.7283 27.476 24.7323 27.484 24.7363 27.496C24.7523 27.528 24.7683 27.56 24.7883 27.592C24.8043 27.62 24.8243 27.644 24.8403 27.668C24.8723 27.712 24.9123 27.752 24.9523 27.792C24.9843 27.82 25.0123 27.848 25.0483 27.872C25.2043 27.984 25.3963 28.048 25.6003 28.048C25.8083 28.048 25.9963 27.984 26.1523 27.872C26.1843 27.848 26.2163 27.82 26.2483 27.792C26.2883 27.756 26.3243 27.712 26.3603 27.668C26.3803 27.644 26.3963 27.616 26.4123 27.592C26.4323 27.56 26.4483 27.528 26.4643 27.496C26.4683 27.488 26.4723 27.48 26.4763 27.468C26.4883 27.444 26.4963 27.416 26.5043 27.392C26.5163 27.36 26.5243 27.328 26.5283 27.296C26.5403 27.232 26.5483 27.164 26.5483 27.096C26.5483 26.992 26.5323 26.888 26.5003 26.792C26.4883 26.752 26.4723 26.712 26.4523 26.676C26.4163 26.604 26.3723 26.536 26.3203 26.476C26.3003 26.452 26.2763 26.428 26.2523 26.404C26.2483 26.4 26.2443 26.396 26.2403 26.392C26.1923 26.348 26.1403 26.308 26.0843 26.276C25.9443 26.192 25.7763 26.144 25.6003 26.144C25.4243 26.144 25.2603 26.192 25.1163 26.276C25.0603 26.308 25.0083 26.348 24.9603 26.392C24.9563 26.396 24.9523 26.4 24.9483 26.404C24.9243 26.428 24.9043 26.448 24.8803 26.476C24.8283 26.536 24.7843 26.604 24.7483 26.676C24.7283 26.712 24.7123 26.752 24.7003 26.792C24.6683 26.888 24.6523 26.988 24.6523 27.096C24.6523 27.164 24.6603 27.232 24.6723 27.296C24.6803 27.328 24.6883 27.36 24.6963 27.392ZM25.2843 27.096C25.2843 26.956 25.3763 26.836 25.5043 26.792C25.5363 26.784 25.5683 26.776 25.6003 26.776C25.6363 26.776 25.6683 26.78 25.6963 26.792C25.8243 26.832 25.9163 26.952 25.9163 27.096C25.9163 27.172 25.8883 27.24 25.8443 27.296C25.8083 27.34 25.7643 27.372 25.7123 27.392C25.6763 27.404 25.6363 27.412 25.5963 27.412C25.5563 27.412 25.5163 27.404 25.4803 27.392C25.4283 27.372 25.3843 27.34 25.3483 27.296C25.3123 27.24 25.2843 27.172 25.2843 27.096Z" fill="#00C389"/>
<path d="M20.0161 35.676C25.4601 35.676 30.2641 32.936 33.1241 28.76H6.91211C9.77211 32.936 14.5761 35.676 20.0161 35.676Z" fill="#00C389"/>
<path d="M27.3922 11.5319C27.3922 10.3359 26.5322 9.35994 25.4802 9.35994H25.3242L25.2922 9.20794C24.8802 7.35994 23.8802 6.08394 22.3162 5.41194C20.8562 4.78394 19.4922 4.94394 19.4322 4.95194H19.4202H19.4082C19.4002 4.95194 19.3922 4.95194 19.3882 4.95194C18.5762 4.95194 17.6042 5.41994 16.8402 6.17594C15.9882 7.01594 15.5002 8.10794 15.5002 9.16394V9.35994H15.3042C14.0282 9.35994 12.9922 10.5359 12.9922 11.9799V12.1919H27.3922V11.5319ZM21.1682 9.81194H20.7402C20.7442 9.83994 20.7482 9.86794 20.7482 9.89594V10.4399C20.7482 10.7439 20.5002 10.9959 20.1962 10.9959C19.8922 10.9959 19.6402 10.7479 19.6402 10.4399V9.89594C19.6402 9.86794 19.6442 9.83994 19.6482 9.81194H19.2202C19.0522 9.81194 18.9642 9.61194 19.0762 9.48794L20.0522 8.43994C20.1282 8.35594 20.2602 8.35594 20.3362 8.43994L21.3122 9.48794C21.4242 9.60794 21.3362 9.81194 21.1682 9.81194ZM22.6642 10.9959H22.3282V8.05194C22.3282 7.90794 22.2122 7.78794 22.0642 7.78794H18.3162C18.1722 7.78794 18.0522 7.90394 18.0522 8.05194V10.9959H17.7202V8.05194C17.7202 7.71994 17.9882 7.45194 18.3202 7.45194H22.0682C22.4002 7.45194 22.6682 7.71994 22.6682 8.05194V10.9959H22.6642Z" fill="#00C389"/>
<path d="M20.3922 14.4241C20.3922 14.3121 20.3042 14.2241 20.1922 14.2241C20.0802 14.2241 19.9922 14.3121 19.9922 14.4241V14.9041C19.9922 15.0161 20.0802 15.1041 20.1922 15.1041C20.3042 15.1041 20.3922 15.0161 20.3922 14.9041V14.4241Z" fill="#00C389"/>
<path d="M20.3922 13.1441C20.3922 13.0321 20.3042 12.9441 20.1922 12.9441C20.0802 12.9441 19.9922 13.0321 19.9922 13.1441V13.6241C19.9922 13.7361 20.0802 13.8241 20.1922 13.8241C20.3042 13.8241 20.3922 13.7361 20.3922 13.6241V13.1441Z" fill="#00C389"/>
<path d="M20.1922 15.5039C20.0802 15.5039 19.9922 15.5919 19.9922 15.7039V16.1839C19.9922 16.2959 20.0802 16.3839 20.1922 16.3839C20.3042 16.3839 20.3922 16.2959 20.3922 16.1839V15.7039C20.3922 15.5919 20.3042 15.5039 20.1922 15.5039Z" fill="#00C389"/>
</svg>
