<svg width="40" height="40" viewBox="0 0 40 40" fill="none" xmlns="http://www.w3.org/2000/svg">
<path d="M20 2C22.432 2 24.788 2.476 27.004 3.412C29.148 4.32 31.072 5.616 32.728 7.272C34.38 8.924 35.68 10.852 36.588 12.996C37.524 15.212 38 17.568 38 20C38 22.432 37.524 24.788 36.588 27.004C35.68 29.148 34.384 31.072 32.728 32.728C31.072 34.384 29.148 35.68 27.004 36.588C24.788 37.524 22.432 38 20 38C17.568 38 15.212 37.524 12.996 36.588C10.852 35.68 8.928 34.384 7.272 32.728C5.616 31.072 4.32 29.148 3.412 27.004C2.476 24.788 2 22.432 2 20C2 17.568 2.476 15.212 3.412 12.996C4.32 10.852 5.616 8.928 7.272 7.272C8.924 5.62 10.852 4.32 12.996 3.412C15.212 2.476 17.568 2 20 2ZM20 0C8.956 0 0 8.956 0 20C0 31.044 8.956 40 20 40C31.044 40 40 31.044 40 20C40 8.956 31.044 0 20 0Z" fill="#00C389"/>
<path d="M26.0241 10.04C26.0241 10.008 26.0201 9.97599 26.0161 9.93999C26.0121 9.90399 26.0041 9.87599 25.9921 9.84399C25.9801 9.81199 25.9681 9.77999 25.9521 9.74799C25.9401 9.72399 25.9281 9.69999 25.9121 9.67599C25.8681 9.60399 25.8161 9.53599 25.7481 9.46799C25.7321 9.45199 25.7201 9.43999 25.7041 9.42399C25.6881 9.40799 25.6721 9.39199 25.6521 9.37999C25.1121 8.91199 24.0201 8.53199 22.6241 8.31599L22.4081 7.62399C22.4081 7.63199 22.4081 7.64399 22.4081 7.65199C22.4081 7.64399 22.4081 7.63199 22.4081 7.62399C22.4081 7.61199 22.4081 7.60399 22.4041 7.59199C22.4041 7.58799 22.4041 7.58799 22.4041 7.58399C22.4041 7.57599 22.4001 7.56799 22.4001 7.56399C22.4001 7.55999 22.3961 7.55599 22.3961 7.55199C22.3961 7.54399 22.3921 7.53999 22.3881 7.53199C22.3881 7.52799 22.3841 7.52399 22.3841 7.51999C22.3801 7.51599 22.3801 7.50799 22.3761 7.50399C22.3721 7.49999 22.3721 7.49599 22.3681 7.49199C22.3641 7.48799 22.3601 7.47999 22.3561 7.47599C22.3521 7.47199 22.3521 7.46799 22.3481 7.46399C22.3441 7.45999 22.3441 7.45599 22.3401 7.45599C22.3401 7.45199 22.3361 7.45199 22.3321 7.44799C22.3281 7.44399 22.3241 7.43999 22.3241 7.43599C22.3201 7.43199 22.3161 7.42399 22.3081 7.41999C22.3041 7.41599 22.3001 7.41199 22.2961 7.40799C22.2961 7.40399 22.2921 7.40399 22.2921 7.39999C22.2881 7.39599 22.2841 7.39199 22.2841 7.39199C22.2801 7.38799 22.2761 7.38399 22.2681 7.37599C22.2641 7.37199 22.2561 7.36799 22.2521 7.35999L22.2481 7.35599L22.2441 7.35199C22.2401 7.34799 22.2401 7.34799 22.2361 7.34399C22.2281 7.33999 22.2241 7.33599 22.2161 7.32799C22.2121 7.32399 22.2041 7.31999 22.1961 7.31599C22.1921 7.31199 22.1881 7.31199 22.1881 7.30799L22.1841 7.30399L22.1801 7.29999C22.1721 7.29599 22.1681 7.29199 22.1601 7.28799C22.1521 7.28399 22.1441 7.27999 22.1361 7.27599C22.1321 7.27199 22.1281 7.27199 22.1241 7.26799C22.1201 7.26799 22.1201 7.26399 22.1161 7.26399C22.1081 7.25999 22.1001 7.25599 22.0921 7.25199C22.0841 7.24799 22.0761 7.24399 22.0681 7.23999C22.0641 7.23599 22.0601 7.23599 22.0521 7.23199C22.0481 7.23199 22.0441 7.22799 22.0401 7.22799C22.0321 7.22399 22.0241 7.21999 22.0161 7.21599C22.0081 7.21199 22.0001 7.20799 21.9881 7.20399C21.9801 7.19999 21.9761 7.19999 21.9721 7.19599C21.9681 7.19599 21.9681 7.19199 21.9641 7.19199C21.9561 7.18799 21.9441 7.18399 21.9361 7.17999C21.9281 7.17599 21.9201 7.17199 21.9081 7.16799C21.9001 7.16399 21.8961 7.16399 21.8881 7.15999C21.8841 7.15999 21.8801 7.15599 21.8761 7.15599C21.8681 7.15199 21.8601 7.14799 21.8521 7.14399C21.8401 7.13999 21.8321 7.13599 21.8201 7.13199C21.8121 7.12799 21.8041 7.12799 21.7961 7.12399C21.7921 7.12399 21.7921 7.11999 21.7881 7.11999C21.7801 7.11599 21.7681 7.11199 21.7601 7.10799C21.7481 7.10399 21.7401 7.09999 21.7281 7.09599C21.7201 7.09199 21.7121 7.09199 21.7001 7.08799C21.6961 7.08799 21.6921 7.08399 21.6841 7.08399C21.6761 7.07999 21.6681 7.07999 21.6601 7.07599C21.6481 7.07199 21.6361 7.06799 21.6241 7.06399C21.6121 7.05999 21.6041 7.05999 21.5921 7.05599C21.5881 7.05599 21.5841 7.05599 21.5841 7.05199C21.5761 7.04799 21.5641 7.04799 21.5561 7.04399C21.5441 7.03999 21.5321 7.03599 21.5201 7.03599C21.5081 7.03199 21.4961 7.03199 21.4881 7.02799C21.4841 7.02799 21.4761 7.02399 21.4721 7.02399C21.4641 7.01999 21.4561 7.01999 21.4481 7.01599C21.4361 7.01199 21.4201 7.00799 21.4081 7.00799C21.3961 7.00399 21.3841 7.00399 21.3721 6.99999C21.3721 6.99999 21.3721 6.99999 21.3681 6.99999C21.3641 6.99999 21.3641 6.99999 21.3601 6.99599C21.3521 6.99199 21.3401 6.99199 21.3321 6.98799C21.3201 6.98399 21.3081 6.98399 21.2961 6.97999C21.2841 6.97599 21.2681 6.97599 21.2561 6.97199C21.2521 6.97199 21.2441 6.96799 21.2401 6.96799C21.2321 6.96799 21.2241 6.96399 21.2161 6.96399C21.2001 6.95999 21.1881 6.95999 21.1721 6.95599C21.1601 6.95199 21.1441 6.95199 21.1321 6.94799C21.1161 6.94399 21.1041 6.94399 21.0881 6.93999C21.0761 6.93599 21.0601 6.93599 21.0481 6.93199C21.0321 6.92799 21.0161 6.92799 21.0041 6.92399C21.0001 6.92399 20.9961 6.92399 20.9961 6.92399C20.9921 6.92399 20.9881 6.92399 20.9841 6.92399C20.9761 6.92399 20.9721 6.92399 20.9641 6.91999C20.9481 6.91599 20.9321 6.91599 20.9201 6.91199C20.9041 6.91199 20.8921 6.90799 20.8761 6.90799C20.8681 6.90799 20.8601 6.90799 20.8521 6.90399C20.8481 6.90399 20.8441 6.90399 20.8441 6.90399C20.8401 6.90399 20.8361 6.90399 20.8281 6.90399C20.8121 6.90399 20.8001 6.89999 20.7841 6.89999C20.7681 6.89999 20.7521 6.89599 20.7361 6.89599C20.7281 6.89599 20.7201 6.89599 20.7081 6.89199C20.7041 6.89199 20.7001 6.89199 20.6921 6.89199C20.6681 6.88799 20.6401 6.88799 20.6121 6.88399C20.6041 6.88399 20.5961 6.88399 20.5921 6.88399H20.5881C20.5161 6.87999 20.4401 6.87199 20.3641 6.86799C20.3601 6.86799 20.3601 6.86799 20.3561 6.86799C20.3521 6.86799 20.3481 6.86799 20.3441 6.86799C20.2921 6.86399 20.2361 6.86399 20.1801 6.86399C20.1761 6.86399 20.1721 6.86399 20.1641 6.86399C20.1081 6.86399 20.0481 6.85999 19.9881 6.85999C18.6561 6.85999 17.5761 7.20399 17.5761 7.62799L17.3601 8.31999C16.8361 8.39999 16.3521 8.50399 15.9241 8.62799C15.8521 8.64799 15.7841 8.66799 15.7161 8.69199C15.6161 8.72399 15.5161 8.75999 15.4201 8.79199C15.3241 8.82399 15.2361 8.86399 15.1481 8.89999C15.0921 8.92399 15.0361 8.94799 14.9801 8.97599C14.8721 9.02799 14.7721 9.07999 14.6801 9.13599C14.6321 9.16399 14.5881 9.19199 14.5481 9.21999C14.4641 9.27599 14.3881 9.33199 14.3201 9.39199C14.3041 9.40399 14.2921 9.41599 14.2761 9.43199C14.0681 9.62399 13.9561 9.83199 13.9561 10.048C13.9561 10.048 13.9561 15.98 13.9561 16.036C13.9561 17.096 16.6521 17.952 19.9801 17.952C23.3081 17.952 26.0041 17.096 26.0041 16.036C26.0041 15.98 26.0041 10.06 26.0041 10.06V10.064C26.0241 10.048 26.0241 10.044 26.0241 10.04ZM21.9241 8.22799L22.1201 8.85599L22.3921 9.72399C22.2841 9.79199 22.0721 9.89199 21.7121 9.97999C21.2161 10.104 20.5921 10.172 19.9481 10.172C19.3041 10.172 18.6801 10.104 18.1841 9.97999C17.8241 9.88799 17.6121 9.79199 17.5041 9.72399L17.7761 8.85599L17.9721 8.22799L18.0161 8.07999C18.0601 8.09999 18.1081 8.11599 18.1601 8.13599C18.2161 8.15599 18.2761 8.17199 18.3361 8.19199C18.3881 8.20799 18.4441 8.21999 18.5041 8.23599C18.5641 8.25199 18.6321 8.26399 18.6961 8.27599C18.7601 8.28799 18.8321 8.29999 18.9001 8.31199C19.0041 8.32799 19.1161 8.33999 19.2281 8.35199C19.3041 8.35999 19.3801 8.36399 19.4601 8.37199C19.6161 8.38399 19.7801 8.38799 19.9441 8.38799C19.9921 8.38799 20.0401 8.38799 20.0841 8.38799C20.4121 8.37999 20.7241 8.35599 21.0041 8.31199C21.0601 8.30399 21.1201 8.29199 21.1721 8.28399C21.1841 8.27999 21.1961 8.27999 21.2121 8.27599C21.2641 8.26399 21.3161 8.25599 21.3641 8.24399C21.3761 8.23999 21.3921 8.23599 21.4041 8.23599C21.4561 8.22399 21.5041 8.21199 21.5521 8.19599C21.6121 8.17999 21.6721 8.15999 21.7281 8.13999C21.7761 8.12399 21.8241 8.10399 21.8721 8.08399L21.9241 8.22799ZM20.7601 7.50399C20.7681 7.50399 20.7801 7.50799 20.7881 7.50799C20.8081 7.51199 20.8321 7.51199 20.8521 7.51599C20.8561 7.51599 20.8641 7.51599 20.8681 7.51999C20.8961 7.52399 20.9201 7.52799 20.9441 7.53199C20.9521 7.53199 20.9561 7.53599 20.9641 7.53599C20.9841 7.53999 21.0001 7.54399 21.0201 7.54399C21.0281 7.54399 21.0361 7.54799 21.0441 7.54799C21.0601 7.55199 21.0761 7.55199 21.0881 7.55599C21.0961 7.55599 21.1041 7.55999 21.1121 7.55999C21.1281 7.56399 21.1441 7.56799 21.1561 7.56799C21.1641 7.56799 21.1721 7.57199 21.1761 7.57199C21.1961 7.57599 21.2161 7.57999 21.2321 7.58399C21.2361 7.58399 21.2361 7.58399 21.2401 7.58399C21.2601 7.58799 21.2801 7.59199 21.3001 7.59999C21.3081 7.59999 21.3121 7.60399 21.3201 7.60399C21.3321 7.60799 21.3441 7.61199 21.3601 7.61599C21.3641 7.61599 21.3641 7.61599 21.3681 7.61999C21.0521 7.70799 20.5801 7.78799 19.9481 7.78799C19.3161 7.78799 18.8401 7.70799 18.5281 7.61999C18.5321 7.61999 18.5321 7.61999 18.5361 7.61599C18.5481 7.61199 18.5601 7.60799 18.5761 7.60399C18.5841 7.60399 18.5881 7.59999 18.5961 7.59999C18.6161 7.59599 18.6361 7.59199 18.6561 7.58399H18.6601C18.6801 7.57999 18.7001 7.57599 18.7201 7.57199C18.7281 7.57199 18.7321 7.56799 18.7401 7.56799C18.7561 7.56399 18.7721 7.55999 18.7841 7.55999C18.7921 7.55999 18.8001 7.55599 18.8081 7.55599C18.8241 7.55199 18.8401 7.55199 18.8561 7.54799C18.8641 7.54799 18.8721 7.54399 18.8801 7.54399C18.8961 7.53999 18.9161 7.53599 18.9361 7.53599C18.9441 7.53599 18.9481 7.53199 18.9561 7.53199C18.9801 7.52799 19.0081 7.52399 19.0321 7.51999C19.0361 7.51999 19.0441 7.51999 19.0481 7.51599C19.0681 7.51199 19.0921 7.51199 19.1121 7.50799C19.1201 7.50799 19.1321 7.50399 19.1401 7.50399C19.1601 7.49999 19.1761 7.49999 19.1961 7.49599C19.2081 7.49599 19.2161 7.49199 19.2281 7.49199C19.2481 7.48799 19.2681 7.48799 19.2881 7.48399C19.3001 7.48399 19.3081 7.47999 19.3201 7.47999C19.3441 7.47599 19.3681 7.47599 19.3961 7.47199C19.4001 7.47199 19.4081 7.47199 19.4121 7.47199C19.4441 7.46799 19.4761 7.46799 19.5081 7.46399C19.5161 7.46399 19.5241 7.46399 19.5361 7.46399C19.5601 7.46399 19.5841 7.45999 19.6081 7.45999C19.6201 7.45999 19.6321 7.45999 19.6441 7.45999C19.6641 7.45999 19.6881 7.45999 19.7121 7.45599C19.7241 7.45599 19.7361 7.45599 19.7481 7.45599C19.7721 7.45599 19.7961 7.45599 19.8201 7.45599C19.8321 7.45599 19.8441 7.45599 19.8561 7.45599C19.8921 7.45599 19.9281 7.45599 19.9641 7.45599C20.0001 7.45599 20.0361 7.45599 20.0721 7.45599C20.0841 7.45599 20.0961 7.45599 20.1081 7.45599C20.1321 7.45599 20.1561 7.45599 20.1801 7.45599C20.1921 7.45599 20.2041 7.45599 20.2161 7.45599C20.2401 7.45599 20.2601 7.45599 20.2841 7.45999C20.2961 7.45999 20.3081 7.45999 20.3201 7.45999C20.3441 7.45999 20.3681 7.46399 20.3921 7.46399C20.4001 7.46399 20.4081 7.46399 20.4201 7.46399C20.4521 7.46799 20.4841 7.46799 20.5161 7.47199C20.5201 7.47199 20.5281 7.47199 20.5321 7.47199C20.5561 7.47599 20.5841 7.47599 20.6081 7.47999C20.6201 7.47999 20.6281 7.48399 20.6401 7.48399C20.6601 7.48399 20.6801 7.48799 20.7001 7.49199C20.7121 7.49199 20.7201 7.49599 20.7321 7.49599C20.7241 7.49999 20.7441 7.49999 20.7601 7.50399ZM17.5401 7.61999C17.5401 7.62399 17.5401 7.62799 17.5401 7.63199C17.5401 7.62799 17.5401 7.62799 17.5401 7.61999C17.5401 7.62399 17.5401 7.62399 17.5401 7.61999ZM15.8001 16.364C15.2841 16.18 15.0241 16.008 14.9281 15.912V12.088C15.1201 12.168 15.3241 12.244 15.5401 12.316C15.6241 12.344 15.7121 12.372 15.8001 12.396V16.364ZM17.8481 16.816C17.3281 16.748 16.8361 16.66 16.4001 16.548V12.56C16.8601 12.672 17.3441 12.76 17.8481 12.824V16.816ZM21.0521 16.908C20.6921 16.932 20.3201 16.944 19.9481 16.944C19.5761 16.944 19.2041 16.932 18.8441 16.908V12.92C19.2081 12.944 19.5761 12.956 19.9481 12.956C20.3201 12.956 20.6881 12.944 21.0521 12.92V16.908ZM23.5001 16.544C23.0641 16.656 22.5761 16.748 22.0521 16.812V12.82C22.5561 12.756 23.0401 12.668 23.5001 12.56V16.544ZM19.9521 11.356C18.4041 11.356 16.9561 11.168 15.8761 10.824C14.7641 10.472 14.5281 10.1 14.5281 10.04C14.5281 9.97999 14.7641 9.61198 15.8761 9.25599C16.2521 9.13599 16.6721 9.03598 17.1241 8.95599L16.9241 9.59199C16.8841 9.65599 16.8641 9.71999 16.8641 9.78799C16.8641 10.332 18.2481 10.772 19.9561 10.772C21.6641 10.772 23.0481 10.332 23.0481 9.78799C23.0481 9.71999 23.0281 9.65599 22.9881 9.59199L22.7881 8.95599C23.2401 9.03598 23.6601 9.13599 24.0361 9.25599C25.1481 9.60799 25.3841 9.97999 25.3841 10.04C25.3841 10.1 25.1481 10.468 24.0361 10.824C22.9481 11.164 21.5001 11.356 19.9521 11.356ZM24.9761 15.912C24.8801 16.004 24.6201 16.18 24.1041 16.364V12.404C24.1921 12.38 24.2761 12.352 24.3601 12.324C24.5801 12.252 24.7841 12.176 24.9761 12.096V15.912Z" fill="#00C389"/>
<path d="M26.0196 16.896C25.0556 17.848 22.5156 18.344 19.9996 18.344C17.4836 18.344 14.9436 17.848 13.9796 16.896C13.9756 16.92 13.9756 16.944 13.9756 16.972C13.9756 16.972 13.9756 22.904 13.9756 22.96C13.9756 24.02 16.6716 24.876 19.9996 24.876C23.3276 24.876 26.0236 24.02 26.0236 22.96C26.0236 22.904 26.0236 16.984 26.0236 16.984V16.988C26.0236 16.984 26.0236 16.976 26.0236 16.972C26.0236 16.944 26.0236 16.92 26.0196 16.896ZM15.7996 23.292C15.2836 23.108 15.0236 22.936 14.9276 22.84V19.016C15.1196 19.096 15.3236 19.172 15.5396 19.244C15.6236 19.272 15.7116 19.3 15.7996 19.324V23.292ZM17.8476 23.744C17.3276 23.676 16.8356 23.588 16.3996 23.476V19.488C16.8596 19.6 17.3436 19.688 17.8476 19.752V23.744ZM21.0516 23.84C20.6916 23.864 20.3196 23.876 19.9476 23.876C19.5756 23.876 19.2036 23.864 18.8436 23.84V19.852C19.2076 19.876 19.5756 19.888 19.9476 19.888C20.3196 19.888 20.6876 19.876 21.0516 19.852V23.84ZM23.4996 23.476C23.0636 23.588 22.5756 23.68 22.0516 23.744V19.752C22.5556 19.688 23.0396 19.6 23.4996 19.492V23.476ZM24.9756 22.844C24.8796 22.936 24.6196 23.112 24.1036 23.296V19.336C24.1916 19.312 24.2756 19.284 24.3596 19.256C24.5796 19.184 24.7836 19.108 24.9756 19.028V22.844Z" fill="#00C389"/>
<path d="M26.0196 23.88C25.0556 24.832 22.5156 25.328 19.9996 25.328C17.4836 25.328 14.9436 24.832 13.9796 23.88C13.9756 23.904 13.9756 23.928 13.9756 23.956C13.9756 23.956 13.9756 29.888 13.9756 29.944C13.9756 31.004 16.6716 31.86 19.9996 31.86C23.3276 31.86 26.0236 31.004 26.0236 29.944C26.0236 29.888 26.0236 23.968 26.0236 23.968V23.972C26.0236 23.968 26.0236 23.96 26.0236 23.956C26.0236 23.928 26.0236 23.904 26.0196 23.88ZM15.7996 30.28C15.2836 30.096 15.0236 29.924 14.9276 29.828V26.004C15.1196 26.084 15.3236 26.16 15.5396 26.232C15.6236 26.26 15.7116 26.288 15.7996 26.312V30.28ZM17.8476 30.728C17.3276 30.66 16.8356 30.572 16.3996 30.46V26.472C16.8596 26.584 17.3436 26.672 17.8476 26.736V30.728ZM21.0516 30.824C20.6916 30.848 20.3196 30.86 19.9476 30.86C19.5756 30.86 19.2036 30.848 18.8436 30.824V26.836C19.2076 26.86 19.5756 26.872 19.9476 26.872C20.3196 26.872 20.6876 26.86 21.0516 26.836V30.824ZM23.4996 30.46C23.0636 30.572 22.5756 30.664 22.0516 30.728V26.736C22.5556 26.672 23.0396 26.584 23.4996 26.476V30.46ZM24.9756 29.828C24.8796 29.92 24.6196 30.096 24.1036 30.28V26.32C24.1916 26.296 24.2756 26.268 24.3596 26.24C24.5796 26.168 24.7836 26.092 24.9756 26.012V29.828Z" fill="#00C389"/>
<path d="M10.2439 13.984L9.1799 17.996H11.4919C11.7839 17.996 11.9599 18.324 11.7919 18.568L8.1239 23.94L9.1759 19.98H6.7439C6.4479 19.98 6.2759 19.648 6.4439 19.408L10.2439 13.984Z" fill="#00C389"/>
<path d="M32.0163 13.984L30.9523 17.996H33.2643C33.5563 17.996 33.7323 18.324 33.5643 18.568L29.8963 23.94L30.9483 19.98H28.5203C28.2243 19.98 28.0523 19.648 28.2203 19.408L32.0163 13.984Z" fill="#00C389"/>
</svg>
