<svg width="40" height="40" viewBox="0 0 40 40" fill="none" xmlns="http://www.w3.org/2000/svg">
<path d="M20 0C8.956 0 0 8.956 0 20C0 31.044 8.956 40 20 40C31.044 40 40 31.044 40 20C40 8.956 31.044 0 20 0ZM32.728 32.728C31.076 34.38 29.148 35.68 27.004 36.588C24.788 37.524 22.432 38 20 38C17.568 38 15.212 37.524 12.996 36.588C10.852 35.68 8.928 34.384 7.272 32.728C5.62 31.076 4.32 29.148 3.412 27.004C2.476 24.788 2 22.432 2 20C2 17.568 2.476 15.212 3.412 12.996C4.32 10.852 5.616 8.928 7.272 7.272C8.928 5.616 10.852 4.32 12.996 3.412C15.212 2.476 17.568 2 20 2C22.432 2 24.788 2.476 27.004 3.412C29.148 4.32 31.072 5.616 32.728 7.272C34.38 8.924 35.68 10.852 36.588 12.996C37.524 15.212 38 17.568 38 20C38 22.432 37.524 24.788 36.588 27.004C35.68 29.148 34.38 31.076 32.728 32.728Z" fill="#00C389"/>
<path d="M19.9997 27.3879C18.5597 27.3879 17.3877 28.5599 17.3877 29.9999C17.3877 31.4399 18.5597 32.6119 19.9997 32.6119C21.4397 32.6119 22.6117 31.4399 22.6117 29.9999C22.6117 28.5599 21.4397 27.3879 19.9997 27.3879ZM19.9997 27.7639C20.1317 27.7639 20.2357 27.8719 20.2357 27.9999C20.2357 28.1319 20.1277 28.2359 19.9997 28.2359C19.8717 28.2359 19.7637 28.1279 19.7637 27.9999C19.7637 27.8679 19.8677 27.7639 19.9997 27.7639ZM17.9997 30.2359C17.8677 30.2359 17.7637 30.1279 17.7637 29.9999C17.7637 29.8679 17.8717 29.7639 17.9997 29.7639C18.1317 29.7639 18.2357 29.8719 18.2357 29.9999C18.2357 30.1319 18.1317 30.2359 17.9997 30.2359ZM19.9997 32.2359C19.8677 32.2359 19.7637 32.1279 19.7637 31.9999C19.7637 31.8719 19.8717 31.7639 19.9997 31.7639C20.1277 31.7639 20.2357 31.8719 20.2357 31.9999C20.2357 32.1279 20.1317 32.2359 19.9997 32.2359ZM21.3637 28.7959L20.9637 30.8479C20.9557 30.8959 20.9157 30.9319 20.8677 30.9439L18.7757 31.3439C18.7677 31.3439 18.7597 31.3479 18.7517 31.3479C18.7197 31.3479 18.6877 31.3359 18.6677 31.3119C18.6397 31.2839 18.6277 31.2439 18.6357 31.2039L19.0357 29.1119C19.0437 29.0639 19.0837 29.0239 19.1317 29.0159L21.2237 28.6559C21.2637 28.6479 21.3037 28.6639 21.3317 28.6919C21.3597 28.7199 21.3717 28.7599 21.3637 28.7959ZM21.9997 30.2359C21.8677 30.2359 21.7637 30.1279 21.7637 29.9999C21.7637 29.8679 21.8717 29.7639 21.9997 29.7639C22.1277 29.7639 22.2357 29.8719 22.2357 29.9999C22.2357 30.1319 22.1317 30.2359 21.9997 30.2359Z" fill="#00C389"/>
<path d="M19.6719 29.652C19.5799 29.74 19.5199 29.864 19.5199 30C19.5199 30.264 19.7359 30.476 19.9959 30.476C20.1319 30.476 20.2559 30.416 20.3439 30.324L20.7399 30.72L21.0919 28.916L19.2559 29.232L19.6719 29.652ZM20.1679 30.168C20.1239 30.212 20.0639 30.236 19.9999 30.236C19.9359 30.236 19.8759 30.208 19.8319 30.168C19.7999 30.136 19.7759 30.096 19.7679 30.048C19.7639 30.032 19.7639 30.016 19.7639 30C19.7639 29.992 19.7639 29.984 19.7639 29.972C19.7719 29.912 19.7999 29.86 19.8439 29.82C19.8679 29.796 19.8999 29.78 19.9319 29.772C19.9559 29.764 19.9799 29.76 20.0039 29.76C20.0279 29.76 20.0519 29.764 20.0759 29.772C20.1719 29.804 20.2439 29.892 20.2439 30C20.2439 30.06 20.2199 30.116 20.1839 30.156C20.1759 30.16 20.1719 30.164 20.1679 30.168Z" fill="#00C389"/>
<path d="M20 4C11.164 4 4 11.164 4 20C4 28.836 11.164 36 20 36C28.836 36 36 28.836 36 20C36 11.164 28.836 4 20 4ZM33.088 17.288C33.256 18.112 33.348 18.956 33.36 19.8C33.36 19.868 33.364 19.932 33.364 20C33.364 20.068 33.364 20.132 33.36 20.2C33.356 20.348 33.352 20.492 33.348 20.64C33.34 20.844 33.324 21.048 33.304 21.248C33.268 21.656 33.208 22.06 33.136 22.46C33.12 22.544 33.104 22.628 33.088 22.708C33.076 22.776 33.072 22.84 33.08 22.908C33.064 22.984 33.048 23.056 33.028 23.132C32.904 23.644 32.752 24.144 32.572 24.632C32.452 24.96 32.316 25.28 32.172 25.596C32.14 25.664 32.108 25.728 32.08 25.796C32.048 25.864 32.016 25.928 31.98 25.996C31.948 26.064 31.912 26.128 31.876 26.196C30.648 28.544 28.748 30.48 26.432 31.752C26.308 31.82 26.18 31.888 26.052 31.952C25.9 32.028 25.748 32.104 25.596 32.172C25.28 32.316 24.96 32.452 24.632 32.572C24.488 32.624 24.344 32.676 24.2 32.724C24.064 32.768 23.924 32.812 23.784 32.852C23.772 32.856 23.76 32.86 23.744 32.864C23.872 32.696 23.988 32.516 24.096 32.336C24.132 32.276 24.164 32.216 24.196 32.152C24.228 32.088 24.264 32.02 24.292 31.952C24.324 31.884 24.352 31.82 24.376 31.752C24.596 31.2 24.716 30.604 24.716 29.996C24.716 28.736 24.224 27.548 23.332 26.66C22.448 25.772 21.26 25.28 20 25.28C19.976 25.28 19.956 25.28 19.932 25.28C18.716 25.296 17.568 25.78 16.696 26.636C16.304 27.02 15.988 27.464 15.752 27.944C15.676 28.1 15.608 28.256 15.552 28.42C15.492 28.584 15.444 28.752 15.404 28.92C15.352 29.14 15.316 29.364 15.296 29.592C15.288 29.676 15.284 29.764 15.28 29.852C15.272 30.108 15.284 30.364 15.32 30.616C15.34 30.776 15.368 30.936 15.408 31.096C15.472 31.364 15.56 31.628 15.668 31.88C15.724 32.008 15.788 32.136 15.852 32.26C15.968 32.472 16.1 32.676 16.248 32.872C15.992 32.796 15.736 32.716 15.488 32.624C15.352 32.576 15.212 32.524 15.076 32.468C14.828 32.372 14.584 32.264 14.344 32.152C14.216 32.092 14.088 32.032 13.964 31.968C13.736 31.852 13.508 31.728 13.288 31.6C13.18 31.536 13.072 31.472 12.964 31.404C12.956 31.4 12.944 31.392 12.936 31.388C12.784 31.296 12.636 31.196 12.488 31.096C12.48 31.092 12.472 31.084 12.46 31.076L12.436 31.06C12.392 31.028 12.348 31 12.304 30.968C12.26 30.936 12.216 30.904 12.172 30.876L12.152 30.86C12.144 30.852 12.136 30.848 12.124 30.84C12.072 30.804 12.024 30.768 11.972 30.728C11.772 30.58 11.58 30.424 11.388 30.268C11.284 30.184 11.184 30.096 11.084 30.004C10.9 29.84 10.72 29.672 10.544 29.496C10.448 29.404 10.356 29.308 10.264 29.212C10.096 29.032 9.928 28.848 9.768 28.66C9.68 28.556 9.596 28.456 9.512 28.352C9.356 28.156 9.208 27.96 9.06 27.756C8.98 27.644 8.904 27.536 8.828 27.42C8.688 27.208 8.552 26.996 8.424 26.78C8.352 26.66 8.284 26.54 8.22 26.42C8.176 26.34 8.132 26.26 8.088 26.176C8.012 26.028 7.936 25.88 7.864 25.728C7.804 25.6 7.744 25.468 7.688 25.34C7.58 25.096 7.48 24.844 7.388 24.592C7.336 24.452 7.288 24.312 7.244 24.172C7.156 23.904 7.076 23.636 7.008 23.364C6.996 23.32 6.984 23.272 6.972 23.228C6.96 23.188 6.952 23.144 6.944 23.104C6.928 23.04 6.912 22.976 6.9 22.908C6.872 22.78 6.844 22.648 6.82 22.52C6.788 22.356 6.76 22.192 6.736 22.028C6.712 21.864 6.688 21.696 6.668 21.528C6.632 21.208 6.604 20.884 6.592 20.56C6.588 20.436 6.584 20.316 6.58 20.192C6.58 20.128 6.58 20.068 6.58 20.004C6.58 20 6.58 19.996 6.58 19.992C6.58 19.924 6.58 19.86 6.58 19.792C6.596 18.764 6.728 17.744 6.972 16.756C6.976 16.744 6.98 16.728 6.984 16.716C7 16.648 7.02 16.58 7.036 16.512C7.06 16.424 7.084 16.34 7.108 16.252C7.272 15.692 7.468 15.144 7.704 14.612C7.708 14.604 7.712 14.6 7.712 14.592C7.828 14.328 7.956 14.064 8.088 13.808C8.144 13.7 8.2 13.596 8.26 13.488C9.14 11.908 10.352 10.504 11.788 9.392C11.856 9.34 11.92 9.292 11.988 9.24C12.032 9.208 12.076 9.176 12.12 9.144C12.128 9.14 12.136 9.132 12.144 9.128L12.164 9.112C12.172 9.104 12.18 9.1 12.192 9.092C12.228 9.068 12.264 9.04 12.3 9.016C12.344 8.988 12.384 8.956 12.428 8.928L12.452 8.912C12.46 8.904 12.472 8.9 12.48 8.892C12.808 8.668 13.148 8.464 13.492 8.272C13.8 8.1 14.112 7.944 14.428 7.8C15.016 7.532 15.62 7.304 16.244 7.124C15.628 7.948 15.28 8.952 15.28 10C15.28 11.26 15.772 12.448 16.664 13.336C17.556 14.224 18.74 14.72 20 14.72C20.024 14.72 20.044 14.72 20.068 14.72C20.852 14.708 21.608 14.504 22.28 14.132C22.388 14.072 22.496 14.008 22.6 13.936C22.852 13.768 23.088 13.58 23.304 13.364C23.628 13.044 23.904 12.684 24.12 12.3C24.176 12.2 24.228 12.096 24.28 11.992C24.492 11.536 24.632 11.044 24.692 10.536C24.708 10.408 24.716 10.28 24.72 10.152C24.724 10.08 24.724 10.012 24.72 9.94C24.716 9.62 24.68 9.308 24.612 9C24.58 8.848 24.54 8.7 24.492 8.552C24.412 8.296 24.308 8.052 24.184 7.816C24.12 7.692 24.052 7.576 23.976 7.456C23.924 7.376 23.868 7.296 23.812 7.22C23.788 7.188 23.768 7.16 23.744 7.128C23.888 7.168 24.028 7.212 24.168 7.26C24.216 7.276 24.264 7.292 24.308 7.308C24.4 7.34 24.496 7.372 24.588 7.408C24.84 7.5 25.088 7.6 25.336 7.708C25.468 7.764 25.596 7.824 25.724 7.884C25.96 7.996 26.188 8.112 26.416 8.236C26.536 8.304 26.656 8.372 26.776 8.44C26.996 8.568 27.208 8.704 27.42 8.844C27.532 8.92 27.644 8.996 27.756 9.076C27.96 9.22 28.156 9.372 28.352 9.524C28.456 9.608 28.56 9.692 28.664 9.78C28.852 9.94 29.036 10.104 29.216 10.276C29.312 10.368 29.408 10.46 29.504 10.556C29.676 10.732 29.848 10.912 30.012 11.096C30.1 11.196 30.188 11.296 30.276 11.4C30.436 11.588 30.588 11.784 30.74 11.984C30.82 12.092 30.9 12.2 30.976 12.312C31.12 12.516 31.26 12.728 31.392 12.94C31.464 13.056 31.536 13.176 31.604 13.292C31.688 13.44 31.772 13.588 31.852 13.74C31.888 13.808 31.92 13.872 31.956 13.94C31.988 14.008 32.024 14.072 32.056 14.14C32.508 15.068 32.856 16.06 33.088 17.092C33.072 17.156 33.076 17.224 33.088 17.288ZM22.828 9.312C23.068 9.312 23.26 9.504 23.26 9.744V10.264C23.26 10.504 23.068 10.696 22.828 10.696V9.312ZM18.344 8.448H21.656C22.176 8.448 22.6 8.872 22.6 9.392V10.632C22.6 11.152 22.176 11.576 21.656 11.576H20.936H20.536H19.488H19.088H18.344C17.824 11.576 17.4 11.152 17.4 10.632V9.392C17.4 8.872 17.824 8.448 18.344 8.448ZM20 33.212C18.228 33.212 16.788 31.772 16.788 30C16.788 28.228 18.228 26.788 20 26.788C21.772 26.788 23.212 28.228 23.212 30C23.212 31.772 21.772 33.212 20 33.212Z" fill="#00C389"/>
<path d="M18.1798 10.936C18.1998 10.948 18.2198 10.956 18.2398 10.964C18.2718 10.976 18.3078 10.98 18.3438 10.98H19.0878H19.4878H20.5358H20.9358H21.6558C21.6678 10.98 21.6798 10.98 21.6918 10.98C21.7158 10.976 21.7358 10.972 21.7598 10.968C21.8998 10.924 21.9998 10.796 21.9998 10.64V9.4C21.9998 9.304 21.9598 9.22 21.8998 9.156C21.8718 9.128 21.8398 9.108 21.8038 9.088C21.7958 9.084 21.7878 9.08 21.7798 9.076C21.7398 9.06 21.6998 9.052 21.6558 9.052H20.9358H20.5358H19.4878H19.0878H18.3438C18.2958 9.052 18.2518 9.06 18.2118 9.08C18.1598 9.1 18.1158 9.136 18.0838 9.176C18.0758 9.184 18.0718 9.192 18.0678 9.2C18.0558 9.216 18.0478 9.232 18.0398 9.252C18.0318 9.268 18.0238 9.288 18.0198 9.308C18.0118 9.336 18.0078 9.368 18.0078 9.4V10.64C18.0078 10.736 18.0478 10.82 18.1078 10.884C18.1238 10.9 18.1518 10.92 18.1798 10.936ZM21.6558 9.288C21.7118 9.288 21.7598 9.336 21.7598 9.392V10.632C21.7598 10.688 21.7118 10.736 21.6558 10.736H20.9358V9.288H21.6558ZM20.5358 9.288V10.736H19.4878V9.288H20.5358ZM18.2398 9.392C18.2398 9.336 18.2878 9.288 18.3438 9.288H19.0878V10.736H18.3438C18.2878 10.736 18.2398 10.688 18.2398 10.632V9.392Z" fill="#00C389"/>
<path d="M20.5 18.1039V16.5519C20.5 15.9719 20.028 15.4999 19.448 15.4999H14.552C14.524 15.4999 14.5 15.4759 14.5 15.4479V8.43994C14.16 8.60394 13.828 8.77994 13.5 8.97194V15.4479C13.5 16.0279 13.972 16.4999 14.552 16.4999H19.444C19.472 16.4999 19.496 16.5239 19.496 16.5519V18.0919C18.64 18.3039 18.008 19.0799 18.008 19.9999C18.008 21.0879 18.888 21.9679 19.976 21.9679C21.064 21.9679 21.944 21.0879 21.944 19.9999C21.944 19.0959 21.332 18.3319 20.5 18.1039ZM19.976 20.9679C19.444 20.9679 19.008 20.5359 19.008 19.9999C19.008 19.4639 19.44 19.0319 19.976 19.0319C20.512 19.0319 20.944 19.4639 20.944 19.9999C20.944 20.5359 20.512 20.9679 19.976 20.9679Z" fill="#00C389"/>
<path d="M18 18.02C18.116 17.904 18.116 17.712 18 17.596C17.884 17.48 17.692 17.48 17.576 17.596C16.252 18.92 16.252 21.076 17.576 22.404C17.636 22.464 17.712 22.492 17.788 22.492C17.864 22.492 17.94 22.464 18 22.404C18.116 22.288 18.116 22.096 18 21.98C16.908 20.888 16.908 19.112 18 18.02Z" fill="#00C389"/>
<path d="M21.9561 17.596C21.8401 17.712 21.8401 17.904 21.9561 18.02C22.4841 18.548 22.7761 19.252 22.7761 20C22.7761 20.748 22.4841 21.452 21.9561 21.98C21.8401 22.096 21.8401 22.288 21.9561 22.404C22.0161 22.464 22.0921 22.492 22.1681 22.492C22.2441 22.492 22.3201 22.464 22.3801 22.404C23.0201 21.764 23.3761 20.908 23.3761 20C23.3761 19.092 23.0241 18.24 22.3801 17.596C22.2641 17.48 22.0721 17.48 21.9561 17.596Z" fill="#00C389"/>
<path d="M25.2757 8.33597C25.1877 8.29597 25.0997 8.25597 25.0117 8.21997C25.0437 8.31597 25.0757 8.41197 25.1037 8.50797L25.2757 8.33597Z" fill="#00C389"/>
<path d="M26.3442 8.87993C26.2242 8.81193 26.1002 8.74393 25.9802 8.67993L25.2842 9.37593C25.3042 9.55193 25.3162 9.72793 25.3202 9.90393L26.3442 8.87993Z" fill="#00C389"/>
<path d="M26.9922 9.27588L25.2162 11.0519C25.1602 11.3239 25.0842 11.5879 24.9922 11.8439L27.3322 9.50388C27.2202 9.42788 27.1082 9.35188 26.9922 9.27588Z" fill="#00C389"/>
<path d="M14.684 29.8321C14.688 29.7641 14.688 29.7001 14.696 29.6321L13.376 30.9521C13.496 31.0241 13.612 31.0921 13.732 31.1601L14.688 30.2041C14.68 30.0801 14.68 29.9561 14.684 29.8321Z" fill="#00C389"/>
<path d="M14.416 31.5201C14.544 31.5841 14.672 31.6401 14.804 31.7001L14.924 31.5801C14.88 31.4321 14.84 31.2841 14.808 31.1321L14.416 31.5201Z" fill="#00C389"/>
<path d="M15.5524 19.8H7.19238C7.19238 19.868 7.19238 19.932 7.19238 20C7.19238 20.068 7.19238 20.132 7.19238 20.2H8.01638L7.22838 20.988C7.24038 21.16 7.26038 21.332 7.28038 21.504L8.58038 20.204H9.62438L7.41638 22.412C7.44438 22.568 7.48038 22.724 7.51238 22.88L10.1884 20.204H11.2324L7.73238 23.704C7.77638 23.848 7.82038 23.992 7.86838 24.132L11.7964 20.204H12.8404L8.16038 24.888C8.21638 25.02 8.27238 25.152 8.33238 25.284L13.4124 20.2H14.4564L8.67638 25.984C8.74038 26.108 8.80838 26.228 8.87638 26.348L15.0244 20.2H15.3524V20.916L9.27238 26.996C9.34838 27.108 9.42438 27.22 9.50038 27.332L15.3524 21.48V22.524L9.94838 27.932C10.0324 28.036 10.1164 28.14 10.2044 28.244L15.3524 23.096V24.14L10.6964 28.792C10.7884 28.888 10.8804 28.984 10.9764 29.08L15.3524 24.704V25.748L11.5164 29.584C11.6164 29.672 11.7164 29.76 11.8204 29.844L15.3524 26.312V27.36L12.4084 30.304C12.4324 30.324 12.4564 30.34 12.4804 30.36L12.5044 30.376L12.5244 30.392C12.5644 30.42 12.6084 30.452 12.6484 30.48C12.6764 30.5 12.7044 30.52 12.7364 30.54L14.9484 28.328C15.0524 28.012 15.1884 27.704 15.3524 27.412C15.3764 27.368 15.4004 27.328 15.4244 27.288C15.4644 27.22 15.5084 27.152 15.5524 27.084C15.6164 26.988 15.6844 26.892 15.7524 26.8V20C15.7524 19.888 15.6644 19.8 15.5524 19.8Z" fill="#00C389"/>
<path d="M25.0117 31.7801C25.0317 31.7721 25.0517 31.7641 25.0717 31.7561H25.0237C25.0197 31.7641 25.0157 31.7721 25.0117 31.7801Z" fill="#00C389"/>
<path d="M31.2758 13.9361C31.2398 13.8681 31.2038 13.8041 31.1638 13.7361H31.1518L31.1598 13.7281C31.0918 13.6081 31.0238 13.4881 30.9518 13.3721L30.5878 13.7361H29.5438L30.5438 12.7361C30.4678 12.6241 30.3878 12.5161 30.3078 12.4041L28.9798 13.7321H27.9358L29.8518 11.8161C29.7678 11.7121 29.6798 11.6121 29.5918 11.5121L27.3718 13.7321H26.3198L29.0798 10.9721C28.9838 10.8761 28.8918 10.7841 28.7918 10.6921L25.7518 13.7321H24.7078L28.2398 10.2001C28.1358 10.1121 28.0318 10.0281 27.9278 9.94409L24.1438 13.7281H23.7798C23.7598 13.7481 23.7438 13.7641 23.7238 13.7841C23.6718 13.8321 23.6238 13.8801 23.5718 13.9281C23.4958 13.9961 23.4198 14.0641 23.3398 14.1281H31.3798C31.3478 14.0681 31.3118 14.0041 31.2758 13.9361Z" fill="#00C389"/>
<path d="M24.4402 19.8C24.3282 19.8 24.2402 19.888 24.2402 20V26C24.2402 26.112 24.3282 26.2 24.4402 26.2H31.2002C31.2362 26.132 31.2722 26.068 31.3082 26C31.3442 25.932 31.3762 25.868 31.4122 25.8C31.4122 25.8 31.4122 25.796 31.4162 25.796L31.4122 25.8H30.3682L32.1642 24.004C32.2522 23.74 32.3282 23.476 32.4002 23.204L29.8002 25.8H28.7562L32.6202 21.936C32.6522 21.72 32.6802 21.504 32.7002 21.288L28.1882 25.8H27.1442L32.7442 20.2H32.7602C32.7602 20.192 32.7602 20.188 32.7602 20.18C32.7602 20.12 32.7642 20.06 32.7642 20C32.7642 19.932 32.7642 19.868 32.7602 19.8H24.4402ZM24.6402 25.084L29.5242 20.2H30.5682L24.9682 25.8H24.6402V25.084ZM24.6402 23.472L27.9122 20.2H28.9562L24.6402 24.516V23.472ZM24.6402 21.86L26.3002 20.2H27.3442L24.6402 22.908V21.86ZM24.6402 20.252L24.6922 20.2H25.7362L24.6402 21.296V20.252ZM26.5802 25.8H25.5362L31.1362 20.2H32.1802L26.5802 25.8Z" fill="#00C389"/>
<path d="M12.2002 16.4961V9.85205C12.1322 9.90405 12.0682 9.95605 12.0002 10.0081C11.9322 10.0601 11.8682 10.1161 11.8002 10.1721C10.7722 11.0281 9.88021 12.044 9.16821 13.172L11.8002 10.5401V11.5841L8.08421 15.3001C7.97221 15.5881 7.86821 15.8801 7.77621 16.1761L11.8002 12.1481V13.192L8.67621 16.3161L7.72821 16.3201C7.71221 16.3801 7.69221 16.4401 7.67621 16.5001C7.65621 16.5721 7.63621 16.6481 7.61621 16.7201L12.0042 16.6961C12.1122 16.6961 12.2002 16.6081 12.2002 16.4961ZM11.8002 13.7601V14.8041L10.2962 16.3081L9.24421 16.312L11.8002 13.7601ZM11.8002 16.3001L10.8642 16.3041L11.8002 15.3681V16.3001Z" fill="#00C389"/>
</svg>
