<?xml version="1.0" encoding="utf-8"?>
<!-- Generator: Adobe Illustrator 26.3.1, SVG Export Plug-In . SVG Version: 6.00 Build 0)  -->
<!DOCTYPE svg PUBLIC "-//W3C//DTD SVG 1.1//EN" "http://www.w3.org/Graphics/SVG/1.1/DTD/svg11.dtd" [
	<!ENTITY ns_extend "http://ns.adobe.com/Extensibility/1.0/">
	<!ENTITY ns_ai "http://ns.adobe.com/AdobeIllustrator/10.0/">
	<!ENTITY ns_graphs "http://ns.adobe.com/Graphs/1.0/">
	<!ENTITY ns_vars "http://ns.adobe.com/Variables/1.0/">
	<!ENTITY ns_imrep "http://ns.adobe.com/ImageReplacement/1.0/">
	<!ENTITY ns_sfw "http://ns.adobe.com/SaveForWeb/1.0/">
	<!ENTITY ns_custom "http://ns.adobe.com/GenericCustomNamespace/1.0/">
	<!ENTITY ns_adobe_xpath "http://ns.adobe.com/XPath/1.0/">
]>
<svg version="1.1" id="Layer_1" xmlns:x="&ns_extend;" xmlns:i="&ns_ai;" xmlns:graph="&ns_graphs;"
	 xmlns="http://www.w3.org/2000/svg" xmlns:xlink="http://www.w3.org/1999/xlink" x="0px" y="0px" viewBox="0 0 1242 164.3"
	 style="enable-background:new 0 0 1242 164.3;" xml:space="preserve">
<style type="text/css">
	.st0{fill:#FFFFFF;}
	.st1{fill-rule:evenodd;clip-rule:evenodd;fill:#FFFFFF;}
</style>
<metadata>
	<sfw  xmlns="&ns_sfw;">
		<slices></slices>
		<sliceSourceBounds  bottomLeftOrigin="true" height="16383" width="1240.1" x="1.9" y="-8109.6"></sliceSourceBounds>
	</sfw>
</metadata>
<g>
	<g>
		<g>
			<path class="st0" d="M790.6,133.4h-13.3V94.5c0-12.2-3.8-17.7-12.3-17.7c-10.1,0.1-14.7,9.3-14.7,17.9v38.7H737V94.9
				c0-12.3-3.8-18.1-12-18.1c-9.8,0-14.9,9.2-14.9,18.3v38.2h-13.3V68h13.3v6.4c4.4-5.4,10.6-8.5,17.5-8.5c8.6,0,15.3,4,19.2,11.4
				c4.9-7.2,12.3-11.4,20.5-11.4c14.5,0,23.2,9.9,23.2,26.4L790.6,133.4L790.6,133.4z M779.3,131.4h9.3V92.2
				c0-15.5-7.7-24.4-21.2-24.4c-8.1,0-15.3,4.4-19.8,12l-1,1.7l-0.8-1.8c-3.4-7.7-9.8-11.9-18.1-11.9c-7.2,0-13.7,3.7-17.7,10.2
				l-1.9,3V70h-9.3v61.4h9.3V95.2c0-11.8,7.1-20.3,16.9-20.3c9.4,0,14,6.6,14,20.1v36.5h9.3V94.7c0-11.7,6.8-19.8,16.6-19.8
				c12.8,0,14.3,11.2,14.3,19.7L779.3,131.4L779.3,131.4z"/>
		</g>
		<g>
			<path class="st0" d="M829.8,135.4c-19.9,0-31.8-13.1-31.8-34.9c0-20,13.1-34.5,31.1-34.5c19,0,30.3,13,30.3,34.6v3.2h-48.1
				c0.6,12.6,7.8,20.7,18.6,20.7c6.3,0,14.1-2.1,15.7-11.9l0.1-0.8h13.2l-0.1,1.1C857.5,123.8,849.2,135.4,829.8,135.4z M829.1,67.9
				c-16.9,0-29.1,13.7-29.1,32.5c0,20.9,10.8,32.9,29.8,32.9c17.4,0,25.2-9.9,26.8-19.6h-9.2c-1.7,8.2-7.9,12.7-17.5,12.7
				c-12.1,0-20.3-9.5-20.6-23.7v-1h48.1v-1.2C857.4,80.1,846.9,67.9,829.1,67.9z M847.3,95.8h-37.7l0.1-1.1
				c0.9-11.7,8.8-19.9,19.4-19.9c11.2,0,18.2,7.6,18.2,19.9V95.8z M811.8,93.8h33.5c-0.4-10.6-6.4-16.9-16.2-16.9
				C819.8,76.9,813,83.6,811.8,93.8z"/>
		</g>
		<g>
			<path class="st0" d="M895.6,133.9c-12.1,0-19-7.2-19-19.7v-35h-11.8V68h11.8V47.1h13.3V68H903v11.3h-13.1v33.8
				c0,6.1,2.5,8.7,8.3,8.7c1.6,0,2.9-0.1,4.6-0.4l1.1-0.2v11.7l-0.8,0.2C900.7,133.8,898.3,133.9,895.6,133.9z M866.8,77.4h11.8v37
				c0,14.6,9.2,17.7,17,17.7c2.2,0,4.3-0.2,6.4-0.6v-7.8c-1.3,0.2-2.4,0.2-3.7,0.2c-7,0-10.3-3.5-10.3-10.7V77.4h13.1v-7.3h-13.2
				v-21h-9.3V70h-11.8V77.4z"/>
		</g>
		<g>
			<path class="st0" d="M928.8,133.4h-13.3V68h13.3v7.6c4.1-6.1,10.9-9.7,18.8-9.7c0.8,0,1.9,0,3,0.1l0.9,0.1v13.2l-1.1-0.2
				c-0.9-0.1-1.9-0.3-3.4-0.3c-12.1,0-18.2,6.7-18.2,19.9V133.4L928.8,133.4z M917.5,131.4h9.3V98.9c0-14.3,7-21.9,20.2-21.9
				c1,0,1.8,0.1,2.5,0.1V68c-0.7,0-1.4,0-1.9,0c-8.6,0-15.6,4.5-18.9,12l-1.9-0.4v-9.5h-9.3L917.5,131.4L917.5,131.4z"/>
		</g>
		<g>
			<path class="st0" d="M987.6,135.4c-18.9,0-32.2-14.3-32.2-34.8c0-20.4,13.2-34.6,32.2-34.6c18.6,0,32.2,14.6,32.2,34.6
				C1019.8,121.1,1006.6,135.4,987.6,135.4z M987.6,67.9c-17.8,0-30.2,13.4-30.2,32.6c0,19.6,12.1,32.8,30.2,32.8
				c17.8,0,30.2-13.5,30.2-32.8C1017.8,81.4,1005.4,67.9,987.6,67.9z M987.6,126.5c-12.4,0-20.5-10.2-20.5-26
				c0-15.6,8-25.7,20.5-25.7s20.5,10.1,20.5,25.7C1008.1,116.4,1000.1,126.5,987.6,126.5z M987.6,76.9c-11.2,0-18.5,9.3-18.5,23.7
				c0,14.6,7.2,24,18.5,24s18.5-9.4,18.5-24C1006.1,86.2,998.9,76.9,987.6,76.9z"/>
		</g>
		<g>
			<path class="st0" d="M1058.9,135.4c-15,0-32.4-9.1-32.4-34.8c0-20.1,13.9-34.6,32.9-34.6c15.8,0,27.3,9.8,28.6,24.3l0.1,1.1
				h-13.7l-0.1-0.9c-1.1-8.4-6.9-13.6-15.2-13.6c-11.2,0-19,9.8-19,23.7c0,14.6,7.6,24,19.2,24c8.8,0,14.7-5.1,15.8-13.6l0.1-0.9
				h13.1l-0.1,1.1C1087.1,126.2,1076.1,135.4,1058.9,135.4z M1059.4,67.9c-17.9,0-30.9,13.7-30.9,32.6c0,19.9,11.9,32.8,30.4,32.8
				c15.6,0,25.8-7.9,27.4-21.3h-9.2c-1.5,9.1-8.1,14.5-17.7,14.5c-12.7,0-21.2-10.4-21.2-26c0-15.1,8.6-25.7,21-25.7
				c9.1,0,15.5,5.5,17,14.5h9.7C1084.2,76.5,1073.7,67.9,1059.4,67.9z"/>
		</g>
		<g>
			<path class="st0" d="M1111.5,133.4h-13.3V68h13.3V133.4z M1100.2,131.4h9.3V70h-9.3V131.4z M1112.3,58.1h-15V42.5h15V58.1z
				 M1099.3,56.1h11V44.5h-11V56.1z"/>
		</g>
		<g>
			<path class="st0" d="M1152.3,133.9c-12.1,0-19-7.2-19-19.7v-35h-11.8V68h11.8V47.1h13.3V68h13.1v11.3h-13.1v33.8
				c0,6.1,2.5,8.7,8.3,8.7c1.6,0,2.9-0.1,4.6-0.4l1.1-0.2v11.7l-0.8,0.2C1157.4,133.8,1155,133.9,1152.3,133.9z M1123.5,77.4h11.8
				v37c0,14.6,9.2,17.7,17,17.7c2.2,0,4.3-0.2,6.4-0.6v-7.8c-1.3,0.2-2.4,0.2-3.7,0.2c-7,0-10.3-3.5-10.3-10.7V77.4h13.1v-7.3h-13.1
				v-21h-9.3V70h-11.8L1123.5,77.4L1123.5,77.4z"/>
		</g>
		<g>
			<path class="st0" d="M1193.1,161.1H1179l11.9-31L1165.1,68h14.7l18.1,46.4c0.6-1.8,1.2-3.5,1.9-5.2l14.1-41.2h14L1193.1,161.1z
				 M1181.9,159.1h9.8L1225,70h-9.7l-13.7,39.8c-0.9,2.5-1.9,5.2-2.8,7.8l-0.9,2.6l-19.5-50.1h-10.3l24.9,60.1L1181.9,159.1z"/>
		</g>
	</g>
</g>
<g>
	<path class="st1" d="M1.9,101l20.4-7.8c3.1,12.3,12.3,24.1,30.5,24.1c16.2,0,23.5-7,23.5-16.5c0-8.4-5.9-13.7-19.9-15.9l-14.8-2.5
		c-20.4-3.8-33.8-13.3-33.8-34C7.8,29.7,23.5,14,51.2,14s41.7,15.1,46.2,29.4l-20.1,7.8c-3.1-9.5-10.4-19.3-26.6-19.3
		c-14.5,0-21,7-21,15.4c0,7.8,5.6,12.3,16.5,14.3l15.1,2.5c22.1,3.9,37.5,15.1,37.5,35.2c0,19.9-14.8,35.8-46.4,35.8
		C22.9,135.1,6.6,119.4,1.9,101"/>
	<path class="st1" d="M201.4,16.5H174l-16.5,61c-5.3,19.6-6.7,24.6-7.8,29.9L141.6,71l-12-54.6h-23.2l29.9,115.8H162L179.6,69
		c5.3-19,7-24.9,8.1-29.9c1.4,5,3.1,10.6,8.4,29.9l16.8,63.2h7.3l5.3-25.5c-1.4-5.3-2.8-10.6-7-27.1L201.4,16.5z"/>
	<polygon class="st1" points="291.2,16.5 312.7,16.5 287.8,132.6 266.5,132.6 	"/>
	<polygon class="st1" points="328.9,16.5 325,35 365.3,35 365.3,132.6 386.8,132.6 386.8,35 427.7,35 427.7,16.5 	"/>
	<path class="st1" d="M432.4,74.1c0-33.9,23.8-59.9,58.7-59.9c28.5,0,46.7,16.5,52.3,35.2L523.3,57c-4.2-12.3-13.7-24.3-32.5-24.3
		c-22.1,0-35.8,15.1-35.8,41.7c0,26.3,13.7,42.5,35.8,42.5c18.7,0,28.3-10.9,33-24.9l19.6,7.8c-7.3,21-24.6,35.5-52.6,35.5
		C454.8,135.1,432.4,108.5,432.4,74.1"/>
	<polygon class="st1" points="562.2,16.5 583.8,16.5 583.8,63.5 638.1,63.5 638.1,16.5 659.6,16.5 659.6,132.6 638.1,132.6 
		638.1,82 583.8,82 583.8,132.6 562.2,132.6 	"/>
	<polygon class="st1" points="253.4,16.5 274.6,16.5 250,132.6 228.8,132.6 	"/>
</g>
</svg>
