<?xml version="1.0" encoding="utf-8"?>
<!-- Generator: Adobe Illustrator 26.3.1, SVG Export Plug-In . SVG Version: 6.00 Build 0)  -->
<!DOCTYPE svg PUBLIC "-//W3C//DTD SVG 1.1//EN" "http://www.w3.org/Graphics/SVG/1.1/DTD/svg11.dtd" [
	<!ENTITY ns_extend "http://ns.adobe.com/Extensibility/1.0/">
	<!ENTITY ns_ai "http://ns.adobe.com/AdobeIllustrator/10.0/">
	<!ENTITY ns_graphs "http://ns.adobe.com/Graphs/1.0/">
	<!ENTITY ns_vars "http://ns.adobe.com/Variables/1.0/">
	<!ENTITY ns_imrep "http://ns.adobe.com/ImageReplacement/1.0/">
	<!ENTITY ns_sfw "http://ns.adobe.com/SaveForWeb/1.0/">
	<!ENTITY ns_custom "http://ns.adobe.com/GenericCustomNamespace/1.0/">
	<!ENTITY ns_adobe_xpath "http://ns.adobe.com/XPath/1.0/">
]>
<svg version="1.1" id="Layer_1" xmlns:x="&ns_extend;" xmlns:i="&ns_ai;" xmlns:graph="&ns_graphs;"
	 xmlns="http://www.w3.org/2000/svg" xmlns:xlink="http://www.w3.org/1999/xlink" x="0px" y="0px" viewBox="0 0 844 146.9"
	 style="enable-background:new 0 0 844 146.9;" xml:space="preserve">
<style type="text/css">
	.st0{fill-rule:evenodd;clip-rule:evenodd;fill:#fff;}
	.st1{fill:#fff;}
</style>
<metadata>
	<sfw  xmlns="&ns_sfw;">
		<slices></slices>
		<sliceSourceBounds  bottomLeftOrigin="true" height="121.3" width="827.1" x="5.9" y="32.6"></sliceSourceBounds>
	</sfw>
</metadata>
<g>
	<path class="st0" d="M5.9,97.4l20.4-7.8c3.1,12.3,12.3,24.1,30.5,24.1c16.2,0,23.5-7,23.5-16.5c0-8.4-5.9-13.7-19.9-15.9l-14.8-2.5
		c-20.4-3.8-33.8-13.3-33.8-34c0-18.7,15.7-34.4,43.4-34.4s41.7,15.1,46.2,29.4l-20.1,7.8c-3.1-9.5-10.4-19.3-26.6-19.3
		c-14.5,0-21,7-21,15.4c0,7.8,5.6,12.3,16.5,14.3l15.1,2.5c22.1,3.9,37.5,15.1,37.5,35.2c0,19.9-14.8,35.8-46.4,35.8
		C26.9,131.5,10.6,115.8,5.9,97.4"/>
	<path class="st0" d="M205.4,12.9H178l-16.5,61c-5.3,19.6-6.7,24.6-7.8,29.9l-8.1-36.4l-12-54.6h-23.2l29.9,115.8H166l17.6-63.2
		c5.3-19,7-24.9,8.1-29.9c1.4,5,3.1,10.6,8.4,29.9l16.8,63.2h7.3l5.3-25.5c-1.4-5.3-2.8-10.6-7-27.1L205.4,12.9z"/>
	<polygon class="st0" points="295.2,12.9 316.7,12.9 291.8,129 270.5,129 	"/>
	<polygon class="st0" points="332.9,12.9 329,31.4 369.3,31.4 369.3,129 390.8,129 390.8,31.4 431.7,31.4 431.7,12.9 	"/>
	<path class="st0" d="M436.4,70.5c0-33.9,23.8-59.9,58.7-59.9c28.5,0,46.7,16.5,52.3,35.2l-20.1,7.6c-4.2-12.3-13.7-24.3-32.5-24.3
		c-22.1,0-35.8,15.1-35.8,41.7c0,26.3,13.7,42.5,35.8,42.5c18.7,0,28.3-10.9,33-24.9l19.6,7.8c-7.3,21-24.6,35.5-52.6,35.5
		C458.8,131.5,436.4,104.9,436.4,70.5"/>
	<polygon class="st0" points="566.2,12.9 587.8,12.9 587.8,59.9 642.1,59.9 642.1,12.9 663.6,12.9 663.6,129 642.1,129 642.1,78.4 
		587.8,78.4 587.8,129 566.2,129 	"/>
	<polygon class="st0" points="257.4,12.9 278.6,12.9 254,129 232.8,129 	"/>
</g>
<g>
	<g>
		<g>
			<path class="st1" d="M746.6,130.3c-18.8,0-37.9-12.9-37.9-41.7c0-24.7,15.3-41.3,38.1-41.3c21.1,0,35.2,15.3,35.2,38.1
				c0,1.1,0,2.2-0.1,3.3c0,1.2-0.1,2.4-0.1,3.6v1.1h-55.9c0.7,13.6,8.9,22.6,20.7,22.6h0.9c8.3,0,14.6-4.5,16.8-12l0.2-0.8H782
				l-0.4,1.4C777.7,120.8,764.7,130.3,746.6,130.3z M746.7,49.7c-21.4,0-35.7,15.7-35.7,39.1c0,27.2,17.9,39.4,35.6,39.4
				c16.7,0,28.4-8.2,32.4-22.6h-12.7c-2.7,7.9-9.7,12.8-18.7,12.8h-0.9c-13.5,0-22.7-10.4-23.1-25.9v-1.2h55.9c0-0.8,0-1.7,0.1-2.5
				c0-1.1,0.1-2.2,0.1-3.3C779.6,64.1,766.5,49.7,746.7,49.7z M767.2,81.8h-43.7l0.1-1.3c1.2-9.7,7.7-21,21.9-21h1.3
				c9.6,0,19.5,6.5,20.1,21.1L767.2,81.8z M726.2,79.6h38.5c-0.8-9-6.5-17.8-17.8-17.8h-1.3C737.6,61.8,728.3,66.5,726.2,79.6z"/>
		</g>
	</g>
	<g>
		<g>
			<path class="st1" d="M832.9,127.9h-16.6V39.5c-6.4,8.2-16.2,13.5-26,13.8h-1.2V36.8l1.1-0.1c12.5-1.4,25.2-12,28.9-24l0.2-0.8
				H833v116H832.9z M818.7,125.6h12V14.3h-9.7c-4.1,12.2-16.8,22.8-29.6,24.7v12c9.8-0.8,19.6-7,25.1-15.7l2.1-3.4v93.8H818.7z"/>
		</g>
	</g>
</g>
</svg>
