<?xml version="1.0" encoding="utf-8"?>
<!-- Generator: Adobe Illustrator 23.0.1, SVG Export Plug-In . SVG Version: 6.00 Build 0)  -->
<svg version="1.0" id="Layer_1" xmlns="http://www.w3.org/2000/svg" xmlns:xlink="http://www.w3.org/1999/xlink" x="0px" y="0px"
	 viewBox="0 0 24.9 24.8" style="enable-background:new 0 0 24.9 24.8;" xml:space="preserve">
<style type="text/css">
	.st0{clip-path:url(#SVGID_2_);fill:#FFFFFF;}
	.st1{fill:#FFFFFF;}
</style>
<g>
	<defs>
		<circle id="SVGID_1_" cx="12.4" cy="12.2" r="11.5"/>
	</defs>
	<clipPath id="SVGID_2_">
		<use xlink:href="#SVGID_1_"  style="overflow:visible;"/>
	</clipPath>
	<path class="st0" d="M12.4,2.2c5.5,0,10,4.5,10,10h3c0-7.2-5.8-13-13-13V2.2z M2.4,12.2c0-5.5,4.5-10,10-10v-3c-7.2,0-13,5.8-13,13
		H2.4z M12.4,22.2c-5.5,0-10-4.5-10-10h-3c0,7.2,5.8,13,13,13V22.2z M22.4,12.2c0,5.5-4.5,10-10,10v3c7.2,0,13-5.8,13-13H22.4z"/>
</g>
<path class="st1" d="M15.2,12.7c-0.3-0.2-0.3-0.6,0-0.8l1,1.2c0.5-0.4,0.5-1.1,0-1.5L15.2,12.7z M15.2,11.8l-5.4,4.5l1,1.2l5.4-4.5
	L15.2,11.8z M9.8,8.2l5.4,4.5l1-1.2L10.7,7L9.8,8.2z M15.7,12.4l0.5,0.6L15.7,12.4z M15.7,12.1l0.5-0.6L15.7,12.1z"/>
</svg>
