<svg width="1255" height="5" viewBox="0 0 1255 5" fill="none" xmlns="http://www.w3.org/2000/svg">
<path fill-rule="evenodd" clip-rule="evenodd" d="M422.941 4L422.941 2.26472L416 2.26472L416 4L422.941 4Z" fill="black"/>
<path fill-rule="evenodd" clip-rule="evenodd" d="M214.941 4L214.941 2.26472L208 2.26472L208 4L214.941 4Z" fill="black"/>
<path fill-rule="evenodd" clip-rule="evenodd" d="M6.94113 4L6.94113 2.26472L2.27555e-07 2.26472L0 4L6.94113 4Z" fill="black"/>
<path fill-rule="evenodd" clip-rule="evenodd" d="M1046.94 4L1046.94 2.26472L1040 2.26472L1040 4L1046.94 4Z" fill="black"/>
<path fill-rule="evenodd" clip-rule="evenodd" d="M838.941 4L838.941 2.26472L832 2.26472L832 4L838.941 4Z" fill="black"/>
<path fill-rule="evenodd" clip-rule="evenodd" d="M630.941 4L630.941 2.26472L624 2.26472L624 4L630.941 4Z" fill="black"/>
<path fill-rule="evenodd" clip-rule="evenodd" d="M1254.94 4L1254.94 2.26472L1248 2.26472L1248 4L1254.94 4Z" fill="black"/>
<path d="M1147.5 -2.18557e-07C1146.12 -3.39263e-07 1145 1.11929 1145 2.5C1145 3.88071 1146.12 5 1147.5 5C1148.88 5 1150 3.88071 1150 2.5C1150 1.11929 1148.88 -9.78513e-08 1147.5 -2.18557e-07Z" fill="black"/>
<path d="M939.5 -2.18557e-07C938.119 -3.39263e-07 937 1.11929 937 2.5C937 3.88071 938.119 5 939.5 5C940.881 5 942 3.88071 942 2.5C942 1.11929 940.881 -9.78513e-08 939.5 -2.18557e-07Z" fill="black"/>
<path d="M731.5 -2.18557e-07C730.119 -3.39263e-07 729 1.11929 729 2.5C729 3.88071 730.119 5 731.5 5C732.881 5 734 3.88071 734 2.5C734 1.11929 732.881 -9.78513e-08 731.5 -2.18557e-07Z" fill="black"/>
<path d="M523.5 -2.18557e-07C522.119 -3.39263e-07 521 1.11929 521 2.5C521 3.88071 522.119 5 523.5 5C524.881 5 526 3.88071 526 2.5C526 1.11929 524.881 -9.78513e-08 523.5 -2.18557e-07Z" fill="black"/>
<path d="M315.5 -2.18557e-07C314.119 -3.39263e-07 313 1.11929 313 2.5C313 3.88071 314.119 5 315.5 5C316.881 5 318 3.88071 318 2.5C318 1.11929 316.881 -9.78513e-08 315.5 -2.18557e-07Z" fill="black"/>
<path d="M107.5 -2.18557e-07C106.119 -3.39263e-07 105 1.11929 105 2.5C105 3.88071 106.119 5 107.5 5C108.881 5 110 3.88071 110 2.5C110 1.11929 108.881 -9.78513e-08 107.5 -2.18557e-07Z" fill="black"/>
</svg>
