<svg width="1508" height="5" viewBox="0 0 1508 5" fill="none" xmlns="http://www.w3.org/2000/svg">
<path fill-rule="evenodd" clip-rule="evenodd" d="M940.059 2L940.059 3.73528L947 3.73528L947 2L940.059 2Z" fill="white"/>
<path fill-rule="evenodd" clip-rule="evenodd" d="M1128.06 2L1128.06 3.73528L1135 3.73528L1135 2L1128.06 2Z" fill="white"/>
<path fill-rule="evenodd" clip-rule="evenodd" d="M1316.06 2.00001L1316.06 3.73529L1323 3.73529L1323 2.00001L1316.06 2.00001Z" fill="white"/>
<path fill-rule="evenodd" clip-rule="evenodd" d="M1501 2L1501 3.73528L1507.94 3.73528L1507.94 2L1501 2Z" fill="white"/>
<path fill-rule="evenodd" clip-rule="evenodd" d="M376.059 2L376.059 3.73528L383 3.73528L383 2L376.059 2Z" fill="white"/>
<path fill-rule="evenodd" clip-rule="evenodd" d="M564.059 2L564.059 3.73528L571 3.73528L571 2L564.059 2Z" fill="white"/>
<path fill-rule="evenodd" clip-rule="evenodd" d="M752.059 2L752.059 3.73528L759 3.73528L759 2L752.059 2Z" fill="white"/>
<path fill-rule="evenodd" clip-rule="evenodd" d="M188.059 2L188.059 3.73528L195 3.73528L195 2L188.059 2Z" fill="white"/>
<path fill-rule="evenodd" clip-rule="evenodd" d="M0.397248 2L0.397248 3.73528L7.33838 3.73528L7.33838 2L0.397248 2Z" fill="white"/>
<path d="M97.5 5C98.8807 5 100 3.88071 100 2.5C100 1.11929 98.8807 0 97.5 0C96.1193 0 95 1.11929 95 2.5C95 3.88071 96.1193 5 97.5 5Z" fill="white"/>
<path d="M285.5 5C286.881 5 288 3.88071 288 2.5C288 1.11929 286.881 0 285.5 0C284.119 0 283 1.11929 283 2.5C283 3.88071 284.119 5 285.5 5Z" fill="white"/>
<path d="M473.5 5C474.881 5 476 3.88071 476 2.5C476 1.11929 474.881 0 473.5 0C472.119 0 471 1.11929 471 2.5C471 3.88071 472.119 5 473.5 5Z" fill="white"/>
<path d="M661.5 5C662.881 5 664 3.88071 664 2.5C664 1.11929 662.881 0 661.5 0C660.119 0 659 1.11929 659 2.5C659 3.88071 660.119 5 661.5 5Z" fill="white"/>
<path d="M849.5 5C850.881 5 852 3.88071 852 2.5C852 1.11929 850.881 0 849.5 0C848.119 0 847 1.11929 847 2.5C847 3.88071 848.119 5 849.5 5Z" fill="white"/>
<path d="M1037.5 5C1038.88 5 1040 3.88071 1040 2.5C1040 1.11929 1038.88 0 1037.5 0C1036.12 0 1035 1.11929 1035 2.5C1035 3.88071 1036.12 5 1037.5 5Z" fill="white"/>
<path d="M1225.5 5C1226.88 5 1228 3.88071 1228 2.5C1228 1.11929 1226.88 0 1225.5 0C1224.12 0 1223 1.11929 1223 2.5C1223 3.88071 1224.12 5 1225.5 5Z" fill="white"/>
<path d="M1413.5 5C1414.88 5 1416 3.88071 1416 2.5C1416 1.11929 1414.88 0 1413.5 0C1412.12 0 1411 1.11929 1411 2.5C1411 3.88071 1412.12 5 1413.5 5Z" fill="white"/>
</svg>
