<svg width="1511" height="5" viewBox="0 0 1511 5" fill="none" xmlns="http://www.w3.org/2000/svg">
<path fill-rule="evenodd" clip-rule="evenodd" d="M939.662 2L939.662 3.73528L946.603 3.73528L946.603 2L939.662 2Z" fill="#505BFE"/>
<path fill-rule="evenodd" clip-rule="evenodd" d="M1127.66 2L1127.66 3.73528L1134.6 3.73528L1134.6 2L1127.66 2Z" fill="#505BFE"/>
<path fill-rule="evenodd" clip-rule="evenodd" d="M1315.66 2L1315.66 3.73528L1322.6 3.73528L1322.6 2L1315.66 2Z" fill="#505BFE"/>
<path fill-rule="evenodd" clip-rule="evenodd" d="M1503.6 2L1503.6 3.73528L1510.54 3.73528L1510.54 2L1503.6 2Z" fill="#505BFE"/>
<path fill-rule="evenodd" clip-rule="evenodd" d="M375.662 2L375.662 3.73528L382.603 3.73528L382.603 2L375.662 2Z" fill="#505BFE"/>
<path fill-rule="evenodd" clip-rule="evenodd" d="M563.662 2L563.662 3.73528L570.603 3.73528L570.603 2L563.662 2Z" fill="#505BFE"/>
<path fill-rule="evenodd" clip-rule="evenodd" d="M563.662 2L563.662 3.73528L570.603 3.73528L570.603 2L563.662 2Z" fill="#505BFE"/>
<path fill-rule="evenodd" clip-rule="evenodd" d="M751.662 2L751.662 3.73528L758.603 3.73528L758.603 2L751.662 2Z" fill="#505BFE"/>
<path fill-rule="evenodd" clip-rule="evenodd" d="M187.662 2L187.662 3.73528L194.603 3.73528L194.603 2L187.662 2Z" fill="#505BFE"/>
<path fill-rule="evenodd" clip-rule="evenodd" d="M3.14713e-05 2L3.13954e-05 3.73528L6.94116 3.73528L6.94116 2L3.14713e-05 2Z" fill="#505BFE"/>
<path d="M97.1028 5C98.4835 5 99.6028 3.88071 99.6028 2.5C99.6028 1.11929 98.4835 0 97.1028 0C95.7221 0 94.6028 1.11929 94.6028 2.5C94.6028 3.88071 95.7221 5 97.1028 5Z" fill="#505BFE"/>
<path d="M285.103 5C286.483 5 287.603 3.88071 287.603 2.5C287.603 1.11929 286.483 0 285.103 0C283.722 0 282.603 1.11929 282.603 2.5C282.603 3.88071 283.722 5 285.103 5Z" fill="#505BFE"/>
<path d="M473.103 5C474.484 5 475.603 3.88071 475.603 2.5C475.603 1.11929 474.484 0 473.103 0C471.722 0 470.603 1.11929 470.603 2.5C470.603 3.88071 471.722 5 473.103 5Z" fill="#505BFE"/>
<path d="M661.103 5C662.483 5 663.603 3.88071 663.603 2.5C663.603 1.11929 662.483 0 661.103 0C659.722 0 658.603 1.11929 658.603 2.5C658.603 3.88071 659.722 5 661.103 5Z" fill="#505BFE"/>
<path d="M849.103 5C850.483 5 851.603 3.88071 851.603 2.5C851.603 1.11929 850.483 0 849.103 0C847.722 0 846.603 1.11929 846.603 2.5C846.603 3.88071 847.722 5 849.103 5Z" fill="#505BFE"/>
<path d="M1037.1 5C1038.48 5 1039.6 3.88071 1039.6 2.5C1039.6 1.11929 1038.48 0 1037.1 0C1035.72 0 1034.6 1.11929 1034.6 2.5C1034.6 3.88071 1035.72 5 1037.1 5Z" fill="#505BFE"/>
<path d="M1225.1 5C1226.48 5 1227.6 3.88071 1227.6 2.5C1227.6 1.11929 1226.48 0 1225.1 0C1223.72 0 1222.6 1.11929 1222.6 2.5C1222.6 3.88071 1223.72 5 1225.1 5Z" fill="#505BFE"/>
<path d="M1413.1 5C1414.48 5 1415.6 3.88071 1415.6 2.5C1415.6 1.11929 1414.48 0 1413.1 0C1411.72 0 1410.6 1.11929 1410.6 2.5C1410.6 3.88071 1411.72 5 1413.1 5Z" fill="#505BFE"/>
</svg>
