<svg width="557" height="495" viewBox="0 0 557 495" fill="none" xmlns="http://www.w3.org/2000/svg">
<g opacity="0.6">
<path d="M157.5 131.786H153.214V132.857H157.5V131.786Z" fill="#505BFE" fill-opacity="0.8"/>
<path d="M125.357 153.214V157.5H127.5V153.214H125.357Z" fill="#505BFE" fill-opacity="0.8"/>
<path d="M126.429 133.929C127.612 133.929 128.571 133.209 128.571 132.322C128.571 131.434 127.612 130.715 126.429 130.715C125.245 130.715 124.286 131.434 124.286 132.322C124.286 133.209 125.245 133.929 126.429 133.929Z" fill="#505BFE" fill-opacity="0.8"/>
<path d="M185.357 153.214V157.5H186.429V153.214H185.357Z" fill="#505BFE" fill-opacity="0.8"/>
<path d="M185.893 127.5C186.78 127.5 187.5 126.541 187.5 125.357C187.5 124.174 186.78 123.214 185.893 123.214C185.005 123.214 184.286 124.174 184.286 125.357C184.286 126.541 185.005 127.5 185.893 127.5Z" fill="#505BFE" fill-opacity="0.8"/>
<path d="M34.2857 124.286H30V125.357H34.2857V124.286Z" fill="#505BFE" fill-opacity="0.8"/>
<path d="M1.07153 153.214L1.07153 157.5H2.14297V153.214H1.07153Z" fill="#505BFE" fill-opacity="0.8"/>
<path d="M62.1428 153.214V157.5H64.2857V153.214H62.1428Z" fill="#505BFE" fill-opacity="0.8"/>
<path d="M246.429 153.214V157.5H248.572V153.214H246.429Z" fill="#505BFE" fill-opacity="0.8"/>
<path d="M247.5 127.5C248.683 127.5 249.643 126.541 249.643 125.357C249.643 124.174 248.683 123.214 247.5 123.214C246.317 123.214 245.357 124.174 245.357 125.357C245.357 126.541 246.317 127.5 247.5 127.5Z" fill="#505BFE" fill-opacity="0.8"/>
<path d="M63.2144 127.5C64.3979 127.5 65.3573 126.541 65.3573 125.357C65.3573 124.174 64.3979 123.214 63.2144 123.214C62.0309 123.214 61.0715 124.174 61.0715 125.357C61.0715 126.541 62.0309 127.5 63.2144 127.5Z" fill="#505BFE" fill-opacity="0.8"/>
<path d="M2.14286 127.5C3.32634 127.5 4.28573 126.541 4.28573 125.357C4.28573 124.174 3.32634 123.214 2.14286 123.214C0.959393 123.214 0 124.174 0 125.357C0 126.541 0.959393 127.5 2.14286 127.5Z" fill="#505BFE" fill-opacity="0.8"/>
<path d="M96.4285 124.286H92.1428V125.357H96.4285V124.286Z" fill="#505BFE" fill-opacity="0.8"/>
<path d="M218.571 124.286H214.286V125.357H218.571V124.286Z" fill="#505BFE" fill-opacity="0.8"/>
<path d="M279.643 124.286H275.357V125.357H279.643V124.286Z" fill="#505BFE" fill-opacity="0.8"/>
<path d="M341.786 124.286H337.5V125.357H341.786V124.286Z" fill="#505BFE" fill-opacity="0.8"/>
<path d="M307.5 153.214V157.5H309.643V153.214H307.5Z" fill="#505BFE" fill-opacity="0.8"/>
<path d="M369.643 153.214V157.5H370.714V153.214H369.643Z" fill="#505BFE" fill-opacity="0.8"/>
<path d="M369.643 127.5C370.826 127.5 371.786 126.541 371.786 125.357C371.786 124.174 370.826 123.214 369.643 123.214C368.459 123.214 367.5 124.174 367.5 125.357C367.5 126.541 368.459 127.5 369.643 127.5Z" fill="#505BFE" fill-opacity="0.8"/>
<path d="M308.572 127.5C309.755 127.5 310.714 126.541 310.714 125.357C310.714 124.174 309.755 123.214 308.572 123.214C307.388 123.214 306.429 124.174 306.429 125.357C306.429 126.541 307.388 127.5 308.572 127.5Z" fill="#505BFE" fill-opacity="0.8"/>
<path d="M123.214 92.1428V96.4287H125.357V92.1428H123.214Z" fill="#505BFE" fill-opacity="0.9"/>
<path d="M185.357 92.1428V96.4287H186.429V92.1428H185.357Z" fill="#505BFE" fill-opacity="0.9"/>
<path d="M1.07153 92.1428L1.07153 96.4287H2.14297V92.1428H1.07153Z" fill="#505BFE" fill-opacity="0.9"/>
<path d="M62.1428 92.1428V96.4287H64.2857V92.1428H62.1428Z" fill="#505BFE" fill-opacity="0.9"/>
<path d="M246.429 92.1428V96.4287H248.572V92.1428H246.429Z" fill="#505BFE" fill-opacity="0.9"/>
<path d="M430.714 92.1428V96.4287H431.786V92.1428H430.714Z" fill="#505BFE" fill-opacity="0.9"/>
<path d="M491.786 92.1428V96.4287H493.929V92.1428H491.786Z" fill="#505BFE" fill-opacity="0.9"/>
<path d="M463.929 124.286H460.714V125.357H463.929V124.286Z" fill="#505BFE" fill-opacity="0.8"/>
<path d="M432.857 153.214V157.5H433.929V153.214H432.857Z" fill="#505BFE" fill-opacity="0.8"/>
<path d="M433.393 126.429C434.281 126.429 435 125.709 435 124.822C435 123.934 434.281 123.214 433.393 123.214C432.505 123.214 431.786 123.934 431.786 124.822C431.786 125.709 432.505 126.429 433.393 126.429Z" fill="#505BFE" fill-opacity="0.8"/>
<path d="M491.786 153.214V157.5H493.929V153.214H491.786Z" fill="#505BFE" fill-opacity="0.8"/>
<path d="M492.857 127.5C494.041 127.5 495 126.541 495 125.357C495 124.174 494.041 123.214 492.857 123.214C491.674 123.214 490.714 124.174 490.714 125.357C490.714 126.541 491.674 127.5 492.857 127.5Z" fill="#505BFE" fill-opacity="0.8"/>
<path d="M307.5 92.1428V96.4287H309.643V92.1428H307.5Z" fill="#505BFE" fill-opacity="0.9"/>
<path d="M369.643 92.1428V96.4287H370.714V92.1428H369.643Z" fill="#505BFE" fill-opacity="0.9"/>
<path d="M402.857 124.286H398.571V125.357H402.857V124.286Z" fill="#505BFE" fill-opacity="0.8"/>
<path d="M553.928 153.214V157.5H555V153.214H553.928Z" fill="#505BFE" fill-opacity="0.8"/>
<path d="M553.928 92.1428V96.4287H555V92.1428H553.928Z" fill="#505BFE" fill-opacity="0.9"/>
<path d="M553.929 127.5C555.112 127.5 556.072 126.541 556.072 125.357C556.072 124.174 555.112 123.214 553.929 123.214C552.745 123.214 551.786 124.174 551.786 125.357C551.786 126.541 552.745 127.5 553.929 127.5Z" fill="#505BFE" fill-opacity="0.8"/>
<path d="M526.071 124.286H521.786V125.357H526.071V124.286Z" fill="#505BFE" fill-opacity="0.8"/>
<path d="M553.928 153.214V157.5H555V153.214H553.928Z" fill="#505BFE" fill-opacity="0.8"/>
<path d="M553.928 92.1428V96.4287H555V92.1428H553.928Z" fill="#505BFE" fill-opacity="0.9"/>
<path d="M553.929 127.5C555.112 127.5 556.072 126.541 556.072 125.357C556.072 124.174 555.112 123.214 553.929 123.214C552.745 123.214 551.786 124.174 551.786 125.357C551.786 126.541 552.745 127.5 553.929 127.5Z" fill="#505BFE" fill-opacity="0.8"/>
<path opacity="0.5" d="M526.071 308.571H521.786V309.643H526.071V308.571Z" fill="#505BFE"/>
<path opacity="0.5" d="M430.714 337.5V341.786H432.857V337.5H430.714Z" fill="#505BFE"/>
<path opacity="0.6" d="M430.714 276.428V280.714H432.857V276.428H430.714Z" fill="#505BFE"/>
<path opacity="0.5" d="M431.786 310.714C432.969 310.714 433.929 309.755 433.929 308.571C433.929 307.388 432.969 306.428 431.786 306.428C430.602 306.428 429.643 307.388 429.643 308.571C429.643 309.755 430.602 310.714 431.786 310.714Z" fill="#505BFE"/>
<path opacity="0.5" d="M463.929 304.286H460.714V306.428H463.929V304.286Z" fill="#505BFE"/>
<path opacity="0.5" d="M491.786 337.5V341.786H493.929V337.5H491.786Z" fill="#505BFE"/>
<path opacity="0.6" d="M491.786 276.428V280.714H493.929V276.428H491.786Z" fill="#505BFE"/>
<path opacity="0.5" d="M492.857 310.714C494.041 310.714 495 309.755 495 308.571C495 307.388 494.041 306.428 492.857 306.428C491.674 306.428 490.714 307.388 490.714 308.571C490.714 309.755 491.674 310.714 492.857 310.714Z" fill="#505BFE"/>
<path opacity="0.5" d="M402.857 308.571H398.571V309.643H402.857V308.571Z" fill="#505BFE"/>
<path opacity="0.5" d="M553.928 337.5V341.786H555V337.5H553.928Z" fill="#505BFE"/>
<path opacity="0.6" d="M553.928 276.428V280.714H555V276.428H553.928Z" fill="#505BFE"/>
<path opacity="0.5" d="M553.929 310.714C555.112 310.714 556.072 309.755 556.072 308.571C556.072 307.388 555.112 306.428 553.929 306.428C552.745 306.428 551.786 307.388 551.786 308.571C551.786 309.755 552.745 310.714 553.929 310.714Z" fill="#505BFE"/>
<path opacity="0.5" d="M553.928 337.5V341.786H555V337.5H553.928Z" fill="#505BFE"/>
<path opacity="0.6" d="M553.928 276.428V280.714H555V276.428H553.928Z" fill="#505BFE"/>
<path opacity="0.5" d="M553.929 310.714C555.112 310.714 556.072 309.755 556.072 308.571C556.072 307.388 555.112 306.428 553.929 306.428C552.745 306.428 551.786 307.388 551.786 308.571C551.786 309.755 552.745 310.714 553.929 310.714Z" fill="#505BFE"/>
<path opacity="0.5" d="M124.286 337.5V341.786H125.357V337.5H124.286Z" fill="#505BFE"/>
<path opacity="0.6" d="M125.357 274.285V278.571H127.5V274.285H125.357Z" fill="#505BFE"/>
<path opacity="0.5" d="M124.286 310.714C125.469 310.714 126.429 309.755 126.429 308.571C126.429 307.388 125.469 306.428 124.286 306.428C123.102 306.428 122.143 307.388 122.143 308.571C122.143 309.755 123.102 310.714 124.286 310.714Z" fill="#505BFE"/>
<path opacity="0.5" d="M157.5 304.286H153.214V306.428H157.5V304.286Z" fill="#505BFE"/>
<path opacity="0.5" d="M185.357 337.5V341.786H186.429V337.5H185.357Z" fill="#505BFE"/>
<path opacity="0.6" d="M187.5 274.285V278.571H188.571V274.285H187.5Z" fill="#505BFE"/>
<path opacity="0.5" d="M185.893 310.714C186.78 310.714 187.5 309.755 187.5 308.571C187.5 307.388 186.78 306.428 185.893 306.428C185.005 306.428 184.286 307.388 184.286 308.571C184.286 309.755 185.005 310.714 185.893 310.714Z" fill="#505BFE"/>
<path opacity="0.5" d="M246.429 337.5V341.786H248.572V337.5H246.429Z" fill="#505BFE"/>
<path opacity="0.6" d="M246.429 276.428V280.714H248.572V276.428H246.429Z" fill="#505BFE"/>
<path opacity="0.5" d="M247.5 310.714C248.683 310.714 249.643 309.755 249.643 308.571C249.643 307.388 248.683 306.428 247.5 306.428C246.317 306.428 245.357 307.388 245.357 308.571C245.357 309.755 246.317 310.714 247.5 310.714Z" fill="#505BFE"/>
<path opacity="0.5" d="M96.4285 308.571H92.1428V309.643H96.4285V308.571Z" fill="#505BFE"/>
<path opacity="0.5" d="M218.571 308.571H214.286V309.643H218.571V308.571Z" fill="#505BFE"/>
<path opacity="0.5" d="M34.2857 308.571H30V309.643H34.2857V308.571Z" fill="#505BFE"/>
<path opacity="0.5" d="M1.07153 337.5L1.07153 341.786H2.14297V337.5H1.07153Z" fill="#505BFE"/>
<path opacity="0.6" d="M1.07153 276.428L1.07153 280.714H2.14297V276.428H1.07153Z" fill="#505BFE"/>
<path opacity="0.5" d="M2.14286 310.714C3.32634 310.714 4.28573 309.755 4.28573 308.571C4.28573 307.388 3.32634 306.428 2.14286 306.428C0.959393 306.428 0 307.388 0 308.571C0 309.755 0.959393 310.714 2.14286 310.714Z" fill="#505BFE"/>
<path opacity="0.5" d="M62.1428 337.5V341.786H64.2857V337.5H62.1428Z" fill="#505BFE"/>
<path opacity="0.6" d="M62.1428 276.428V280.714H64.2857V276.428H62.1428Z" fill="#505BFE"/>
<path opacity="0.5" d="M63.2144 310.714C64.3979 310.714 65.3573 309.755 65.3573 308.571C65.3573 307.388 64.3979 306.428 63.2144 306.428C62.0309 306.428 61.0715 307.388 61.0715 308.571C61.0715 309.755 62.0309 310.714 63.2144 310.714Z" fill="#505BFE"/>
<path opacity="0.5" d="M279.643 308.571H275.357V309.643H279.643V308.571Z" fill="#505BFE"/>
<path opacity="0.5" d="M341.786 308.571H337.5V309.643H341.786V308.571Z" fill="#505BFE"/>
<path opacity="0.5" d="M307.5 337.5V341.786H309.643V337.5H307.5Z" fill="#505BFE"/>
<path opacity="0.6" d="M307.5 276.428V280.714H309.643V276.428H307.5Z" fill="#505BFE"/>
<path opacity="0.5" d="M369.643 337.5V341.786H370.714V337.5H369.643Z" fill="#505BFE"/>
<path opacity="0.6" d="M369.643 276.428V280.714H370.714V276.428H369.643Z" fill="#505BFE"/>
<path opacity="0.5" d="M369.643 310.714C370.826 310.714 371.786 309.755 371.786 308.571C371.786 307.388 370.826 306.428 369.643 306.428C368.459 306.428 367.5 307.388 367.5 308.571C367.5 309.755 368.459 310.714 369.643 310.714Z" fill="#505BFE"/>
<path opacity="0.5" d="M308.572 310.714C309.755 310.714 310.714 309.755 310.714 308.571C310.714 307.388 309.755 306.428 308.572 306.428C307.388 306.428 306.429 307.388 306.429 308.571C306.429 309.755 307.388 310.714 308.572 310.714Z" fill="#505BFE"/>
<path opacity="0.3" d="M247.5 433.929C248.683 433.929 249.643 432.97 249.643 431.786C249.643 430.602 248.683 429.643 247.5 429.643C246.317 429.643 245.357 430.602 245.357 431.786C245.357 432.97 246.317 433.929 247.5 433.929Z" fill="#505BFE"/>
<path opacity="0.3" d="M247.5 433.929C248.683 433.929 249.643 432.97 249.643 431.786C249.643 430.602 248.683 429.643 247.5 429.643C246.317 429.643 245.357 430.602 245.357 431.786C245.357 432.97 246.317 433.929 247.5 433.929Z" fill="#505BFE"/>
<path opacity="0.3" d="M279.643 430.714H275.357V432.857H279.643V430.714Z" fill="#505BFE"/>
<path opacity="0.3" d="M341.786 430.714H337.5V432.857H341.786V430.714Z" fill="#505BFE"/>
<path opacity="0.3" d="M369.643 433.929C370.826 433.929 371.786 432.97 371.786 431.786C371.786 430.602 370.826 429.643 369.643 429.643C368.459 429.643 367.5 430.602 367.5 431.786C367.5 432.97 368.459 433.929 369.643 433.929Z" fill="#505BFE"/>
<path opacity="0.3" d="M308.572 433.929C309.755 433.929 310.714 432.97 310.714 431.786C310.714 430.602 309.755 429.643 308.572 429.643C307.388 429.643 306.429 430.602 306.429 431.786C306.429 432.97 307.388 433.929 308.572 433.929Z" fill="#505BFE"/>
<path opacity="0.3" d="M341.786 430.714H337.5V432.857H341.786V430.714Z" fill="#505BFE"/>
<path opacity="0.3" d="M369.643 433.929C370.826 433.929 371.786 432.97 371.786 431.786C371.786 430.602 370.826 429.643 369.643 429.643C368.459 429.643 367.5 430.602 367.5 431.786C367.5 432.97 368.459 433.929 369.643 433.929Z" fill="#505BFE"/>
<path opacity="0.3" d="M308.572 433.929C309.755 433.929 310.714 432.97 310.714 431.786C310.714 430.602 309.755 429.643 308.572 429.643C307.388 429.643 306.429 430.602 306.429 431.786C306.429 432.97 307.388 433.929 308.572 433.929Z" fill="#505BFE"/>
<path opacity="0.3" d="M402.857 430.714H398.571V432.857H402.857V430.714Z" fill="#505BFE"/>
<path opacity="0.3" d="M526.071 430.714H521.786V432.857H526.071V430.714Z" fill="#505BFE"/>
<path opacity="0.3" d="M526.071 430.714H521.786V432.857H526.071V430.714Z" fill="#505BFE"/>
<path opacity="0.4" d="M526.071 369.643H521.786V371.786H526.071V369.643Z" fill="#505BFE"/>
<path opacity="0.4" d="M430.714 398.572V402.857H432.857V398.572H430.714Z" fill="#505BFE"/>
<path opacity="0.4" d="M491.786 398.572V402.857H493.929V398.572H491.786Z" fill="#505BFE"/>
<path opacity="0.4" d="M431.786 372.857C432.969 372.857 433.929 371.898 433.929 370.714C433.929 369.531 432.969 368.571 431.786 368.571C430.602 368.571 429.643 369.531 429.643 370.714C429.643 371.898 430.602 372.857 431.786 372.857Z" fill="#505BFE"/>
<path opacity="0.4" d="M463.929 369.643H460.714V370.714H463.929V369.643Z" fill="#505BFE"/>
<path opacity="0.4" d="M492.857 372.857C494.041 372.857 495 371.898 495 370.714C495 369.531 494.041 368.571 492.857 368.571C491.674 368.571 490.714 369.531 490.714 370.714C490.714 371.898 491.674 372.857 492.857 372.857Z" fill="#505BFE"/>
<path opacity="0.3" d="M402.857 430.714H398.571V432.857H402.857V430.714Z" fill="#505BFE"/>
<path opacity="0.3" d="M463.928 430.714H459.643V432.857H463.928V430.714Z" fill="#505BFE"/>
<path opacity="0.3" d="M492.857 433.929C494.041 433.929 495 432.97 495 431.786C495 430.602 494.041 429.643 492.857 429.643C491.674 429.643 490.714 430.602 490.714 431.786C490.714 432.97 491.674 433.929 492.857 433.929Z" fill="#505BFE"/>
<path opacity="0.3" d="M431.786 433.929C432.969 433.929 433.929 432.97 433.929 431.786C433.929 430.602 432.969 429.643 431.786 429.643C430.602 429.643 429.643 430.602 429.643 431.786C429.643 432.97 430.602 433.929 431.786 433.929Z" fill="#505BFE"/>
<path opacity="0.3" d="M463.928 430.714H459.643V432.857H463.928V430.714Z" fill="#505BFE"/>
<path opacity="0.3" d="M492.857 433.929C494.041 433.929 495 432.97 495 431.786C495 430.602 494.041 429.643 492.857 429.643C491.674 429.643 490.714 430.602 490.714 431.786C490.714 432.97 491.674 433.929 492.857 433.929Z" fill="#505BFE"/>
<path opacity="0.3" d="M431.786 433.929C432.969 433.929 433.929 432.97 433.929 431.786C433.929 430.602 432.969 429.643 431.786 429.643C430.602 429.643 429.643 430.602 429.643 431.786C429.643 432.97 430.602 433.929 431.786 433.929Z" fill="#505BFE"/>
<path opacity="0.4" d="M402.857 369.643H398.571V371.786H402.857V369.643Z" fill="#505BFE"/>
<path opacity="0.4" d="M553.928 398.572V402.857H555V398.572H553.928Z" fill="#505BFE"/>
<path opacity="0.3" d="M553.929 433.929C555.112 433.929 556.072 432.97 556.072 431.786C556.072 430.602 555.112 429.643 553.929 429.643C552.745 429.643 551.786 430.602 551.786 431.786C551.786 432.97 552.745 433.929 553.929 433.929Z" fill="#505BFE"/>
<path opacity="0.4" d="M553.929 372.857C555.112 372.857 556.072 371.898 556.072 370.714C556.072 369.531 555.112 368.571 553.929 368.571C552.745 368.571 551.786 369.531 551.786 370.714C551.786 371.898 552.745 372.857 553.929 372.857Z" fill="#505BFE"/>
<path opacity="0.3" d="M553.929 433.929C555.112 433.929 556.072 432.97 556.072 431.786C556.072 430.602 555.112 429.643 553.929 429.643C552.745 429.643 551.786 430.602 551.786 431.786C551.786 432.97 552.745 433.929 553.929 433.929Z" fill="#505BFE"/>
<path opacity="0.4" d="M553.928 398.572V402.857H555V398.572H553.928Z" fill="#505BFE"/>
<path opacity="0.3" d="M553.929 433.929C555.112 433.929 556.072 432.97 556.072 431.786C556.072 430.602 555.112 429.643 553.929 429.643C552.745 429.643 551.786 430.602 551.786 431.786C551.786 432.97 552.745 433.929 553.929 433.929Z" fill="#505BFE"/>
<path opacity="0.4" d="M553.929 372.857C555.112 372.857 556.072 371.898 556.072 370.714C556.072 369.531 555.112 368.571 553.929 368.571C552.745 368.571 551.786 369.531 551.786 370.714C551.786 371.898 552.745 372.857 553.929 372.857Z" fill="#505BFE"/>
<path opacity="0.4" d="M124.286 398.572V402.857H125.357V398.572H124.286Z" fill="#505BFE"/>
<path opacity="0.4" d="M185.357 398.572V402.857H186.429V398.572H185.357Z" fill="#505BFE"/>
<path opacity="0.4" d="M124.286 372.857C125.469 372.857 126.429 371.898 126.429 370.714C126.429 369.531 125.469 368.571 124.286 368.571C123.102 368.571 122.143 369.531 122.143 370.714C122.143 371.898 123.102 372.857 124.286 372.857Z" fill="#505BFE"/>
<path opacity="0.4" d="M157.5 362.143H153.214V363.214H157.5V362.143Z" fill="#505BFE"/>
<path opacity="0.4" d="M185.893 372.857C186.78 372.857 187.5 371.898 187.5 370.714C187.5 369.531 186.78 368.571 185.893 368.571C185.005 368.571 184.286 369.531 184.286 370.714C184.286 371.898 185.005 372.857 185.893 372.857Z" fill="#505BFE"/>
<path opacity="0.3" d="M96.4285 430.714H92.1428V432.857H96.4285V430.714Z" fill="#505BFE"/>
<path opacity="0.3" d="M157.5 430.714H153.214V432.857H157.5V430.714Z" fill="#505BFE"/>
<path opacity="0.3" d="M218.571 430.714H214.286V432.857H218.571V430.714Z" fill="#505BFE"/>
<path opacity="0.4" d="M246.429 398.572V402.857H248.572V398.572H246.429Z" fill="#505BFE"/>
<path opacity="0.3" d="M185.893 433.929C186.78 433.929 187.5 432.97 187.5 431.786C187.5 430.602 186.78 429.643 185.893 429.643C185.005 429.643 184.286 430.602 184.286 431.786C184.286 432.97 185.005 433.929 185.893 433.929Z" fill="#505BFE"/>
<path opacity="0.3" d="M124.286 433.929C125.469 433.929 126.429 432.97 126.429 431.786C126.429 430.602 125.469 429.643 124.286 429.643C123.102 429.643 122.143 430.602 122.143 431.786C122.143 432.97 123.102 433.929 124.286 433.929Z" fill="#505BFE"/>
<path opacity="0.4" d="M247.5 372.857C248.683 372.857 249.643 371.898 249.643 370.714C249.643 369.531 248.683 368.571 247.5 368.571C246.317 368.571 245.357 369.531 245.357 370.714C245.357 371.898 246.317 372.857 247.5 372.857Z" fill="#505BFE"/>
<path opacity="0.3" d="M218.571 430.714H214.286V432.857H218.571V430.714Z" fill="#505BFE"/>
<path opacity="0.3" d="M157.5 430.714H153.214V432.857H157.5V430.714Z" fill="#505BFE"/>
<path opacity="0.3" d="M96.4285 430.714H92.1428V432.857H96.4285V430.714Z" fill="#505BFE"/>
<path opacity="0.3" d="M185.893 433.929C186.78 433.929 187.5 432.97 187.5 431.786C187.5 430.602 186.78 429.643 185.893 429.643C185.005 429.643 184.286 430.602 184.286 431.786C184.286 432.97 185.005 433.929 185.893 433.929Z" fill="#505BFE"/>
<path opacity="0.3" d="M124.286 433.929C125.469 433.929 126.429 432.97 126.429 431.786C126.429 430.602 125.469 429.643 124.286 429.643C123.102 429.643 122.143 430.602 122.143 431.786C122.143 432.97 123.102 433.929 124.286 433.929Z" fill="#505BFE"/>
<path opacity="0.4" d="M96.4285 369.643H92.1428V371.786H96.4285V369.643Z" fill="#505BFE"/>
<path opacity="0.4" d="M218.571 369.643H214.286V371.786H218.571V369.643Z" fill="#505BFE"/>
<path opacity="0.3" d="M34.2857 430.714H30V432.857H34.2857V430.714Z" fill="#505BFE"/>
<path opacity="0.4" d="M34.2857 369.643H30V371.786H34.2857V369.643Z" fill="#505BFE"/>
<path opacity="0.4" d="M1.07153 398.572L1.07153 402.857H2.14297V398.572H1.07153Z" fill="#505BFE"/>
<path opacity="0.3" d="M2.14286 433.929C3.32634 433.929 4.28573 432.97 4.28573 431.786C4.28573 430.602 3.32634 429.643 2.14286 429.643C0.959393 429.643 0 430.602 0 431.786C0 432.97 0.959393 433.929 2.14286 433.929Z" fill="#505BFE"/>
<path opacity="0.4" d="M2.14286 372.857C3.32634 372.857 4.28573 371.898 4.28573 370.714C4.28573 369.531 3.32634 368.571 2.14286 368.571C0.959393 368.571 0 369.531 0 370.714C0 371.898 0.959393 372.857 2.14286 372.857Z" fill="#505BFE"/>
<path opacity="0.3" d="M34.2857 430.714H30V432.857H34.2857V430.714Z" fill="#505BFE"/>
<path opacity="0.3" d="M2.14286 433.929C3.32634 433.929 4.28573 432.97 4.28573 431.786C4.28573 430.602 3.32634 429.643 2.14286 429.643C0.959393 429.643 0 430.602 0 431.786C0 432.97 0.959393 433.929 2.14286 433.929Z" fill="#505BFE"/>
<path opacity="0.4" d="M62.1428 398.572V402.857H64.2857V398.572H62.1428Z" fill="#505BFE"/>
<path opacity="0.3" d="M63.2144 433.929C64.3979 433.929 65.3573 432.97 65.3573 431.786C65.3573 430.602 64.3979 429.643 63.2144 429.643C62.0309 429.643 61.0715 430.602 61.0715 431.786C61.0715 432.97 62.0309 433.929 63.2144 433.929Z" fill="#505BFE"/>
<path opacity="0.4" d="M63.2144 372.857C64.3979 372.857 65.3573 371.898 65.3573 370.714C65.3573 369.531 64.3979 368.571 63.2144 368.571C62.0309 368.571 61.0715 369.531 61.0715 370.714C61.0715 371.898 62.0309 372.857 63.2144 372.857Z" fill="#505BFE"/>
<path opacity="0.3" d="M63.2144 433.929C64.3979 433.929 65.3573 432.97 65.3573 431.786C65.3573 430.602 64.3979 429.643 63.2144 429.643C62.0309 429.643 61.0715 430.602 61.0715 431.786C61.0715 432.97 62.0309 433.929 63.2144 433.929Z" fill="#505BFE"/>
<path opacity="0.4" d="M279.643 369.643H275.357V371.786H279.643V369.643Z" fill="#505BFE"/>
<path opacity="0.4" d="M341.786 369.643H337.5V371.786H341.786V369.643Z" fill="#505BFE"/>
<path opacity="0.4" d="M307.5 398.572V402.857H309.643V398.572H307.5Z" fill="#505BFE"/>
<path opacity="0.4" d="M369.643 398.572V402.857H370.714V398.572H369.643Z" fill="#505BFE"/>
<path opacity="0.4" d="M369.643 372.857C370.826 372.857 371.786 371.898 371.786 370.714C371.786 369.531 370.826 368.571 369.643 368.571C368.459 368.571 367.5 369.531 367.5 370.714C367.5 371.898 368.459 372.857 369.643 372.857Z" fill="#505BFE"/>
<path opacity="0.4" d="M308.572 372.857C309.755 372.857 310.714 371.898 310.714 370.714C310.714 369.531 309.755 368.571 308.572 368.571C307.388 368.571 306.429 369.531 306.429 370.714C306.429 371.898 307.388 372.857 308.572 372.857Z" fill="#505BFE"/>
<path opacity="0.3" d="M279.643 430.714H275.357V432.857H279.643V430.714Z" fill="#505BFE"/>
<path opacity="0.6" d="M526.071 246.429H521.786V248.572H526.071V246.429Z" fill="#505BFE"/>
<path opacity="0.6" d="M431.786 249.643C432.969 249.643 433.929 248.684 433.929 247.5C433.929 246.317 432.969 245.357 431.786 245.357C430.602 245.357 429.643 246.317 429.643 247.5C429.643 248.684 430.602 249.643 431.786 249.643Z" fill="#505BFE"/>
<path opacity="0.6" d="M463.929 246.429H460.714V248.572H463.929V246.429Z" fill="#505BFE"/>
<path opacity="0.6" d="M492.857 249.643C494.041 249.643 495 248.684 495 247.5C495 246.317 494.041 245.357 492.857 245.357C491.674 245.357 490.714 246.317 490.714 247.5C490.714 248.684 491.674 249.643 492.857 249.643Z" fill="#505BFE"/>
<path opacity="0.6" d="M402.857 246.429H398.571V248.572H402.857V246.429Z" fill="#505BFE"/>
<path d="M157.5 189.643H153.214V190.714H157.5V189.643Z" fill="#505BFE" fill-opacity="0.7"/>
<path d="M126.429 191.786C127.612 191.786 128.571 190.827 128.571 189.643C128.571 188.46 127.612 187.5 126.429 187.5C125.245 187.5 124.286 188.46 124.286 189.643C124.286 190.827 125.245 191.786 126.429 191.786Z" fill="#505BFE" fill-opacity="0.7"/>
<path d="M185.893 188.572C186.78 188.572 187.5 187.612 187.5 186.429C187.5 185.245 186.78 184.286 185.893 184.286C185.005 184.286 184.286 185.245 184.286 186.429C184.286 187.612 185.005 188.572 185.893 188.572Z" fill="#505BFE" fill-opacity="0.7"/>
<path d="M34.2857 185.357H30V187.5H34.2857V185.357Z" fill="#505BFE" fill-opacity="0.7"/>
<path d="M247.5 188.572C248.683 188.572 249.643 187.612 249.643 186.429C249.643 185.245 248.683 184.286 247.5 184.286C246.317 184.286 245.357 185.245 245.357 186.429C245.357 187.612 246.317 188.572 247.5 188.572Z" fill="#505BFE" fill-opacity="0.7"/>
<path d="M63.2144 188.572C64.3979 188.572 65.3573 187.612 65.3573 186.429C65.3573 185.245 64.3979 184.286 63.2144 184.286C62.0309 184.286 61.0715 185.245 61.0715 186.429C61.0715 187.612 62.0309 188.572 63.2144 188.572Z" fill="#505BFE" fill-opacity="0.7"/>
<path d="M2.14286 188.572C3.32634 188.572 4.28573 187.612 4.28573 186.429C4.28573 185.245 3.32634 184.286 2.14286 184.286C0.959393 184.286 0 185.245 0 186.429C0 187.612 0.959393 188.572 2.14286 188.572Z" fill="#505BFE" fill-opacity="0.7"/>
<path d="M96.4285 185.357H92.1428V187.5H96.4285V185.357Z" fill="#505BFE" fill-opacity="0.7"/>
<path d="M218.571 185.357H214.286V187.5H218.571V185.357Z" fill="#505BFE" fill-opacity="0.7"/>
<path d="M279.643 185.357H275.357V187.5H279.643V185.357Z" fill="#505BFE" fill-opacity="0.7"/>
<path d="M341.786 185.357H337.5V187.5H341.786V185.357Z" fill="#505BFE" fill-opacity="0.7"/>
<path d="M369.643 188.572C370.826 188.572 371.786 187.612 371.786 186.429C371.786 185.245 370.826 184.286 369.643 184.286C368.459 184.286 367.5 185.245 367.5 186.429C367.5 187.612 368.459 188.572 369.643 188.572Z" fill="#505BFE" fill-opacity="0.7"/>
<path d="M308.572 188.572C309.755 188.572 310.714 187.612 310.714 186.429C310.714 185.245 309.755 184.286 308.572 184.286C307.388 184.286 306.429 185.245 306.429 186.429C306.429 187.612 307.388 188.572 308.572 188.572Z" fill="#505BFE" fill-opacity="0.7"/>
<path d="M463.929 185.357H460.714V186.428H463.929V185.357Z" fill="#505BFE" fill-opacity="0.7"/>
<path d="M432.857 216.428V220.715H433.929V216.428H432.857Z" fill="#505BFE" fill-opacity="0.7"/>
<path d="M433.393 188.572C434.281 188.572 435 187.612 435 186.429C435 185.245 434.281 184.286 433.393 184.286C432.505 184.286 431.786 185.245 431.786 186.429C431.786 187.612 432.505 188.572 433.393 188.572Z" fill="#505BFE" fill-opacity="0.7"/>
<path d="M491.786 214.286V218.572H493.929V214.286H491.786Z" fill="#505BFE" fill-opacity="0.7"/>
<path d="M492.857 188.572C494.041 188.572 495 187.612 495 186.429C495 185.245 494.041 184.286 492.857 184.286C491.674 184.286 490.714 185.245 490.714 186.429C490.714 187.612 491.674 188.572 492.857 188.572Z" fill="#505BFE" fill-opacity="0.7"/>
<path d="M402.857 185.357H398.571V187.5H402.857V185.357Z" fill="#505BFE" fill-opacity="0.7"/>
<path d="M553.928 214.286V218.572H555V214.286H553.928Z" fill="#505BFE" fill-opacity="0.7"/>
<path d="M553.929 188.572C555.112 188.572 556.072 187.612 556.072 186.429C556.072 185.245 555.112 184.286 553.929 184.286C552.745 184.286 551.786 185.245 551.786 186.429C551.786 187.612 552.745 188.572 553.929 188.572Z" fill="#505BFE" fill-opacity="0.7"/>
<path opacity="0.6" d="M553.929 249.643C555.112 249.643 556.072 248.684 556.072 247.5C556.072 246.317 555.112 245.357 553.929 245.357C552.745 245.357 551.786 246.317 551.786 247.5C551.786 248.684 552.745 249.643 553.929 249.643Z" fill="#505BFE"/>
<path d="M526.071 185.357H521.786V187.5H526.071V185.357Z" fill="#505BFE" fill-opacity="0.7"/>
<path d="M553.928 214.286V218.572H555V214.286H553.928Z" fill="#505BFE" fill-opacity="0.7"/>
<path d="M553.929 188.572C555.112 188.572 556.072 187.612 556.072 186.429C556.072 185.245 555.112 184.286 553.929 184.286C552.745 184.286 551.786 185.245 551.786 186.429C551.786 187.612 552.745 188.572 553.929 188.572Z" fill="#505BFE" fill-opacity="0.7"/>
<path opacity="0.6" d="M553.929 249.643C555.112 249.643 556.072 248.684 556.072 247.5C556.072 246.317 555.112 245.357 553.929 245.357C552.745 245.357 551.786 246.317 551.786 247.5C551.786 248.684 552.745 249.643 553.929 249.643Z" fill="#505BFE"/>
<path opacity="0.6" d="M126.429 249.643C127.612 249.643 128.571 248.684 128.571 247.5C128.571 246.317 127.612 245.357 126.429 245.357C125.245 245.357 124.286 246.317 124.286 247.5C124.286 248.684 125.245 249.643 126.429 249.643Z" fill="#505BFE"/>
<path opacity="0.6" d="M160.714 246.429H157.5V248.572H160.714V246.429Z" fill="#505BFE"/>
<path opacity="0.6" d="M185.893 249.643C186.78 249.643 187.5 248.684 187.5 247.5C187.5 246.317 186.78 245.357 185.893 245.357C185.005 245.357 184.286 246.317 184.286 247.5C184.286 248.684 185.005 249.643 185.893 249.643Z" fill="#505BFE"/>
<path opacity="0.6" d="M247.5 249.643C248.683 249.643 249.643 248.684 249.643 247.5C249.643 246.317 248.683 245.357 247.5 245.357C246.317 245.357 245.357 246.317 245.357 247.5C245.357 248.684 246.317 249.643 247.5 249.643Z" fill="#505BFE"/>
<path opacity="0.6" d="M218.571 246.429H214.286V248.572H218.571V246.429Z" fill="#505BFE"/>
<path opacity="0.6" d="M102.857 246.429H99.6428V248.572H102.857V246.429Z" fill="#505BFE"/>
<path opacity="0.6" d="M34.2857 246.429H30V248.572H34.2857V246.429Z" fill="#505BFE"/>
<path opacity="0.6" d="M2.14286 249.643C3.32634 249.643 4.28573 248.684 4.28573 247.5C4.28573 246.317 3.32634 245.357 2.14286 245.357C0.959393 245.357 0 246.317 0 247.5C0 248.684 0.959393 249.643 2.14286 249.643Z" fill="#505BFE"/>
<path opacity="0.6" d="M63.2144 249.643C64.3978 249.643 65.3573 248.684 65.3573 247.5C65.3573 246.317 64.3978 245.357 63.2144 245.357C62.0309 245.357 61.0715 246.317 61.0715 247.5C61.0715 248.684 62.0309 249.643 63.2144 249.643Z" fill="#505BFE"/>
<path opacity="0.6" d="M341.786 246.429H337.5V248.572H341.786V246.429Z" fill="#505BFE"/>
<path opacity="0.6" d="M279.643 246.429H275.357V248.572H279.643V246.429Z" fill="#505BFE"/>
<path opacity="0.6" d="M369.643 249.643C370.826 249.643 371.786 248.684 371.786 247.5C371.786 246.317 370.826 245.357 369.643 245.357C368.459 245.357 367.5 246.317 367.5 247.5C367.5 248.684 368.459 249.643 369.643 249.643Z" fill="#505BFE"/>
<path opacity="0.6" d="M308.572 249.643C309.755 249.643 310.714 248.684 310.714 247.5C310.714 246.317 309.755 245.357 308.572 245.357C307.388 245.357 306.429 246.317 306.429 247.5C306.429 248.684 307.388 249.643 308.572 249.643Z" fill="#505BFE"/>
<path d="M1.07153 215.357L1.07153 218.572H2.14297V215.357H1.07153Z" fill="#505BFE" fill-opacity="0.7"/>
<path d="M125.357 216.428V220.715H127.5V216.428H125.357Z" fill="#505BFE" fill-opacity="0.7"/>
<path d="M185.357 214.286V218.572H186.429V214.286H185.357Z" fill="#505BFE" fill-opacity="0.7"/>
<path d="M62.1428 215.357V218.572H64.2857V215.357H62.1428Z" fill="#505BFE" fill-opacity="0.7"/>
<path d="M246.429 215.357V219.643H248.572V215.357H246.429Z" fill="#505BFE" fill-opacity="0.7"/>
<path d="M307.5 215.357V219.643H309.643V215.357H307.5Z" fill="#505BFE" fill-opacity="0.7"/>
<path d="M369.643 215.357V218.572H370.714V215.357H369.643Z" fill="#505BFE" fill-opacity="0.7"/>
<path opacity="0.2" d="M526.071 492.857H521.786V493.928H526.071V492.857Z" fill="#505BFE"/>
<path opacity="0.2" d="M402.857 492.857H398.571V493.928H402.857V492.857Z" fill="#505BFE"/>
<path opacity="0.2" d="M463.928 492.857H459.643V493.928H463.928V492.857Z" fill="#505BFE"/>
<path opacity="0.3" d="M430.714 460.714V465H431.786V460.714H430.714Z" fill="#505BFE"/>
<path opacity="0.3" d="M491.786 460.714V465H493.929V460.714H491.786Z" fill="#505BFE"/>
<path opacity="0.2" d="M492.857 495C494.041 495 495 494.041 495 492.857C495 491.674 494.041 490.714 492.857 490.714C491.674 490.714 490.714 491.674 490.714 492.857C490.714 494.041 491.674 495 492.857 495Z" fill="#505BFE"/>
<path opacity="0.2" d="M431.786 495C432.969 495 433.929 494.041 433.929 492.857C433.929 491.674 432.969 490.714 431.786 490.714C430.602 490.714 429.643 491.674 429.643 492.857C429.643 494.041 430.602 495 431.786 495Z" fill="#505BFE"/>
<path opacity="0.3" d="M553.928 460.714V465H555V460.714H553.928Z" fill="#505BFE"/>
<path opacity="0.2" d="M553.929 495C555.112 495 556.072 494.041 556.072 492.857C556.072 491.674 555.112 490.714 553.929 490.714C552.745 490.714 551.786 491.674 551.786 492.857C551.786 494.041 552.745 495 553.929 495Z" fill="#505BFE"/>
<path opacity="0.3" d="M553.928 460.714V465H555V460.714H553.928Z" fill="#505BFE"/>
<path opacity="0.2" d="M553.929 495C555.112 495 556.072 494.041 556.072 492.857C556.072 491.674 555.112 490.714 553.929 490.714C552.745 490.714 551.786 491.674 551.786 492.857C551.786 494.041 552.745 495 553.929 495Z" fill="#505BFE"/>
<path opacity="0.2" d="M96.4285 492.857H92.1428V493.928H96.4285V492.857Z" fill="#505BFE"/>
<path opacity="0.2" d="M157.5 492.857H153.214V493.928H157.5V492.857Z" fill="#505BFE"/>
<path opacity="0.2" d="M218.571 492.857H214.286V493.928H218.571V492.857Z" fill="#505BFE"/>
<path opacity="0.3" d="M123.214 460.714V465H125.357V460.714H123.214Z" fill="#505BFE"/>
<path opacity="0.3" d="M185.357 460.714V465H186.429V460.714H185.357Z" fill="#505BFE"/>
<path opacity="0.3" d="M246.429 460.714V465H248.572V460.714H246.429Z" fill="#505BFE"/>
<path opacity="0.2" d="M247.5 495C248.683 495 249.643 494.041 249.643 492.857C249.643 491.674 248.683 490.714 247.5 490.714C246.317 490.714 245.357 491.674 245.357 492.857C245.357 494.041 246.317 495 247.5 495Z" fill="#505BFE"/>
<path opacity="0.2" d="M185.893 495C186.78 495 187.5 494.041 187.5 492.857C187.5 491.674 186.78 490.714 185.893 490.714C185.005 490.714 184.286 491.674 184.286 492.857C184.286 494.041 185.005 495 185.893 495Z" fill="#505BFE"/>
<path opacity="0.2" d="M124.286 495C125.469 495 126.429 494.041 126.429 492.857C126.429 491.674 125.469 490.714 124.286 490.714C123.102 490.714 122.143 491.674 122.143 492.857C122.143 494.041 123.102 495 124.286 495Z" fill="#505BFE"/>
<path opacity="0.3" d="M246.429 460.714V465H248.572V460.714H246.429Z" fill="#505BFE"/>
<path opacity="0.2" d="M247.5 495C248.683 495 249.643 494.041 249.643 492.857C249.643 491.674 248.683 490.714 247.5 490.714C246.317 490.714 245.357 491.674 245.357 492.857C245.357 494.041 246.317 495 247.5 495Z" fill="#505BFE"/>
<path opacity="0.3" d="M62.1428 460.714V465H64.2857V460.714H62.1428Z" fill="#505BFE"/>
<path opacity="0.2" d="M63.2144 495C64.3979 495 65.3573 494.041 65.3573 492.857C65.3573 491.674 64.3979 490.714 63.2144 490.714C62.0309 490.714 61.0715 491.674 61.0715 492.857C61.0715 494.041 62.0309 495 63.2144 495Z" fill="#505BFE"/>
<path opacity="0.2" d="M279.643 492.857H275.357V493.928H279.643V492.857Z" fill="#505BFE"/>
<path opacity="0.2" d="M341.786 492.857H337.5V493.928H341.786V492.857Z" fill="#505BFE"/>
<path opacity="0.3" d="M307.5 460.714V465H309.643V460.714H307.5Z" fill="#505BFE"/>
<path opacity="0.2" d="M308.572 495C309.755 495 310.714 494.041 310.714 492.857C310.714 491.674 309.755 490.714 308.572 490.714C307.388 490.714 306.429 491.674 306.429 492.857C306.429 494.041 307.388 495 308.572 495Z" fill="#505BFE"/>
<path opacity="0.3" d="M369.643 460.714V465H370.714V460.714H369.643Z" fill="#505BFE"/>
<path opacity="0.2" d="M369.643 495C370.826 495 371.786 494.041 371.786 492.857C371.786 491.674 370.826 490.714 369.643 490.714C368.459 490.714 367.5 491.674 367.5 492.857C367.5 494.041 368.459 495 369.643 495Z" fill="#505BFE"/>
<path opacity="0.2" d="M34.2857 492.857H30V493.928H34.2857V492.857Z" fill="#505BFE"/>
<path opacity="0.3" d="M1.07153 460.714L1.07153 465H2.14297V460.714H1.07153Z" fill="#505BFE"/>
<path opacity="0.2" d="M2.14286 495C3.32634 495 4.28573 494.041 4.28573 492.857C4.28573 491.674 3.32634 490.714 2.14286 490.714C0.959393 490.714 0 491.674 0 492.857C0 494.041 0.959393 495 2.14286 495Z" fill="#505BFE"/>
<path d="M185.893 65.3569C186.78 65.3569 187.5 64.3976 187.5 63.2141C187.5 62.0307 186.78 61.0713 185.893 61.0713C185.005 61.0713 184.286 62.0307 184.286 63.2141C184.286 64.3976 185.005 65.3569 185.893 65.3569Z" fill="#505BFE" fill-opacity="0.9"/>
<path d="M34.2857 63.2146H30V64.2864H34.2857V63.2146Z" fill="#505BFE" fill-opacity="0.9"/>
<path d="M247.5 65.3569C248.683 65.3569 249.643 64.3976 249.643 63.2141C249.643 62.0307 248.683 61.0713 247.5 61.0713C246.317 61.0713 245.357 62.0307 245.357 63.2141C245.357 64.3976 246.317 65.3569 247.5 65.3569Z" fill="#505BFE" fill-opacity="0.9"/>
<path d="M63.2144 65.3569C64.3979 65.3569 65.3573 64.3976 65.3573 63.2141C65.3573 62.0307 64.3979 61.0713 63.2144 61.0713C62.0309 61.0713 61.0715 62.0307 61.0715 63.2141C61.0715 64.3976 62.0309 65.3569 63.2144 65.3569Z" fill="#505BFE" fill-opacity="0.9"/>
<path d="M2.14286 65.3569C3.32634 65.3569 4.28573 64.3976 4.28573 63.2141C4.28573 62.0307 3.32634 61.0713 2.14286 61.0713C0.959393 61.0713 0 62.0307 0 63.2141C0 64.3976 0.959393 65.3569 2.14286 65.3569Z" fill="#505BFE" fill-opacity="0.9"/>
<path d="M96.4285 63.2146H92.1428V64.2864H96.4285V63.2146Z" fill="#505BFE" fill-opacity="0.9"/>
<path d="M218.571 63.2146H214.286V64.2864H218.571V63.2146Z" fill="#505BFE" fill-opacity="0.9"/>
<path d="M279.643 63.2146H275.357V64.2864H279.643V63.2146Z" fill="#505BFE" fill-opacity="0.9"/>
<path d="M341.786 63.2146H337.5V64.2864H341.786V63.2146Z" fill="#505BFE" fill-opacity="0.9"/>
<path d="M369.643 65.3569C370.826 65.3569 371.786 64.3976 371.786 63.2141C371.786 62.0307 370.826 61.0713 369.643 61.0713C368.459 61.0713 367.5 62.0307 367.5 63.2141C367.5 64.3976 368.459 65.3569 369.643 65.3569Z" fill="#505BFE" fill-opacity="0.9"/>
<path d="M308.572 65.3569C309.755 65.3569 310.714 64.3976 310.714 63.2141C310.714 62.0307 309.755 61.0713 308.572 61.0713C307.388 61.0713 306.429 62.0307 306.429 63.2141C306.429 64.3976 307.388 65.3569 308.572 65.3569Z" fill="#505BFE" fill-opacity="0.9"/>
<path d="M124.286 31.0713V35.3572H125.357V31.0713H124.286Z" fill="#505BFE"/>
<path d="M185.357 31.0713V35.3572H186.429V31.0713H185.357Z" fill="#505BFE"/>
<path d="M1.07153 31.0713L1.07153 35.3572H2.14297V31.0713H1.07153Z" fill="#505BFE"/>
<path d="M62.1428 31.0713V35.3572H64.2857V31.0713H62.1428Z" fill="#505BFE"/>
<path d="M246.429 31.0713V35.3572H248.572V31.0713H246.429Z" fill="#505BFE"/>
<path d="M218.571 1.07153H214.286V3.21436H218.571V1.07153Z" fill="#505BFE"/>
<path d="M157.5 1.07153H153.214V3.21436H157.5V1.07153Z" fill="#505BFE"/>
<path d="M96.4285 1.07153H92.1428V3.21436H96.4285V1.07153Z" fill="#505BFE"/>
<path d="M34.2857 1.07153H30V3.21436H34.2857V1.07153Z" fill="#505BFE"/>
<path d="M247.5 4.28589C248.683 4.28589 249.643 3.32646 249.643 2.14294C249.643 0.959429 248.683 0 247.5 0C246.317 0 245.357 0.959429 245.357 2.14294C245.357 3.32646 246.317 4.28589 247.5 4.28589Z" fill="#505BFE"/>
<path d="M185.893 4.28589C186.78 4.28589 187.5 3.32646 187.5 2.14294C187.5 0.959429 186.78 0 185.893 0C185.005 0 184.286 0.959429 184.286 2.14294C184.286 3.32646 185.005 4.28589 185.893 4.28589Z" fill="#505BFE"/>
<path d="M124.286 4.28589C125.469 4.28589 126.429 3.32646 126.429 2.14294C126.429 0.959429 125.469 0 124.286 0C123.102 0 122.143 0.959429 122.143 2.14294C122.143 3.32646 123.102 4.28589 124.286 4.28589Z" fill="#505BFE"/>
<path d="M63.2144 4.28589C64.3979 4.28589 65.3573 3.32646 65.3573 2.14294C65.3573 0.959429 64.3979 0 63.2144 0C62.0309 0 61.0715 0.959429 61.0715 2.14294C61.0715 3.32646 62.0309 4.28589 63.2144 4.28589Z" fill="#505BFE"/>
<path d="M2.14286 4.28589C3.32634 4.28589 4.28573 3.32646 4.28573 2.14294C4.28573 0.959429 3.32634 0 2.14286 0C0.959393 0 0 0.959429 0 2.14294C0 3.32646 0.959393 4.28589 2.14286 4.28589Z" fill="#505BFE"/>
<path d="M430.714 31.0713V35.3572H432.857V31.0713H430.714Z" fill="#505BFE"/>
<path d="M491.786 31.0713V35.3572H493.929V31.0713H491.786Z" fill="#505BFE"/>
<path d="M492.857 65.3569C494.041 65.3569 495 64.3976 495 63.2141C495 62.0307 494.041 61.0713 492.857 61.0713C491.674 61.0713 490.714 62.0307 490.714 63.2141C490.714 64.3976 491.674 65.3569 492.857 65.3569Z" fill="#505BFE" fill-opacity="0.9"/>
<path d="M308.571 31.0713V35.3572H309.643V31.0713H308.571Z" fill="#505BFE"/>
<path d="M369.643 31.0713V35.3572H370.714V31.0713H369.643Z" fill="#505BFE"/>
<path d="M463.928 1.07153H459.643V3.21436H463.928V1.07153Z" fill="#505BFE"/>
<path d="M402.857 1.07153H398.571V3.21436H402.857V1.07153Z" fill="#505BFE"/>
<path d="M341.786 1.07153H337.5V3.21436H341.786V1.07153Z" fill="#505BFE"/>
<path d="M279.643 1.07153H275.357V3.21436H279.643V1.07153Z" fill="#505BFE"/>
<path d="M492.857 4.28589C494.041 4.28589 495 3.32646 495 2.14294C495 0.959429 494.041 0 492.857 0C491.674 0 490.714 0.959429 490.714 2.14294C490.714 3.32646 491.674 4.28589 492.857 4.28589Z" fill="#505BFE"/>
<path d="M431.786 4.28589C432.969 4.28589 433.929 3.32646 433.929 2.14294C433.929 0.959429 432.969 0 431.786 0C430.602 0 429.643 0.959429 429.643 2.14294C429.643 3.32646 430.602 4.28589 431.786 4.28589Z" fill="#505BFE"/>
<path d="M369.643 4.28589C370.826 4.28589 371.786 3.32646 371.786 2.14294C371.786 0.959429 370.826 0 369.643 0C368.459 0 367.5 0.959429 367.5 2.14294C367.5 3.32646 368.459 4.28589 369.643 4.28589Z" fill="#505BFE"/>
<path d="M308.572 4.28589C309.755 4.28589 310.714 3.32646 310.714 2.14294C310.714 0.959429 309.755 0 308.572 0C307.388 0 306.429 0.959429 306.429 2.14294C306.429 3.32646 307.388 4.28589 308.572 4.28589Z" fill="#505BFE"/>
<path d="M402.857 63.2146H398.571V64.2864H402.857V63.2146Z" fill="#505BFE" fill-opacity="0.9"/>
<path d="M553.928 31.0713V35.3572H555V31.0713H553.928Z" fill="#505BFE"/>
<path d="M526.071 1.07153H521.786V3.21436H526.071V1.07153Z" fill="#505BFE"/>
<path d="M553.929 65.3569C555.112 65.3569 556.072 64.3976 556.072 63.2141C556.072 62.0307 555.112 61.0713 553.929 61.0713C552.745 61.0713 551.786 62.0307 551.786 63.2141C551.786 64.3976 552.745 65.3569 553.929 65.3569Z" fill="#505BFE" fill-opacity="0.9"/>
<path d="M553.929 4.28589C555.112 4.28589 556.072 3.32646 556.072 2.14294C556.072 0.959429 555.112 0 553.929 0C552.745 0 551.786 0.959429 551.786 2.14294C551.786 3.32646 552.745 4.28589 553.929 4.28589Z" fill="#505BFE"/>
<path d="M526.071 63.2146H521.786V64.2864H526.071V63.2146Z" fill="#505BFE" fill-opacity="0.9"/>
<path d="M553.928 31.0713V35.3572H555V31.0713H553.928Z" fill="#505BFE"/>
<path d="M553.929 65.3569C555.112 65.3569 556.072 64.3976 556.072 63.2141C556.072 62.0307 555.112 61.0713 553.929 61.0713C552.745 61.0713 551.786 62.0307 551.786 63.2141C551.786 64.3976 552.745 65.3569 553.929 65.3569Z" fill="#505BFE" fill-opacity="0.9"/>
<path d="M553.929 4.28589C555.112 4.28589 556.072 3.32646 556.072 2.14294C556.072 0.959429 555.112 0 553.929 0C552.745 0 551.786 0.959429 551.786 2.14294C551.786 3.32646 552.745 4.28589 553.929 4.28589Z" fill="#505BFE"/>
<path d="M126.429 65.3569C127.612 65.3569 128.571 64.3976 128.571 63.2141C128.571 62.0307 127.612 61.0713 126.429 61.0713C125.245 61.0713 124.286 62.0307 124.286 63.2141C124.286 64.3976 125.245 65.3569 126.429 65.3569Z" fill="#505BFE" fill-opacity="0.9"/>
<path d="M433.393 65.3569C434.281 65.3569 435 64.3976 435 63.2141C435 62.0307 434.281 61.0713 433.393 61.0713C432.505 61.0713 431.786 62.0307 431.786 63.2141C431.786 64.3976 432.505 65.3569 433.393 65.3569Z" fill="#505BFE" fill-opacity="0.9"/>
</g>
</svg>
